<svg width="1280" height="1280" version="1.1" xmlns="http://www.w3.org/2000/svg" desc="Created with ImageTracer.java version 1.1.2" ><path desc="l 2 p 0" fill="rgb(253,253,253)" stroke="rgb(253,253,253)" stroke-width="1" opacity="1.0" d="M 0.5 0.0 L 586.0 0.5 L 579.5 40.0 L 559.5 152.0 L 537.5 156.0 L 516.0 161.5 L 494.5 168.0 L 465.5 177.0 L 366.5 59.0 L 274.0 112.5 L 327.0 257.5 L 290.0 290.5 L 257.5 327.0 L 112.5 274.0 L 59.0 366.5 L 177.0 465.5 L 171.0 483.5 L 166.0 501.5 L 162.5 512.0 L 159.0 527.5 L 154.0 549.5 L 153.0 555.5 L 151.5 560.0 L 40.0 579.5 L 0.5 586.0 L 0.5 0.0 Z" /><path desc="l 0 p 0" fill="rgb(1,1,1)" stroke="rgb(1,1,1)" stroke-width="1" opacity="1.0" d="M 586.5 0.0 L 665.5 0.0 L 685.5 0.0 Q 692.3 -1.7 694.0 1.5 L 709.0 88.5 L 717.0 134.5 L 720.5 152.0 L 742.5 156.0 L 775.0 164.5 L 814.5 177.0 L 913.5 59.0 L 1006.0 112.5 L 967.0 219.5 L 957.5 246.0 L 954.0 257.5 L 995.0 295.5 L 1022.5 326.0 L 1167.5 274.0 L 1221.0 366.5 L 1103.0 465.5 L 1111.0 488.5 L 1122.5 532.0 L 1126.5 552.0 L 1128.5 560.0 L 1280.0 586.5 L 1279.5 694.0 L 1246.0 699.5 L 1185.5 710.0 L 1145.5 717.0 L 1128.0 720.5 L 1123.5 743.0 L 1115.5 775.0 L 1103.0 814.5 L 1221.0 913.5 L 1167.5 1006.0 L 1022.5 954.0 L 984.5 995.0 L 954.0 1022.5 L 957.5 1034.0 L 967.0 1059.5 L 1006.0 1167.5 L 913.5 1221.0 L 814.5 1103.0 L 796.5 1109.0 L 778.5 1114.0 L 768.0 1117.5 L 752.5 1121.0 L 730.5 1126.0 L 724.5 1127.0 L 720.0 1128.5 L 700.5 1239.0 L 696.0 1264.5 L 695.0 1273.5 L 692.5 1280.0 L 586.0 1279.5 L 579.5 1240.0 L 559.5 1128.0 L 537.5 1124.0 L 516.0 1118.5 L 494.5 1112.0 L 465.5 1103.0 L 366.5 1221.0 L 274.0 1167.5 L 327.0 1022.5 L 290.0 989.5 L 257.5 953.0 L 112.5 1006.0 L 59.0 913.5 L 177.0 814.5 L 171.0 796.5 L 166.0 778.5 L 162.5 768.0 L 159.0 752.5 L 154.0 730.5 L 153.0 724.5 L 151.5 720.0 L 0.0 693.5 L 0.5 586.0 L 40.0 579.5 L 152.0 559.5 L 156.0 537.5 L 164.5 505.0 L 177.0 465.5 L 59.0 366.5 L 112.5 274.0 L 257.5 327.0 L 290.5 290.0 L 327.0 257.5 L 274.0 112.5 L 366.5 59.0 L 465.5 177.0 L 499.5 166.0 L 527.5 159.0 L 549.5 154.0 L 555.5 153.0 L 560.0 151.5 L 586.5 0.0 Z" /><path desc="l 2 p 1" fill="rgb(253,253,253)" stroke="rgb(253,253,253)" stroke-width="1" opacity="1.0" d="M 693.5 0.0 L 1280.0 0.5 L 1279.5 586.0 L 1240.0 579.5 L 1128.0 559.5 L 1121.0 526.5 L 1112.0 492.5 L 1103.0 465.5 L 1221.0 366.5 L 1167.5 274.0 L 1022.5 326.0 L 984.5 285.0 L 954.0 257.5 L 957.5 246.0 L 967.0 220.5 L 1006.0 112.5 L 913.5 59.0 L 814.5 177.0 L 796.5 171.0 L 778.5 166.0 L 768.0 162.5 L 752.5 159.0 L 730.5 154.0 L 724.5 153.0 L 720.0 151.5 L 700.5 41.0 L 696.0 15.5 L 693.5 0.0 Z" /><path desc="l 2 p 2" fill="rgb(253,253,253)" stroke="rgb(253,253,253)" stroke-width="1" opacity="1.0" d="M 599.5 181.0 L 601.0 181.5 L 600.5 183.0 L 597.0 185.5 L 599.0 209.5 L 600.0 218.5 Q 599.3 223.3 602.5 224.0 L 604.0 224.5 L 603.5 226.0 L 586.5 227.0 L 586.5 226.0 L 590.0 223.5 L 587.5 207.0 L 569.0 209.5 L 570.0 220.5 Q 569.4 225.6 572.5 227.0 L 575.0 227.5 L 574.5 229.0 L 557.5 232.0 L 559.5 229.0 Q 562.3 227.8 560.0 226.5 L 559.0 219.5 L 556.0 203.5 L 555.0 197.5 L 552.5 191.0 L 548.0 189.5 L 555.0 187.5 L 567.5 185.0 L 568.5 187.0 L 565.0 189.5 L 566.5 200.0 Q 565.9 204.6 568.5 206.0 L 582.5 204.0 Q 587.0 205.0 588.0 202.5 L 586.0 190.5 Q 586.8 185.8 583.5 185.0 L 581.0 184.5 Q 582.0 182.0 586.5 183.0 L 594.5 182.0 L 599.5 181.0 Z" /><path desc="l 2 p 3" fill="rgb(253,253,253)" stroke="rgb(253,253,253)" stroke-width="1" opacity="1.0" d="M 645.5 185.0 L 657.5 186.0 L 662.5 187.0 L 668.0 189.5 L 666.5 199.0 L 659.5 190.0 L 647.5 189.0 L 642.0 192.5 Q 637.0 198.0 639.0 210.5 Q 639.9 217.1 644.5 220.0 Q 647.7 222.3 654.5 221.0 Q 660.2 218.1 659.0 208.5 L 656.0 206.5 L 671.5 206.0 L 669.0 209.5 Q 671.0 219.0 665.5 221.0 L 657.5 224.0 L 653.5 225.0 L 644.5 225.0 L 637.5 222.0 L 630.0 215.5 Q 626.4 210.1 628.0 199.5 Q 629.1 192.1 634.5 189.0 L 645.5 185.0 Z" /><path desc="l 2 p 4" fill="rgb(253,253,253)" stroke="rgb(253,253,253)" stroke-width="1" opacity="1.0" d="M 616.5 186.0 L 618.5 187.0 L 623.5 186.0 L 624.0 187.5 L 620.0 190.5 L 620.0 196.5 L 621.0 199.5 L 620.0 201.5 L 621.0 204.5 L 621.0 213.5 Q 619.9 219.6 622.5 222.0 L 625.0 223.5 L 619.5 225.0 L 608.5 225.0 L 609.5 223.0 L 611.0 222.5 L 610.0 202.5 Q 611.0 193.5 607.5 189.0 L 606.0 188.5 L 606.5 187.0 L 612.5 187.0 L 616.5 186.0 Z" /><path desc="l 2 p 5" fill="rgb(253,253,253)" stroke="rgb(253,253,253)" stroke-width="1" opacity="1.0" d="M 676.5 187.0 L 694.0 189.5 L 690.0 192.5 L 689.0 200.5 L 688.0 205.5 L 703.5 208.0 L 705.5 200.0 L 706.0 193.5 L 703.0 191.5 L 710.5 191.0 L 720.0 193.5 L 719.5 195.0 L 716.0 196.5 L 714.5 208.0 L 711.0 226.5 L 712.5 229.0 L 714.0 229.5 L 708.5 230.0 L 704.5 229.0 Q 699.8 229.8 698.0 227.5 L 698.5 226.0 L 702.0 224.5 L 703.0 211.5 L 689.5 209.0 L 687.0 214.5 L 686.0 222.5 L 687.5 225.0 L 689.0 225.5 L 688.5 227.0 L 680.5 226.0 Q 675.1 226.9 673.0 224.5 L 676.0 222.5 L 677.0 215.5 L 679.0 190.5 L 676.0 188.5 L 676.5 187.0 Z" /><path desc="l 2 p 6" fill="rgb(253,253,253)" stroke="rgb(253,253,253)" stroke-width="1" opacity="1.0" d="M 753.5 194.0 L 755.0 194.5 L 765.5 229.0 L 786.5 212.0 Q 788.8 207.3 794.5 206.0 L 795.0 209.5 Q 788.8 226.8 786.0 247.5 L 787.0 250.5 L 785.5 251.0 L 772.0 245.5 L 775.0 243.5 L 780.0 223.5 L 774.5 228.0 L 760.0 240.5 L 758.5 243.0 Q 754.6 236.4 754.0 226.5 L 749.5 215.0 L 742.0 233.5 L 744.0 236.5 L 741.5 237.0 L 732.0 233.5 Q 736.7 233.7 738.0 230.5 L 749.0 203.5 L 753.5 194.0 Z" /><path desc="l 2 p 7" fill="rgb(253,253,253)" stroke="rgb(253,253,253)" stroke-width="1" opacity="1.0" d="M 507.5 205.0 Q 524.3 202.7 530.0 211.5 Q 534.4 217.1 534.0 227.5 Q 531.5 236.6 524.5 241.0 L 513.5 245.0 L 503.5 246.0 L 493.0 240.5 Q 487.4 235.1 487.0 224.5 L 488.0 220.5 L 494.5 211.0 L 507.5 205.0 Z" /><path desc="l 0 p 1" fill="rgb(1,1,1)" stroke="rgb(1,1,1)" stroke-width="1" opacity="1.0" d="M 506.5 209.0 Q 514.1 207.9 517.0 211.5 Q 523.5 217.0 524.0 228.5 L 523.0 231.5 L 519.5 239.0 L 511.5 242.0 Q 505.0 240.5 502.0 235.5 L 497.0 222.5 L 497.0 220.5 Q 497.9 213.9 502.5 211.0 L 506.5 209.0 Z" /><path desc="l 2 p 8" fill="rgb(253,253,253)" stroke="rgb(253,253,253)" stroke-width="1" opacity="1.0" d="M 470.5 221.0 Q 476.9 221.1 479.0 225.5 L 481.0 232.5 L 477.0 239.5 L 486.5 245.0 Q 489.5 249.5 497.0 249.5 L 489.5 253.0 L 482.5 254.0 L 465.0 242.5 L 470.0 238.5 Q 471.3 230.2 466.5 228.0 L 462.5 227.0 L 458.0 229.5 Q 463.3 245.2 471.5 258.0 L 475.0 258.5 Q 474.5 261.5 470.5 261.0 L 460.5 266.0 L 460.0 264.5 L 461.0 260.5 L 453.0 244.5 L 446.5 233.0 L 443.0 232.5 L 455.5 226.0 L 470.5 221.0 Z" /><path desc="l 2 p 9" fill="rgb(253,253,253)" stroke="rgb(253,253,253)" stroke-width="1" opacity="1.0" d="M 821.5 223.0 Q 824.8 224.8 823.0 231.5 L 823.0 244.5 L 824.0 249.5 L 823.0 252.5 L 824.0 254.5 L 824.0 256.5 Q 822.3 265.2 826.5 268.0 Q 831.0 269.0 832.0 266.5 L 841.0 249.5 L 843.0 245.5 L 845.0 238.5 L 844.0 236.5 L 845.5 236.0 L 860.0 244.5 Q 855.4 243.9 854.0 246.5 L 840.0 274.5 L 841.0 276.5 L 839.5 276.0 L 820.5 267.0 L 810.0 260.5 L 813.0 259.5 L 814.0 252.5 L 806.5 249.0 L 801.5 248.0 L 797.0 251.5 L 798.0 255.5 L 796.5 256.0 L 789.0 251.5 L 789.5 250.0 Q 793.5 250.5 794.0 247.5 L 805.0 238.5 L 821.5 223.0 Z" /><path desc="l 0 p 2" fill="rgb(1,1,1)" stroke="rgb(1,1,1)" stroke-width="1" opacity="1.0" d="M 812.5 237.0 L 814.0 240.5 L 814.0 247.5 L 812.5 248.0 L 805.0 244.5 L 812.5 237.0 Z" /><path desc="l 2 p 10" fill="rgb(253,253,253)" stroke="rgb(253,253,253)" stroke-width="1" opacity="1.0" d="M 432.5 240.0 Q 443.5 241.0 448.0 248.5 Q 452.2 253.3 451.0 263.5 L 444.5 274.0 L 420.5 288.0 L 421.0 286.5 L 422.0 284.5 L 404.5 257.0 L 401.0 256.5 Q 413.5 245.0 432.5 240.0 Z" /><path desc="l 0 p 3" fill="rgb(1,1,1)" stroke="rgb(1,1,1)" stroke-width="1" opacity="1.0" d="M 425.5 246.0 Q 433.9 246.1 437.0 251.5 L 441.0 259.5 L 442.0 267.5 L 436.5 275.0 L 430.5 278.0 L 415.0 251.5 L 420.5 248.0 L 425.5 246.0 Z" /><path desc="l 2 p 11" fill="rgb(253,253,253)" stroke="rgb(253,253,253)" stroke-width="1" opacity="1.0" d="M 868.5 250.0 Q 875.5 251.6 879.0 256.5 L 877.5 257.0 L 872.5 256.0 L 858.0 260.5 L 859.0 273.5 L 860.0 283.5 L 862.5 289.0 L 865.5 290.0 L 868.0 288.5 L 879.0 272.5 L 882.5 267.0 L 884.0 261.5 L 883.0 259.5 L 884.5 259.0 L 909.0 275.5 L 903.5 283.0 Q 904.0 276.5 900.5 274.0 L 892.5 270.0 L 885.0 280.5 L 891.5 285.0 L 894.5 286.0 L 897.5 284.0 L 898.0 286.5 L 890.5 295.0 L 890.0 292.5 L 891.0 290.5 L 883.5 284.0 L 876.0 295.5 L 882.5 300.0 L 889.5 301.0 L 893.5 299.0 L 894.0 300.5 L 886.5 307.0 L 864.5 292.0 L 851.0 281.5 L 849.0 274.5 L 848.0 260.5 L 869.0 252.5 L 868.5 250.0 Z" /><path desc="l 2 p 12" fill="rgb(253,253,253)" stroke="rgb(253,253,253)" stroke-width="1" opacity="1.0" d="M 395.5 259.0 L 397.0 259.5 L 396.0 264.5 L 415.0 292.5 L 403.5 293.0 L 399.5 292.0 L 388.5 291.0 L 378.5 290.0 L 378.0 291.5 L 389.5 306.0 L 394.0 306.5 L 367.5 328.0 L 367.0 326.5 Q 369.8 324.8 365.5 323.0 L 360.5 322.0 L 354.5 328.0 Q 350.3 329.8 353.0 331.5 L 355.5 337.0 Q 356.8 334.8 358.0 337.5 L 349.5 345.0 L 350.0 343.5 L 349.0 336.5 L 347.0 330.5 L 338.0 302.5 L 341.5 302.0 L 377.5 317.0 L 381.0 315.5 L 382.0 311.5 L 360.0 284.5 L 373.5 284.0 Q 374.8 286.3 379.5 285.0 Q 387.7 283.3 391.5 286.0 L 393.5 285.0 L 397.5 286.0 L 398.0 284.5 L 386.5 269.0 L 383.0 268.5 L 395.5 259.0 Z" /><path desc="l 2 p 13" fill="rgb(253,253,253)" stroke="rgb(253,253,253)" stroke-width="1" opacity="1.0" d="M 630.5 261.0 L 650.0 261.5 L 669.0 262.5 L 702.5 266.0 L 719.5 270.0 L 737.5 274.0 L 754.5 279.0 Q 775.3 284.7 793.0 293.5 L 827.0 310.5 Q 880.9 341.1 921.0 385.5 Q 954.3 421.7 977.5 468.0 Q 994.6 498.4 1004.0 536.5 L 1006.5 544.0 L 1010.5 561.0 L 1014.0 579.5 L 1016.0 595.5 L 1017.5 609.0 L 1018.5 625.0 L 1019.0 654.5 Q 1016.5 656.0 1018.0 661.5 L 1017.0 676.5 L 1016.0 685.5 L 1015.0 690.5 L 1014.0 700.5 L 1012.0 711.5 L 1007.0 733.5 Q 1002.5 756.0 994.0 774.5 Q 983.2 805.7 967.0 831.5 Q 940.9 876.4 904.5 911.0 L 905.0 909.5 Q 908.3 906.3 908.0 899.5 L 909.0 888.5 Q 907.8 883.8 910.0 882.5 Q 907.5 881.0 909.0 875.5 Q 909.9 867.1 907.0 862.5 Q 906.8 856.8 903.5 854.0 L 893.0 848.5 Q 896.9 838.4 905.5 833.0 L 914.0 826.5 L 915.0 821.5 L 912.5 821.0 Q 899.6 825.1 890.5 833.0 L 883.5 837.0 Q 882.0 839.5 876.5 838.0 L 830.5 814.0 L 819.5 809.0 L 813.0 804.5 L 807.5 793.0 L 789.0 784.5 L 819.0 757.5 L 824.5 750.0 L 828.0 742.5 L 833.0 725.5 L 835.5 716.0 L 836.5 707.0 L 837.0 688.5 Q 834.8 687.3 836.0 682.5 L 835.0 673.5 L 833.0 662.5 L 829.0 649.5 Q 826.3 639.2 819.5 633.0 Q 809.7 630.3 803.0 624.5 L 787.0 614.5 L 791.5 609.0 L 807.0 596.5 Q 813.9 588.4 817.5 577.0 L 821.0 561.5 L 822.0 542.5 L 821.0 539.5 Q 820.0 524.0 812.5 515.0 L 789.5 502.0 L 779.5 496.0 L 774.0 493.5 Q 772.5 483.0 775.5 477.0 L 779.0 474.5 L 780.0 468.5 L 779.0 463.5 L 781.5 465.0 L 783.0 465.5 L 787.0 474.5 Q 786.3 478.3 788.5 479.0 L 793.5 482.0 Q 792.9 472.9 797.0 468.5 L 798.5 461.0 L 799.0 445.5 L 797.5 443.0 L 775.5 431.0 L 774.0 433.5 L 773.0 438.5 L 767.5 460.0 Q 762.1 465.1 764.0 477.5 L 765.0 480.5 Q 763.6 483.6 758.5 483.0 L 728.0 465.5 L 727.0 462.5 Q 729.3 461.3 728.0 456.5 L 728.0 448.5 L 729.0 443.5 L 729.0 441.5 L 728.0 437.5 L 729.0 435.5 Q 726.5 434.0 728.0 428.5 Q 727.4 420.1 722.5 416.0 L 669.0 388.5 L 671.0 376.5 L 667.0 371.5 L 666.0 366.5 Q 668.8 353.3 674.5 343.0 L 676.0 343.5 L 680.5 354.0 L 684.0 355.5 L 684.5 357.0 L 688.5 360.0 L 689.5 349.0 L 692.0 337.5 L 681.5 316.0 L 669.5 311.0 L 665.0 328.5 L 664.0 332.5 Q 664.5 337.5 660.5 338.0 L 657.0 340.5 L 657.0 355.5 Q 657.9 363.4 654.5 367.0 Q 647.9 367.9 645.0 372.5 L 642.5 376.0 L 571.5 344.0 L 569.0 348.5 L 578.5 364.0 Q 584.6 373.4 586.0 387.5 L 586.0 389.5 L 585.0 399.5 L 583.0 407.5 L 579.0 426.5 L 573.0 443.5 Q 566.1 459.6 555.5 472.0 L 553.0 473.5 L 543.5 484.0 L 539.5 487.0 L 521.5 480.0 L 521.0 481.5 L 527.0 495.5 L 525.5 496.0 L 503.0 481.5 L 500.0 468.5 L 503.5 452.0 Q 503.9 445.4 507.5 442.0 L 514.0 439.5 L 513.0 436.5 L 513.0 434.5 L 513.5 431.0 L 516.0 432.5 L 517.0 435.5 L 518.0 441.5 L 521.5 450.0 L 526.5 451.0 L 529.5 441.0 L 532.0 432.5 L 533.0 425.5 L 523.0 411.5 L 524.5 407.0 L 529.0 406.5 L 531.0 399.5 Q 526.7 385.8 515.5 379.0 L 509.5 378.0 L 508.0 381.5 L 507.0 386.5 L 502.0 410.5 L 501.0 418.5 L 498.5 424.0 L 491.0 428.5 Q 489.5 434.5 492.5 436.0 L 495.0 443.5 L 489.5 464.0 L 479.5 466.0 L 457.5 454.0 L 428.5 437.0 L 429.0 438.5 L 442.0 465.5 L 446.0 474.5 L 451.0 490.5 L 454.0 508.5 L 454.0 520.5 Q 452.8 525.3 455.0 526.5 L 454.0 530.5 L 453.5 540.0 Q 452.5 556.5 447.0 568.5 L 440.0 586.5 Q 430.1 605.6 414.5 619.0 L 410.5 621.0 L 407.5 615.0 L 404.5 606.0 L 397.0 577.5 L 384.0 524.5 L 376.5 497.0 L 373.0 486.5 Q 370.6 471.4 362.5 462.0 L 362.0 464.5 L 362.0 466.5 Q 364.5 470.0 363.0 477.5 L 363.5 488.0 L 365.0 502.5 L 366.0 550.5 L 365.0 552.5 L 365.0 554.5 L 365.0 566.5 L 364.0 571.5 L 365.0 574.5 Q 362.8 575.8 364.0 580.5 L 363.0 591.5 L 358.0 640.5 L 356.0 650.5 L 353.0 673.5 L 348.5 701.0 Q 342.1 732.1 322.5 750.0 L 311.5 758.0 L 304.5 762.0 L 294.5 765.0 L 294.0 763.5 L 298.5 758.0 L 308.0 750.5 L 307.0 745.5 L 306.0 735.5 L 315.0 728.5 L 309.0 720.5 L 302.5 710.0 L 299.5 717.0 L 287.0 722.5 L 286.0 737.5 L 284.0 743.5 L 283.0 749.5 Q 288.1 752.9 287.0 762.5 L 284.5 770.0 L 275.0 741.5 L 269.0 715.5 L 265.0 693.5 L 262.0 666.5 L 261.0 630.5 L 262.0 627.5 L 262.0 620.5 L 264.0 594.5 L 267.0 574.5 L 272.0 550.5 Q 276.9 526.4 286.0 506.5 Q 298.2 469.7 318.0 440.5 Q 345.9 394.9 384.5 360.0 Q 418.7 328.2 462.0 305.5 Q 489.4 289.9 522.5 280.0 L 542.5 274.0 L 557.0 270.5 L 586.5 265.0 L 602.5 263.0 L 621.5 262.0 L 627.5 262.0 L 630.5 261.0 Z" /><path desc="l 2 p 14" fill="rgb(253,253,253)" stroke="rgb(253,253,253)" stroke-width="1" opacity="1.0" d="M 914.5 281.0 L 935.0 298.5 Q 938.0 301.5 937.0 308.5 L 932.5 314.0 L 922.0 315.5 L 923.0 320.5 Q 919.7 325.2 921.0 334.5 L 922.5 337.0 L 918.0 334.5 L 914.0 329.5 Q 910.4 326.6 912.0 318.5 L 915.5 305.0 L 920.5 308.0 L 926.0 305.5 L 929.0 300.5 L 925.5 294.0 L 923.5 293.0 L 910.0 309.5 Q 904.3 311.8 904.0 319.5 L 904.5 321.0 L 899.5 318.0 L 892.0 311.5 L 892.5 310.0 L 896.5 309.0 L 900.0 305.5 L 911.0 291.5 L 913.5 288.0 Q 915.8 287.3 915.0 283.5 L 914.5 281.0 Z" /><path desc="l 0 p 4" fill="rgb(1,1,1)" stroke="rgb(1,1,1)" stroke-width="1" opacity="1.0" d="M 347.5 315.0 L 357.0 319.5 L 351.5 326.0 Q 347.4 321.8 347.5 315.0 Z" /><path desc="l 2 p 15" fill="rgb(253,253,253)" stroke="rgb(253,253,253)" stroke-width="1" opacity="1.0" d="M 945.5 315.0 Q 957.8 313.8 961.0 321.5 L 966.0 328.5 L 959.5 333.0 L 959.0 331.5 L 960.0 326.5 L 956.5 322.0 L 951.5 320.0 L 949.0 321.5 Q 948.0 328.5 950.5 332.0 Q 953.1 336.9 952.0 345.5 L 948.5 350.0 L 941.5 353.0 Q 930.8 350.7 926.0 342.5 L 924.0 335.5 L 926.5 332.0 L 931.5 330.0 L 932.0 331.5 Q 928.6 334.1 930.0 341.5 L 934.0 345.5 Q 935.0 348.0 939.5 347.0 Q 943.3 345.8 942.0 339.5 L 940.0 332.5 L 939.0 321.5 L 943.5 316.0 L 945.5 315.0 Z" /><path desc="l 2 p 16" fill="rgb(253,253,253)" stroke="rgb(253,253,253)" stroke-width="1" opacity="1.0" d="M 319.5 321.0 L 323.0 322.5 L 327.0 326.5 L 326.5 328.0 L 319.5 327.0 L 315.0 331.5 Q 312.3 332.3 313.0 336.5 L 322.5 344.0 L 326.5 340.0 Q 329.0 339.0 328.0 334.5 L 327.0 332.5 L 328.5 333.0 L 337.0 340.5 L 336.5 342.0 L 330.5 341.0 L 327.0 344.5 L 326.0 347.5 L 335.5 356.0 Q 340.9 351.9 343.0 344.5 L 341.0 338.5 L 342.5 338.0 L 347.0 344.5 L 348.0 347.5 L 329.5 368.0 L 328.0 367.5 L 329.0 364.5 L 312.5 350.0 Q 310.0 344.0 302.5 343.0 L 300.5 344.0 L 303.0 340.5 L 319.5 321.0 Z" /><path desc="l 2 p 17" fill="rgb(253,253,253)" stroke="rgb(253,253,253)" stroke-width="1" opacity="1.0" d="M 981.5 353.0 Q 990.7 351.8 994.5 356.0 L 1005.0 364.5 Q 1010.9 371.1 1013.0 381.5 L 1011.5 384.0 L 1003.5 388.0 L 1004.0 386.5 L 1006.0 382.5 L 1007.0 376.5 L 1001.5 366.0 Q 998.0 362.5 991.5 362.0 Q 990.3 364.3 985.5 363.0 Q 977.1 366.6 972.0 373.5 Q 967.8 377.3 969.0 386.5 L 973.5 394.0 Q 976.9 399.1 986.5 398.0 L 993.5 396.0 L 990.5 400.0 L 988.0 401.5 Q 986.8 404.3 981.5 403.0 Q 973.2 400.9 969.0 394.5 L 964.5 386.0 L 962.5 379.0 L 962.0 372.5 Q 964.0 362.5 971.5 358.0 L 981.5 353.0 Z" /><path desc="l 2 p 18" fill="rgb(253,253,253)" stroke="rgb(253,253,253)" stroke-width="1" opacity="1.0" d="M 281.5 356.0 Q 281.2 363.3 286.5 365.0 L 302.5 377.0 L 306.5 380.0 L 312.5 383.0 L 317.0 376.5 Q 319.8 373.8 319.0 367.5 L 317.0 362.5 L 319.0 363.5 L 323.0 369.5 L 325.0 373.5 L 306.5 397.0 L 305.0 396.5 Q 306.0 391.0 302.5 390.0 L 284.0 376.5 L 277.5 372.0 L 272.5 371.0 L 270.5 372.0 L 271.0 370.5 L 281.5 356.0 Z" /><path desc="l 2 p 19" fill="rgb(253,253,253)" stroke="rgb(253,253,253)" stroke-width="1" opacity="1.0" d="M 1018.5 388.0 L 1021.0 389.5 L 1030.0 404.5 L 1028.5 405.0 Q 1027.8 402.3 1023.5 403.0 L 993.0 421.5 L 999.5 432.0 Q 1003.4 435.1 1011.0 434.5 L 1010.5 436.0 L 998.5 439.0 L 988.0 421.5 L 983.0 411.5 L 984.5 412.0 Q 989.8 412.8 991.5 410.0 L 999.0 405.5 L 1018.0 393.5 L 1019.0 389.5 L 1018.5 388.0 Z" /><path desc="l 2 p 20" fill="rgb(253,253,253)" stroke="rgb(253,253,253)" stroke-width="1" opacity="1.0" d="M 262.5 394.0 L 264.0 394.5 L 263.0 397.5 L 264.5 400.0 L 293.0 417.5 L 258.0 430.5 L 268.5 436.0 Q 270.8 439.8 277.5 439.0 L 279.5 438.0 L 279.0 439.5 L 269.0 459.5 L 263.5 469.0 L 261.5 465.0 L 258.5 466.0 L 256.5 465.0 L 254.0 468.5 L 251.0 477.5 L 256.5 482.0 L 258.5 481.0 L 259.0 482.5 L 254.5 492.0 Q 252.3 491.3 253.0 487.5 L 244.0 477.5 L 226.0 456.5 L 241.5 456.0 L 249.5 455.0 L 251.5 455.0 L 263.5 455.0 Q 269.3 455.8 271.0 452.5 Q 271.8 446.8 267.5 446.0 L 240.0 432.5 L 240.5 431.0 L 274.0 417.5 L 264.5 411.0 L 260.5 409.0 L 255.5 408.0 L 253.5 409.0 L 254.0 407.5 L 262.5 394.0 Z" /><path desc="l 2 p 21" fill="rgb(253,253,253)" stroke="rgb(253,253,253)" stroke-width="1" opacity="1.0" d="M 1034.5 426.0 L 1042.0 440.5 L 1040.5 441.0 L 1036.5 440.0 L 1024.0 446.5 Q 1016.6 448.1 1013.0 453.5 L 1012.0 460.5 L 1016.5 467.0 L 1024.5 468.0 L 1047.0 457.5 L 1047.5 455.0 L 1049.0 455.5 L 1053.0 465.5 L 1051.5 466.0 L 1047.5 464.0 L 1033.5 470.0 L 1026.0 472.5 L 1019.5 473.0 L 1011.0 466.5 L 1008.0 459.5 Q 1005.3 455.7 1007.0 447.5 L 1011.5 441.0 L 1026.0 433.5 L 1034.0 428.5 L 1034.5 426.0 Z" /><path desc="l 0 p 5" fill="rgb(1,1,1)" stroke="rgb(1,1,1)" stroke-width="1" opacity="1.0" d="M 240.5 465.0 L 251.0 465.5 L 247.5 473.0 L 243.0 469.5 L 241.5 467.0 L 240.0 466.5 L 240.5 465.0 Z" /><path desc="l 2 p 22" fill="rgb(253,253,253)" stroke="rgb(253,253,253)" stroke-width="1" opacity="1.0" d="M 1053.5 470.0 L 1055.0 470.5 L 1060.0 484.5 Q 1063.3 489.2 1062.0 498.5 L 1057.5 504.0 L 1052.5 505.0 L 1047.5 502.0 Q 1047.5 508.5 1043.5 511.0 L 1035.5 513.0 L 1028.0 507.5 L 1019.0 483.5 L 1020.5 483.0 L 1021.5 485.0 L 1026.0 484.5 L 1032.5 482.0 L 1044.5 478.0 L 1053.0 473.5 L 1053.5 470.0 Z" /><path desc="l 2 p 23" fill="rgb(253,253,253)" stroke="rgb(253,253,253)" stroke-width="1" opacity="1.0" d="M 211.5 481.0 Q 217.3 481.3 220.0 484.5 Q 214.1 484.6 212.0 488.5 Q 209.3 490.8 210.0 496.5 L 212.5 501.0 Q 217.1 501.6 218.5 499.0 L 226.0 493.5 L 232.5 489.0 Q 234.5 486.0 240.5 487.0 L 242.5 488.0 L 245.5 489.0 L 250.0 493.5 Q 252.7 497.3 251.0 505.5 L 243.5 519.0 L 239.5 520.0 L 232.0 515.5 L 232.5 514.0 Q 241.9 515.4 245.0 510.5 Q 248.0 507.5 247.0 500.5 L 244.5 497.0 L 240.5 496.0 L 227.5 506.0 Q 223.9 510.4 216.5 511.0 Q 209.9 510.1 207.0 505.5 Q 204.2 502.8 205.0 496.5 L 211.5 481.0 Z" /><path desc="l 0 p 6" fill="rgb(1,1,1)" stroke="rgb(1,1,1)" stroke-width="1" opacity="1.0" d="M 1052.5 485.0 L 1057.0 485.5 Q 1058.3 492.8 1053.5 494.0 L 1047.5 495.0 L 1044.5 491.0 L 1043.0 491.5 Q 1044.0 498.0 1040.5 500.0 L 1032.5 502.0 L 1028.0 498.5 L 1027.0 494.5 L 1052.5 485.0 Z" /><path desc="l 2 p 24" fill="rgb(253,253,253)" stroke="rgb(253,253,253)" stroke-width="1" opacity="1.0" d="M 573.5 487.0 L 596.5 487.0 L 608.5 488.0 Q 617.7 487.8 623.0 491.5 L 620.0 502.5 Q 619.6 510.6 613.5 513.0 L 610.0 515.5 L 607.5 523.0 L 578.5 508.0 L 561.5 499.0 L 552.0 493.5 L 552.5 491.0 L 573.5 487.0 Z" /><path desc="l 2 p 25" fill="rgb(253,253,253)" stroke="rgb(253,253,253)" stroke-width="1" opacity="1.0" d="M 642.5 496.0 Q 649.9 495.1 653.5 498.0 L 659.5 500.0 L 663.0 502.5 Q 668.8 509.2 667.0 523.5 Q 664.8 530.3 659.5 534.0 L 648.0 538.5 Q 644.9 540.9 638.5 540.0 L 634.0 538.5 Q 633.5 534.0 637.0 533.5 L 643.0 523.5 L 637.0 514.5 L 642.5 496.0 Z" /><path desc="l 2 p 26" fill="rgb(253,253,253)" stroke="rgb(253,253,253)" stroke-width="1" opacity="1.0" d="M 697.5 514.0 L 700.0 514.5 Q 701.7 537.7 689.5 547.0 Q 682.5 555.0 667.5 555.0 L 648.0 546.5 L 650.5 540.0 L 655.5 541.0 L 693.0 518.5 L 693.5 515.0 L 697.5 514.0 Z" /><path desc="l 2 p 27" fill="rgb(253,253,253)" stroke="rgb(253,253,253)" stroke-width="1" opacity="1.0" d="M 717.5 554.0 Q 718.8 556.3 723.5 555.0 L 736.0 556.5 L 746.0 558.5 L 743.5 569.0 Q 743.4 574.9 739.5 577.0 L 734.5 580.0 Q 718.0 575.5 706.5 566.0 L 694.0 559.5 L 695.5 555.0 L 703.5 556.0 L 708.5 555.0 L 714.5 555.0 L 717.5 554.0 Z" /><path desc="l 2 p 28" fill="rgb(253,253,253)" stroke="rgb(253,253,253)" stroke-width="1" opacity="1.0" d="M 762.5 566.0 L 774.0 571.5 L 783.0 578.5 L 786.5 586.0 Q 789.0 589.5 788.0 596.5 L 781.5 608.0 L 779.5 609.0 L 763.0 599.5 L 765.0 592.5 L 758.0 583.5 L 760.5 572.0 Q 759.9 567.4 762.5 566.0 Z" /><path desc="l 2 p 29" fill="rgb(253,253,253)" stroke="rgb(253,253,253)" stroke-width="1" opacity="1.0" d="M 1076.5 627.0 Q 1085.5 625.5 1088.0 630.5 L 1089.0 639.5 L 1085.5 644.0 L 1076.5 645.0 L 1072.0 641.5 L 1071.0 632.5 L 1074.5 628.0 L 1076.5 627.0 Z" /><path desc="l 2 p 30" fill="rgb(253,253,253)" stroke="rgb(253,253,253)" stroke-width="1" opacity="1.0" d="M 192.5 633.0 Q 201.5 631.5 204.0 636.5 L 205.0 645.5 L 201.5 650.0 L 192.5 651.0 L 188.0 647.5 L 187.0 638.5 L 190.5 634.0 L 192.5 633.0 Z" /><path desc="l 2 p 31" fill="rgb(253,253,253)" stroke="rgb(253,253,253)" stroke-width="1" opacity="1.0" d="M 415.5 641.0 L 431.0 641.5 L 441.0 643.5 L 437.0 665.5 L 436.0 671.5 L 431.5 678.0 L 424.5 681.0 L 417.5 657.0 L 416.0 651.5 Q 413.4 647.9 415.5 641.0 Z" /><path desc="l 2 p 32" fill="rgb(253,253,253)" stroke="rgb(253,253,253)" stroke-width="1" opacity="1.0" d="M 464.5 645.0 L 468.5 646.0 L 477.5 646.0 L 485.5 648.0 L 496.0 650.5 L 509.0 655.5 L 500.5 667.0 Q 483.8 681.8 462.5 692.0 L 458.0 688.5 L 455.0 681.5 L 460.5 657.0 L 462.0 651.5 L 464.5 645.0 Z" /><path desc="l 2 p 33" fill="rgb(253,253,253)" stroke="rgb(253,253,253)" stroke-width="1" opacity="1.0" d="M 534.5 674.0 L 537.5 675.0 Q 538.8 672.8 543.5 674.0 L 559.5 674.0 Q 560.8 676.3 565.5 675.0 L 578.0 675.5 L 577.0 677.5 L 578.0 680.5 L 577.0 684.5 L 575.5 696.0 Q 574.1 707.1 566.5 712.0 Q 565.1 714.6 560.5 714.0 L 475.0 692.5 L 475.5 690.0 L 485.0 685.5 L 490.5 684.0 L 501.0 680.5 L 511.5 678.0 Q 515.0 674.0 523.5 675.0 L 530.5 675.0 L 534.5 674.0 Z" /><path desc="l 2 p 34" fill="rgb(253,253,253)" stroke="rgb(253,253,253)" stroke-width="1" opacity="1.0" d="M 599.5 678.0 L 613.5 681.0 L 631.0 686.5 Q 629.4 693.4 623.5 696.0 Q 611.9 706.9 593.5 711.0 Q 591.3 710.3 592.0 706.5 L 599.5 678.0 Z" /><path desc="l 2 p 35" fill="rgb(253,253,253)" stroke="rgb(253,253,253)" stroke-width="1" opacity="1.0" d="M 0.5 694.0 L 40.0 700.5 L 152.0 720.5 L 156.0 742.5 L 164.5 775.0 L 177.0 814.5 L 59.0 913.5 L 112.5 1006.0 L 257.5 953.0 L 290.5 990.0 L 327.0 1022.5 L 274.0 1167.5 L 366.5 1221.0 L 465.5 1103.0 L 499.5 1114.0 L 527.5 1121.0 L 549.5 1126.0 L 555.5 1127.0 L 560.0 1128.5 L 579.5 1240.0 L 586.0 1279.5 L 0.5 1280.0 L 0.5 694.0 Z" /><path desc="l 2 p 36" fill="rgb(253,253,253)" stroke="rgb(253,253,253)" stroke-width="1" opacity="1.0" d="M 1274.5 694.0 L 1280.0 694.5 L 1279.5 1280.0 L 693.0 1279.5 L 696.0 1265.5 L 700.0 1239.5 L 706.0 1208.5 L 716.0 1151.5 L 720.5 1128.0 L 742.5 1124.0 L 775.0 1115.5 L 814.5 1103.0 L 913.5 1221.0 L 1006.0 1167.5 L 967.0 1060.5 L 957.5 1034.0 L 954.0 1022.5 L 995.0 984.5 L 1022.5 954.0 L 1167.5 1006.0 L 1221.0 913.5 L 1103.0 814.5 L 1115.5 775.0 L 1122.5 748.0 L 1126.5 728.0 L 1128.5 720.0 L 1225.5 703.0 L 1274.5 694.0 Z" /><path desc="l 2 p 37" fill="rgb(253,253,253)" stroke="rgb(253,253,253)" stroke-width="1" opacity="1.0" d="M 466.5 695.0 L 470.0 696.5 Q 483.6 710.4 481.0 740.5 L 476.0 761.5 Q 467.2 790.7 447.5 809.0 L 443.0 806.5 Q 445.8 804.8 444.0 798.5 L 444.0 775.5 L 443.0 770.5 L 441.0 754.5 L 437.0 742.5 L 444.0 715.5 L 446.0 707.5 L 447.5 704.0 L 466.5 695.0 Z" /><path desc="l 2 p 38" fill="rgb(253,253,253)" stroke="rgb(253,253,253)" stroke-width="1" opacity="1.0" d="M 652.5 705.0 L 656.5 706.0 L 660.0 707.5 L 663.5 713.0 Q 665.9 715.1 665.0 720.5 Q 663.4 729.4 658.5 735.0 L 642.0 731.5 L 631.5 728.0 Q 619.1 725.4 611.0 718.5 Q 614.7 713.7 622.5 713.0 L 631.5 711.0 L 652.5 705.0 Z" /><path desc="l 2 p 39" fill="rgb(253,253,253)" stroke="rgb(253,253,253)" stroke-width="1" opacity="1.0" d="M 434.5 708.0 L 437.0 708.5 L 434.0 722.5 L 429.5 734.0 L 429.0 728.5 L 434.5 708.0 Z" /><path desc="l 2 p 40" fill="rgb(253,253,253)" stroke="rgb(253,253,253)" stroke-width="1" opacity="1.0" d="M 699.5 708.0 L 705.5 709.0 L 709.0 710.5 L 703.0 732.5 Q 702.4 744.9 693.5 749.0 L 687.5 747.0 L 682.5 746.0 Q 669.6 744.9 662.0 738.5 L 662.5 736.0 Q 679.6 731.6 690.0 720.5 L 691.5 718.0 L 693.0 717.5 L 699.5 708.0 Z" /><path desc="l 2 p 41" fill="rgb(253,253,253)" stroke="rgb(253,253,253)" stroke-width="1" opacity="1.0" d="M 730.5 715.0 L 747.5 721.0 L 761.0 729.5 L 764.5 731.0 L 769.0 735.5 L 778.0 749.5 Q 783.0 756.0 784.0 766.5 L 783.0 768.5 Q 783.5 773.5 779.5 774.0 L 776.0 776.5 Q 775.0 779.0 770.5 778.0 L 750.0 770.5 Q 746.0 767.0 738.5 767.0 L 735.0 765.5 L 730.0 762.5 L 724.0 751.5 Q 720.3 749.3 721.0 742.5 L 730.5 715.0 Z" /><path desc="l 2 p 42" fill="rgb(253,253,253)" stroke="rgb(253,253,253)" stroke-width="1" opacity="1.0" d="M 596.5 717.0 L 601.0 719.5 L 603.0 725.5 L 603.0 727.5 L 602.5 729.0 L 593.0 723.5 Q 593.3 718.8 596.5 717.0 Z" /><path desc="l 2 p 43" fill="rgb(253,253,253)" stroke="rgb(253,253,253)" stroke-width="1" opacity="1.0" d="M 334.5 766.0 L 350.5 768.0 L 352.5 767.0 L 375.5 771.0 L 392.5 776.0 L 398.5 779.0 L 406.0 784.5 Q 402.8 810.3 394.5 831.0 L 384.0 827.5 L 370.5 821.0 L 346.5 808.0 L 314.0 788.5 L 295.0 776.5 L 296.5 773.0 L 306.5 770.0 L 319.5 767.0 L 321.5 767.0 L 330.5 767.0 L 334.5 766.0 Z" /><path desc="l 2 p 44" fill="rgb(253,253,253)" stroke="rgb(253,253,253)" stroke-width="1" opacity="1.0" d="M 424.5 802.0 L 432.0 808.5 L 436.0 818.5 Q 434.6 826.6 428.5 830.0 L 414.5 839.0 Q 411.3 837.3 415.0 835.5 L 416.5 831.0 Q 419.0 827.5 418.0 820.5 L 421.5 808.0 L 424.5 802.0 Z" /><path desc="l 2 p 45" fill="rgb(253,253,253)" stroke="rgb(253,253,253)" stroke-width="1" opacity="1.0" d="M 480.5 825.0 L 482.5 825.0 L 485.5 826.0 L 488.5 825.0 L 490.5 825.0 L 494.5 826.0 L 496.5 825.0 L 499.5 826.0 L 505.5 826.0 L 509.5 827.0 L 523.5 829.0 L 541.0 834.5 L 528.0 888.5 L 525.0 900.5 Q 524.8 907.3 521.5 911.0 L 511.0 908.5 L 504.0 905.5 L 497.5 893.0 L 490.0 891.5 L 472.5 886.0 L 461.5 881.0 L 452.0 875.5 L 449.0 865.5 L 449.0 863.5 L 450.0 854.5 L 440.0 850.5 L 440.0 842.5 L 441.0 838.5 L 440.0 836.5 L 441.5 834.0 Q 452.3 827.8 468.0 826.5 L 475.5 826.0 L 480.5 825.0 Z" /><path desc="l 2 p 46" fill="rgb(253,253,253)" stroke="rgb(253,253,253)" stroke-width="1" opacity="1.0" d="M 430.5 837.0 Q 435.8 835.8 437.0 838.5 L 435.5 848.0 L 419.0 843.5 L 430.5 837.0 Z" /><path desc="l 2 p 47" fill="rgb(253,253,253)" stroke="rgb(253,253,253)" stroke-width="1" opacity="1.0" d="M 564.5 853.0 L 585.0 853.5 L 589.5 854.0 L 610.5 856.0 L 621.5 857.0 L 640.0 860.5 L 670.0 867.5 L 669.5 877.0 L 668.0 886.5 L 665.0 899.5 L 659.5 921.0 L 658.0 926.5 L 655.5 933.0 L 646.5 934.0 L 644.5 934.0 L 613.5 930.0 L 593.0 926.5 L 565.5 922.0 L 546.0 916.5 Q 544.3 908.3 547.0 904.5 L 549.0 895.5 Q 551.9 871.9 560.5 854.0 L 564.5 853.0 Z" /><path desc="l 2 p 48" fill="rgb(253,253,253)" stroke="rgb(253,253,253)" stroke-width="1" opacity="1.0" d="M 696.5 876.0 L 717.5 882.0 L 740.0 893.5 Q 740.9 901.4 735.5 903.0 L 719.0 914.5 L 699.0 925.5 L 684.5 931.0 L 684.0 920.5 L 686.0 910.5 L 687.0 901.5 L 690.0 888.5 Q 690.3 881.8 693.5 878.0 L 696.5 876.0 Z" /><path desc="l 2 p 49" fill="rgb(253,253,253)" stroke="rgb(253,253,253)" stroke-width="1" opacity="1.0" d="M 740.5 921.0 L 742.5 922.0 L 746.5 921.0 L 757.5 921.0 L 760.0 922.5 Q 754.9 930.9 743.0 932.5 L 734.5 934.0 L 696.5 935.0 L 696.0 933.5 L 706.5 929.0 L 719.0 925.5 L 740.5 921.0 Z" /><path desc="l 2 p 50" fill="rgb(253,253,253)" stroke="rgb(253,253,253)" stroke-width="1" opacity="1.0" d="M 794.5 922.0 L 809.5 927.0 L 815.5 930.0 L 822.0 934.5 L 825.0 941.5 L 824.0 943.5 L 825.0 946.5 L 820.5 954.0 L 807.5 960.0 L 805.5 960.0 Q 800.0 961.5 798.5 959.0 L 793.5 960.0 L 791.5 959.0 L 789.5 959.0 L 778.0 958.5 L 782.0 937.5 L 779.0 929.5 Q 788.3 927.3 794.5 922.0 Z" /><path desc="l 2 p 51" fill="rgb(253,253,253)" stroke="rgb(253,253,253)" stroke-width="1" opacity="1.0" d="M 842.5 959.0 L 841.5 961.0 Q 818.2 976.2 791.0 987.5 Q 759.6 1002.1 721.5 1010.0 L 741.5 989.0 L 764.0 972.5 L 773.5 967.0 L 780.5 965.0 L 791.5 965.0 L 810.0 964.5 L 820.5 963.0 L 822.5 963.0 L 835.5 961.0 L 842.5 959.0 Z" /></svg>