<?xml version="1.0" encoding="UTF-8" standalone="no"?>
<svg
   xmlns:dc="http://purl.org/dc/elements/1.1/"
   xmlns:cc="http://creativecommons.org/ns#"
   xmlns:rdf="http://www.w3.org/1999/02/22-rdf-syntax-ns#"
   xmlns:svg="http://www.w3.org/2000/svg"
   xmlns="http://www.w3.org/2000/svg"
   style="enable-background:new"
   id="svg8"
   version="1.1"
   viewBox="0 0 50.4764 50.476431"
   height="1.9872611in"
   width="1.9872599in">
  <defs
     id="defs2" />
  <metadata
     id="metadata5">
    <rdf:RDF>
      <cc:Work
         rdf:about="">
        <dc:format>image/svg+xml</dc:format>
        <dc:type
           rdf:resource="http://purl.org/dc/dcmitype/StillImage" />
        <dc:title></dc:title>
      </cc:Work>
    </rdf:RDF>
  </metadata>
  <g
     transform="translate(-73.59244,-105.34254)"
     id="layer3">
    <path
       style="display:inline;fill:#000000;stroke-width:0.25881195;stroke-linecap:round;stroke-linejoin:round"
       d="m 96.711503,105.34254 -1.051424,5.98904 0.0039,0.004 c -1.285258,0.21003 -2.528719,0.54661 -3.716404,0.99487 v -0.004 l -3.902368,-4.66275 -3.667884,2.11902 2.082658,5.71004 0.008,0.004 c -0.994351,0.81629 -1.905757,1.73093 -2.721536,2.72568 l -0.0039,-0.0122 -5.710039,-2.08266 -2.119022,3.66788 4.662626,3.90651 c -0.447486,1.18666 -0.781092,2.42831 -0.990732,3.71228 l -0.0039,-0.004 -5.989038,1.05143 v 4.23804 l 5.989038,1.05142 0.0039,-0.004 c 0.20964,1.28397 0.543246,2.52562 0.990732,3.7124 l -4.662626,3.90638 2.119022,3.66788 5.710039,-2.08266 0.0039,-0.0122 c 0.815779,0.99475 1.727185,1.90939 2.721536,2.72555 l -0.008,0.004 -2.082658,5.71004 3.667884,2.11903 3.902368,-4.6625 v -0.004 c 1.187685,0.44826 2.431146,0.78485 3.716404,0.99487 l -0.0039,0.004 1.051424,5.98904 h 4.234037 l 1.05142,-5.98904 -0.004,-0.004 c 1.28487,-0.20951 2.52873,-0.54325 3.71641,-0.99073 l 3.90638,4.66263 3.66788,-2.11903 -2.08666,-5.71004 c 0.99215,-0.81422 1.90304,-1.72562 2.71752,-2.71752 l 5.71405,2.08266 2.11501,-3.66789 -4.65861,-3.9065 c 0.44761,-1.18691 0.7851,-2.42818 0.99474,-3.71228 l 5.98916,-1.04739 v -4.23804 l -5.98916,-1.05143 c -0.20977,-1.2828 -0.54765,-2.52264 -0.99475,-3.70826 l 4.65861,-3.9065 -2.11501,-3.66777 -5.71404,2.08254 c -0.81448,-0.9919 -1.72537,-1.90331 -2.71753,-2.71753 l 2.08667,-5.71004 -3.66788,-2.11902 -3.90638,4.66262 c -1.1877,-0.44726 -2.43155,-0.781 -3.71642,-0.9905 l 0.004,-0.004 -1.05142,-5.98904 h -4.23404 z m 2.119026,10.31198 c 8.244451,0 14.930861,6.68174 14.930861,14.92568 0,8.24446 -6.68576,14.92569 -14.930861,14.92569 -8.244456,0 -14.925687,-6.68175 -14.925687,-14.92569 0,-8.24445 6.681622,-14.92568 14.925687,-14.92568 z"
       id="path77" />
    <path
       id="path67"
       transform="matrix(0.26458333,0,0,0.26458333,73.59244,105.34254)"
       d="M 106.88281 41.310547 C 106.48906 42.571624 106.0958 43.836867 105.66992 45.087891 C 104.11514 46.504042 104.93287 44.302554 104.24609 49.8125 C 103.39725 50.013949 102.61139 50.39206 102.14258 51.164062 C 98.487317 49.426164 95.033066 47.294744 91.414062 45.488281 C 91.338816 45.70825 91.18668 46.142821 91.113281 46.363281 C 92.49573 48.679451 94.24731 51.58798 92.433594 56.058594 C 90.965391 61.611665 88.71232 64.514246 85.255859 67.132812 C 84.177612 67.66737 83.499756 68.418828 83.275391 68.615234 C 83.197556 68.365574 83.058542 67.94229 83.230469 68.511719 C 83.263476 68.609261 83.254362 68.578124 83.269531 68.621094 C 83.177613 68.700681 83.143386 68.704426 83.230469 68.511719 C 82.097533 67.769079 80.964437 67.015997 79.892578 66.183594 C 78.884912 64.200309 79.920056 62.071164 80.589844 60.158203 C 80.496155 60.183607 80.407479 60.204386 80.59375 60.146484 C 80.623041 59.892103 80.60938 60.01945 80.595703 60.146484 C 80.778354 60.103473 80.694314 60.128766 80.601562 60.154297 C 81.233013 61.066032 82.182165 60.468058 82.837891 61.410156 C 83.074376 61.478944 83.547411 61.616255 83.78125 61.681641 C 83.775581 61.399688 83.765372 61.120272 83.757812 60.841797 C 84.344947 59.925261 84.641695 58.873999 84.955078 57.845703 C 84.538656 57.045805 84.997346 55.620898 84.402344 54.941406 L 84.402344 54.939453 C 84.529714 54.554168 84.661458 54.168299 84.789062 53.783203 C 84.550843 52.42828 83.665336 51.370241 82.695312 50.457031 C 82.31668 50.331929 81.940491 50.201362 81.5625 50.074219 C 81.054297 52.401009 80.185891 54.632297 79.720703 56.972656 C 79.229028 57.239113 78.738472 57.507297 78.246094 57.777344 C 78.242397 57.994667 78.229081 58.427007 78.222656 58.646484 C 79.387238 59.980809 78.123163 61.599255 77.869141 63.039062 C 77.262337 63.153204 76.58901 63.574599 75.998047 63.1875 C 73.367556 61.809069 71.184639 59.748319 68.619141 58.255859 C 68.897276 60.41276 70.534673 61.347123 71.585938 67.125 C 72.753191 76.086146 69.044115 83.22706 64.068359 86.527344 C 62.326296 81.723489 60.283815 62.773166 58.287109 61.470703 C 57.81409 67.809576 59.533304 72.779551 54.380859 95.259766 C 53.154474 103.43624 48.029833 106.98188 44.814453 107.39453 C 45.299631 106.47852 46.15049 103.55847 47.009766 103.05859 C 47.00111 102.65576 47.007826 102.85568 47.013672 103.05664 C 47.516444 102.69273 48.009189 102.32318 48.509766 101.95508 C 47.603537 101.12755 47.318951 99.920019 46.708984 98.902344 C 46.583844 99.161241 44.291167 100.35848 44.166016 100.61719 C 43.836978 100.7398 43.997543 100.6917 44.164062 100.63672 C 44.140814 100.80502 44.096503 101.11284 44.072266 101.26758 C 44.228776 102.52404 43.283407 103.57476 43.25 104.82227 C 44.151969 106.75557 44.223006 104.88408 39.974609 118.59961 C 40.361002 120.90297 41.254753 123.10712 41.445312 125.44336 C 38.9474 128.13869 40.236656 124.76446 39.259766 132.37695 C 38.859907 141.67538 24.067266 134.25172 102.01172 156.87695 C 103.49734 151.96735 112.7199 144.28319 116.58203 143.05469 L 117.37891 140.62109 C 117.38133 140.61322 117.3843 140.60553 117.38672 140.59766 C 117.56323 140.02321 117.7421 139.4489 117.91211 138.87305 C 117.76282 138.40061 117.62285 137.92509 117.49219 137.45117 C 118.3738 137.23838 119.2092 136.90253 119.99023 136.44336 C 121.26794 137.04986 122.5942 137.57687 123.80078 138.32812 C 123.9531 138.65241 124.10869 138.97431 124.26758 139.30078 C 124.26743 139.30599 124.26773 139.3112 124.26758 139.31641 L 125.91797 142.81641 C 128.02631 142.50012 130.05726 141.92487 131.59766 140.93945 C 132.89959 139.73923 134.42957 138.80347 135.58984 137.45312 C 136.12586 136.76779 136.62986 136.05737 137.18359 135.38477 C 138.07888 133.29028 138.51764 128.22532 137.21289 126.94922 L 137.21094 126.94727 C 136.68009 126.69619 136.15655 126.40717 135.75195 125.97461 C 136.71006 124.73504 138.02908 123.82793 139.30664 122.94727 C 139.3656 122.71142 139.48602 122.23699 139.54688 121.99805 C 137.50824 122.21348 135.90273 123.58664 134.08398 124.37305 C 132.50675 124.51213 128.22863 120.58671 124.8418 119.28516 C 123.8358 118.86623 123.65889 117.69466 123.31836 116.79102 C 122.42454 116.18916 121.45512 115.71517 120.45312 115.33008 C 122.69382 113.72412 124.99095 112.12147 126.66211 109.88867 C 128.01276 105.84839 128.51992 106.33715 128.75391 101.47656 C 128.96027 98.954458 128.14748 93.709608 126.68359 92.341797 C 124.67058 91.491214 123.73127 90.201021 121.77344 89.205078 C 122.87271 88.151875 124.36493 87.581541 125.33789 86.386719 C 128.11547 83.283916 128.6894 77.397561 126.92383 74.291016 C 125.21726 73.280257 123.53752 72.194813 122.04102 70.886719 C 121.82369 70.81453 121.39157 70.666002 121.17383 70.595703 C 121.1399 69.805325 121.25743 69.023757 121.41406 68.25 C 121.3407 68.320048 121.27281 68.382631 121.41406 68.246094 C 121.41431 68.247795 121.41381 68.248301 121.41406 68.25 C 121.43039 68.360442 121.44625 68.460003 121.41602 68.248047 L 121.41797 68.246094 L 121.41602 68.244141 C 121.5689 68.099763 121.49413 68.173338 121.41797 68.246094 C 122.29481 68.780634 123.28277 67.411289 123.20898 68.394531 C 123.57711 68.623193 123.94657 68.845568 124.32422 69.066406 C 124.37449 68.595175 124.42825 68.127595 124.47852 67.65625 C 125.29516 66.288477 125.49919 64.713465 125.33984 63.154297 C 124.18977 62.373635 123.02441 61.620782 121.83594 60.904297 C 121.08132 62.58252 121.00082 64.567597 119.88477 66.066406 C 119.83336 66.199068 119.72636 66.463231 119.67383 66.595703 C 119.70406 67.256516 119.72701 67.917792 119.74023 68.580078 C 119.46697 68.639039 119.19311 68.698478 118.91992 68.757812 C 116.4057 66.909816 115.40657 66.532797 114.28711 65.650391 C 114.40087 63.886145 115.2702 60.593692 114.21484 58.242188 C 113.03295 57.610175 106.42069 53.552015 106.02539 53.347656 C 106.21928 52.75068 106.44893 52.16208 106.52539 51.539062 C 106.5274 51.525522 106.52547 51.536276 106.52734 51.523438 C 106.53687 51.53529 106.53971 51.539175 106.54883 51.550781 C 106.95051 51.9077 108.55862 47.782153 108.45703 48.421875 L 108.45703 48.423828 C 108.78705 48.782144 109.12484 49.13386 109.45508 49.492188 C 109.33678 48.221813 109.78315 47.020378 110.17188 45.833984 C 109.42806 44.744989 109.45549 43.330299 108.61719 42.298828 C 108.0201 42.001379 107.45001 41.6566 106.88281 41.310547 z M 106.54883 51.550781 C 106.5418 51.544539 106.53166 51.548104 106.52539 51.539062 C 106.64138 51.674408 106.60206 51.618521 106.54883 51.550781 z M 47.013672 103.05664 C 47.012507 103.05748 47.01093 103.05775 47.009766 103.05859 C 47.024506 103.4614 47.01953 103.25848 47.013672 103.05664 z M 80.601562 60.154297 C 80.599825 60.151782 80.59744 60.150971 80.595703 60.148438 L 80.595703 60.146484 L 80.59375 60.146484 C 80.592695 60.149504 80.592854 60.153229 80.591797 60.15625 C 80.570671 60.368352 80.582955 60.274084 80.595703 60.15625 C 80.598365 60.155523 80.598912 60.155028 80.601562 60.154297 z M 91.580078 67.648438 C 94.004055 67.692865 96.288922 68.096701 97.892578 68.666016 C 97.614821 69.534664 97.408478 70.432539 97.003906 71.253906 C 96.598042 71.583859 96.143944 71.858738 95.708984 72.154297 C 95.566647 72.574883 95.425499 72.999224 95.291016 73.425781 C 94.735527 72.947633 88.525963 69.265442 88.462891 69.228516 C 88.091854 68.802412 86.904494 68.716611 87.185547 67.998047 C 88.621968 67.724022 90.125692 67.621779 91.580078 67.648438 z M 100.8457 69.671875 C 101.15751 69.698332 101.46925 69.722346 101.78125 69.748047 C 102.42967 70.032645 103.08474 70.293898 103.74805 70.542969 L 109.52344 72.947266 C 109.42782 74.473288 109.12957 75.984755 108.25 77.263672 C 106.40634 78.810204 104.70256 79.424122 102.79883 78.09375 L 101.3418 77.373047 C 101.33511 77.370331 101.32895 77.365992 101.32227 77.363281 L 98.507812 75.96875 L 100.69727 73.701172 C 100.45034 73.290943 100.20712 72.8755 99.962891 72.466797 C 100.26034 71.535295 100.55162 70.604436 100.8457 69.671875 z M 110.75586 79.345703 C 112.4944 79.374932 114.57943 79.739624 116.06836 80.208984 L 115.2793 82.712891 C 114.9123 82.91056 114.5505 83.112778 114.18555 83.314453 C 112.1257 82.539574 109.82567 80.951278 109.25977 80.3125 C 109.46121 80.354453 108.96576 79.398949 109.16797 79.4375 C 109.63532 79.363988 110.17635 79.33596 110.75586 79.345703 z M 118.54102 81.535156 L 118.54297 81.535156 C 119.32771 81.975244 120.10548 82.432432 120.88281 82.884766 C 121.72047 83.745251 122.04567 84.886457 122.26953 86.033203 C 122.0061 86.880951 121.47182 87.58967 120.8457 88.203125 C 119.50972 87.36286 119.20065 87.195415 118.39062 86.671875 C 118.51195 86.299214 118.63504 85.928168 118.75977 85.556641 C 118.4506 85.084578 118.14138 84.615791 117.82031 84.158203 C 118.05389 83.279236 118.29213 82.405657 118.54102 81.535156 z M 64.738281 89.601562 C 67.67042 89.92698 64.980136 89.491147 68.544922 90.183594 C 68.155581 91.798888 67.711324 93.399734 67.220703 94.990234 C 66.721337 95.305447 66.217402 95.647448 65.619141 95.746094 C 65.615444 95.727196 64.547107 90.35859 64.542969 90.339844 C 64.595088 90.156537 64.690999 89.786608 64.738281 89.601562 z M 72.019531 90.757812 C 72.671178 90.905214 73.329327 91.11736 74.007812 91.029297 C 75.656155 91.429058 77.301619 91.904694 78.787109 92.740234 C 77.003097 95.250105 73.087144 94.861641 70.423828 96.181641 C 70.719274 94.322264 71.517122 92.570096 72.019531 90.757812 z M 80.058594 95.871094 C 81.472712 96.01018 81.371637 96.025814 82.566406 95.933594 C 85.723124 96.014098 87.540963 96.385699 89.132812 96.458984 C 88.498045 101.67254 87.501282 101.51298 86.488281 102.18555 C 82.066718 100.73307 77.595666 99.424152 73.185547 97.935547 C 75.196445 96.56252 77.823245 96.733355 80.058594 95.871094 z M 92.566406 97.095703 C 94.175098 97.55193 95.736564 98.142095 97.306641 98.720703 L 100.35352 101.83789 C 100.68611 101.93691 101.01855 102.02982 101.35156 102.12695 C 101.61386 102.63462 101.88067 103.14135 102.1582 103.64648 C 101.87663 104.60849 99.66893 105.67627 99.035156 106.47266 C 96.550106 105.80912 93.206427 103.39038 91.060547 101.93945 C 91.53309 100.31411 92.061442 98.710771 92.566406 97.095703 z M 69.96875 97.601562 C 70.357212 97.658711 70.708378 98.126151 70.292969 98.431641 C 69.852367 98.790696 69.041677 98.099484 69.595703 97.703125 C 69.706856 97.60996 69.839263 97.582517 69.96875 97.601562 z M 72.134766 98.349609 C 76.301525 103.2828 71.751485 111.2454 69.853516 113.46289 C 69.431342 113.93696 69.033562 114.42945 68.677734 114.95703 C 68.278488 115.28925 67.867049 115.84334 67.367188 115.31836 C 67.381924 115.07156 68.259903 110.6345 67.097656 105.29883 C 67.642513 103.40906 68.264546 101.54096 68.849609 99.660156 C 69.960639 99.261454 71.021302 98.733005 72.134766 98.349609 z M 66.953125 100 L 67.212891 100.11523 C 66.712878 101.40099 66.612485 102.86303 65.773438 104.00195 C 66.038378 102.63108 66.593715 101.3446 66.953125 100 z M 107.65234 102.66211 L 108.86914 103.04688 C 108.36654 104.64093 107.87111 106.23209 107.35547 107.81836 L 107.35352 107.81836 C 106.96279 108.13508 106.58064 108.45755 106.20117 108.78516 C 104.63323 108.07264 102.69325 108.64215 101.50977 107.28711 C 105.2998 106.31721 106.36432 104.12354 107.65234 102.66211 z M 112.23242 104.04102 C 113.5928 104.89119 115.22842 105.27256 116.39062 106.42773 C 116.53425 106.50219 116.82747 106.64511 116.97461 106.7207 C 118.47021 108.18126 119.47957 110.05621 119.80469 112.12891 C 119.70604 112.47247 119.60999 112.81695 119.51172 113.16406 C 119.04359 113.50724 118.56752 113.8476 118.08594 114.17578 C 116.87777 113.53311 115.44473 113.34365 114.36133 112.47852 C 113.52567 112.14214 112.64337 111.92701 111.82812 111.54883 C 111.51635 110.57775 110.96122 109.71941 110.53516 108.81055 C 110.56539 107.09256 111.73107 105.64278 112.23242 104.04102 z M 50.064453 108.58398 C 55.327601 108.43439 61.08319 110.17141 61.791016 111.53125 C 61.152102 113.84595 60.426823 116.14658 59.576172 118.39453 C 56.634441 117.78176 46.95347 110.54246 45.169922 109.44727 C 46.609431 108.89454 48.31007 108.63385 50.064453 108.58398 z M 45.763672 111.75 C 45.50553 112.59945 45.243163 113.45051 45 114.30469 C 44.861065 114.12251 44.59019 113.76402 44.451172 113.58203 C 44.611121 113.08706 44.770755 112.59328 44.929688 112.10156 C 45.138843 112.01501 45.554505 111.83693 45.763672 111.75 z M 46.847656 112.94336 L 47.505859 113.15039 L 46.746094 115.56445 C 46.617212 115.39626 46.351538 115.06625 46.222656 114.89844 C 46.431589 114.24802 46.638713 113.59374 46.847656 112.94336 z M 49.074219 113.77539 C 48.858899 114.631 48.599885 115.47699 48.333984 116.32031 L 47.636719 116.09961 C 47.909449 115.2039 48.186956 114.24829 49.074219 113.77539 z M 64.398438 114.32031 C 65.325809 114.89627 65.699047 115.93041 65.96875 116.93164 C 65.849355 117.26122 65.734819 117.59265 65.615234 117.92578 C 64.617466 118.6801 63.609153 119.44411 62.414062 119.86719 C 62.670844 119.34104 62.934667 118.82436 63.207031 118.30664 C 63.24528 116.89348 63.844578 115.59277 64.398438 114.32031 z M 50.501953 115.18555 C 50.667307 115.2377 50.998697 115.33851 51.164062 115.39062 L 50.541016 117.37109 C 50.373998 117.32423 50.036506 117.23909 49.869141 117.19336 L 50.501953 115.18555 z M 52.384766 116.14258 L 53.039062 116.34961 C 52.8434 116.98242 52.646473 117.61615 52.455078 118.25391 C 52.241497 118.33176 51.817199 118.48622 51.603516 118.56445 C 51.862489 117.75533 52.123302 116.94728 52.384766 116.14258 z M 53.929688 116.77148 C 54.940832 117.64663 53.581678 118.69406 53.304688 119.5957 C 53.261299 118.61484 53.654054 117.6918 53.929688 116.77148 z M 55.460938 117.83984 C 55.626288 117.892 55.96436 117.99812 56.130859 118.04688 C 55.896869 118.90388 55.703911 119.78011 55.337891 120.5918 C 54.653325 119.73582 55.21151 118.74602 55.460938 117.83984 z M 71.806641 118.53906 C 75.14963 118.49307 78.993273 119.25474 81.941406 120.42578 C 80.745809 124.27313 79.509727 128.10489 78.310547 131.95117 C 77.467168 131.68509 76.623749 131.42062 75.779297 131.1582 C 75.44632 130.44973 75.117241 129.7423 74.792969 129.0293 C 73.520806 128.69292 68.578817 126.84946 67.947266 125.70312 C 67.27005 124.72608 67.96596 123.57132 67.871094 122.49805 C 67.378512 122.2845 66.786343 122.22183 66.378906 121.85352 C 66.458579 121.09338 66.619181 120.34362 66.630859 119.58008 C 67.974489 118.88532 69.800847 118.56666 71.806641 118.53906 z M 57.621094 118.61133 C 57.861774 119.38171 57.620766 120.14573 57.435547 120.89453 C 57.218791 120.98259 56.790997 121.16389 56.574219 121.25195 C 56.660505 120.28651 56.700321 119.17901 57.621094 118.61133 z M 65.521484 119.83008 C 66.364303 119.92237 65.673358 121.13747 65.667969 121.43164 C 64.842796 121.16556 64.023792 120.89324 63.212891 120.59375 C 64.437989 119.97964 65.138385 119.78813 65.521484 119.83008 z M 58.830078 119.86133 C 58.949587 120.059 59.196879 120.45276 59.316406 120.65039 C 59.015405 121.22454 58.746873 121.85408 58.181641 122.22852 C 58.354894 121.4251 58.587149 120.64286 58.830078 119.86133 z M 63.048828 121.58008 C 62.775984 122.45772 62.48892 123.33531 62.148438 124.19141 C 61.817086 123.44332 61.914495 122.64852 62.134766 121.89258 C 62.362709 121.81548 62.820809 121.65718 63.048828 121.58008 z M 63.888672 122.31445 L 64.550781 122.52344 L 63.923828 124.51172 C 63.758549 124.45956 63.429041 124.35099 63.263672 124.29883 L 63.888672 122.31445 z M 65.949219 122.82617 C 66.032595 122.99814 66.203053 123.34569 66.287109 123.51758 C 65.984974 124.15314 65.700751 124.79929 65.414062 125.44336 C 65.285978 125.25023 65.034482 124.86497 64.90625 124.67188 C 65.154036 124.00093 65.438707 123.33784 65.949219 122.82617 z M 85.890625 123.64844 C 87.783761 123.67151 90.906783 124.24751 91.695312 124.44336 C 93.55964 124.32997 101.29461 126.83282 101.36328 126.85156 C 101.06054 130.22128 99.494757 133.31663 98.681641 136.57617 C 96.476052 137.30891 82.827631 133.45155 81.914062 133.11328 C 81.782085 131.71089 84.485957 123.98068 84.539062 123.84375 C 84.7647 123.69444 85.25958 123.64075 85.890625 123.64844 z M 105.31641 128.51172 C 107.97859 129.05333 109.72541 130.1478 111.88477 131.61523 C 111.81031 131.82084 111.65687 132.22384 111.58203 132.42578 C 108.92283 134.1943 106.17175 135.96615 102.98633 136.60156 C 102.98448 135.13915 104.07192 130.51675 104.82227 128.78516 C 104.94586 128.71448 105.19334 128.57786 105.31641 128.51172 z M 111.0957 135.80664 C 113.19704 136.00847 112.61923 135.68745 114.62109 136.08203 C 113.30657 137.23199 113.38031 137.73948 106.53906 137.47461 C 105.90765 137.42472 105.27901 137.37871 104.64844 137.31445 C 106.28675 136.48288 108.47672 136.27727 111.0957 135.80664 z "
       style="display:inline;stroke-width:0.07112224" />
    <g
       id="text210"
       style="font-style:normal;font-weight:normal;font-size:10.58333302px;line-height:1.25;font-family:sans-serif;letter-spacing:0px;word-spacing:0px;display:inline;fill:#000000;fill-opacity:1;stroke:none;stroke-width:0.26458332"
       transform="matrix(0.4890935,0,0,0.4890935,46.033048,62.254411)"
       aria-label="San Leandro High Makers Club">
      <path
         id="path840"
         style="font-style:normal;font-variant:normal;font-weight:bold;font-stretch:normal;font-size:5.64444447px;font-family:Cinzel;-inkscape-font-specification:'Cinzel, Bold';font-variant-ligatures:normal;font-variant-caps:normal;font-variant-numeric:normal;font-feature-settings:normal;text-align:start;writing-mode:lr-tb;text-anchor:start;fill:#ffffff;stroke-width:0.26458332"
         d="m 74.328389,135.26166 q -0.400608,-0.0684 -0.654935,-0.28928 l 0.0085,-0.0501 q 0.04356,0.0132 0.08808,0.0207 0.383916,0.0655 0.719772,-0.15773 0.331243,-0.22978 0.412905,-0.70828 0.06362,-0.37279 -0.07929,-0.60904 -0.141964,-0.24182 -0.4146,-0.28835 -0.161356,-0.0275 -0.307369,0.0563 -0.145065,0.0783 -0.341688,0.29098 l -0.805085,0.85893 q -0.453768,0.47799 -0.982347,0.38778 -0.05564,-0.009 -0.109381,-0.0301 -0.433859,-0.1084 -0.648704,-0.46 -0.213896,-0.35716 -0.125587,-0.87462 0.05223,-0.30601 0.184782,-0.7472 l 0.05982,-0.35053 0.805564,0.21191 -0.0095,0.0556 q -0.289328,-0.0494 -0.498845,0.13819 -0.214131,0.18104 -0.274904,0.53714 -0.07407,0.43399 0.159771,0.67431 0.11088,0.12199 0.238852,0.14383 0.127972,0.0218 0.225542,-0.013 0.157958,-0.0532 0.369507,-0.28623 l 0.871303,-0.94498 q 0.413737,-0.44473 0.942317,-0.35452 0.589784,0.10065 0.837613,0.56095 0.243215,0.45378 0.129267,1.12146 -0.06457,0.37835 -0.208669,0.68587 -0.148714,0.30101 -0.330144,0.42465 -0.112363,0.0209 -0.262591,-0.005 z" />
      <path
         id="path842"
         style="font-style:normal;font-variant:normal;font-weight:bold;font-stretch:normal;font-size:5.64444447px;font-family:Cinzel;-inkscape-font-specification:'Cinzel, Bold';font-variant-ligatures:normal;font-variant-caps:normal;font-variant-numeric:normal;font-feature-settings:normal;text-align:start;writing-mode:lr-tb;text-anchor:start;fill:#ffffff;stroke-width:0.26458332"
         d="m 76.27176,128.85545 0.01207,-0.0435 0.05439,0.0151 -0.443678,1.59905 -0.05439,-0.0151 0.01207,-0.0435 q 0.03018,-0.10878 -0.0215,-0.17584 -0.05169,-0.0671 -0.106075,-0.0822 -0.05439,-0.0151 -0.120255,-0.01 l -0.55924,0.0733 -0.319931,1.15306 0.44546,0.3579 q 0.04835,0.0369 0.108181,0.0534 0.05439,0.0151 0.13324,-0.0157 0.07492,-0.0378 0.105102,-0.14657 l 0.01207,-0.0435 0.05439,0.0151 -0.301822,1.08779 -0.05439,-0.0151 0.01207,-0.0435 q 0.03169,-0.11422 -0.0073,-0.24806 -0.03901,-0.13383 -0.160809,-0.24378 l -2.102515,-1.79591 q -0.472057,-0.38871 -0.594135,-0.4343 l 0.01358,-0.0489 3.461139,-0.60952 q 0.177349,-0.0269 0.285186,-0.12004 0.103907,-0.10004 0.137107,-0.21969 z m -1.733002,2.31913 0.268622,-0.96814 -1.269546,0.16323 z" />
      <path
         id="path844"
         style="font-style:normal;font-variant:normal;font-weight:bold;font-stretch:normal;font-size:5.64444447px;font-family:Cinzel;-inkscape-font-specification:'Cinzel, Bold';font-variant-ligatures:normal;font-variant-caps:normal;font-variant-numeric:normal;font-feature-settings:normal;text-align:start;writing-mode:lr-tb;text-anchor:start;fill:#ffffff;stroke-width:0.26458332"
         d="m 74.173155,125.18843 0.605529,-1.46596 0.05217,0.0216 -0.03663,0.0887 q -0.04956,0.11999 -0.011,0.23363 0.04071,0.10842 0.15333,0.16105 l 2.279789,0.94169 q 0.323448,0.1336 0.549364,0.17807 l 0.07735,0.0197 -0.01939,0.047 -3.10195,1.52183 1.726797,0.71327 q 0.116927,0.0422 0.227504,-0.004 0.107515,-0.0533 0.157078,-0.17329 l 0.03663,-0.0887 0.05217,0.0215 -0.603374,1.46074 -0.05217,-0.0215 0.03448,-0.0835 q 0.04956,-0.11999 0.01101,-0.23363 -0.04378,-0.1158 -0.158548,-0.1632 l -2.295439,-0.94816 q -0.313015,-0.1293 -0.533713,-0.1716 l -0.07735,-0.0197 0.02461,-0.0448 3.089362,-1.52092 -1.716363,-0.70897 q -0.114772,-0.0474 -0.222287,0.006 -0.110578,0.0459 -0.16014,0.16592 l -0.03663,0.0887 z" />
      <path
         id="path846"
         style="font-style:normal;font-variant:normal;font-weight:bold;font-stretch:normal;font-size:5.64444447px;font-family:Cinzel;-inkscape-font-specification:'Cinzel, Bold';font-variant-ligatures:normal;font-variant-caps:normal;font-variant-numeric:normal;font-feature-settings:normal;text-align:start;writing-mode:lr-tb;text-anchor:start;fill:#ffffff;stroke-width:0.26458332"
         d="m 78.746396,123.3699 q 0.07709,-0.12487 0.04402,-0.2647 -0.03492,-0.14759 -0.156826,-0.22949 l -2.660787,-1.6427 q -0.127839,-0.0723 -0.270629,-0.0344 -0.144628,0.0301 -0.221722,0.15499 l -0.03855,0.0624 -0.04803,-0.0297 0.901412,-1.46007 0.04506,0.0345 -0.03558,0.0576 q -0.07709,0.12487 -0.04218,0.27247 0.03011,0.14462 0.154987,0.22172 l 2.804873,1.73166 0.388438,-0.62918 q 0.216457,-0.35061 0.16003,-0.71048 -0.05346,-0.36468 -0.352118,-0.70827 l 0.02965,-0.048 0.843386,0.82583 -1.535959,2.48788 -0.04803,-0.0297 z" />
      <path
         id="path848"
         style="font-style:normal;font-variant:normal;font-weight:bold;font-stretch:normal;font-size:5.64444447px;font-family:Cinzel;-inkscape-font-specification:'Cinzel, Bold';font-variant-ligatures:normal;font-variant-caps:normal;font-variant-numeric:normal;font-feature-settings:normal;text-align:start;writing-mode:lr-tb;text-anchor:start;fill:#ffffff;stroke-width:0.26458332"
         d="m 82.195387,118.44685 -1.615298,2.11154 -0.04483,-0.0343 0.04115,-0.0538 q 0.07888,-0.10311 0.06307,-0.2218 -0.01238,-0.12318 -0.107574,-0.20311 l -2.133958,-1.63244 q -0.102057,-0.071 -0.224176,-0.0507 -0.118689,0.0158 -0.197568,0.11891 l -0.04115,0.0538 -0.04483,-0.0343 1.207186,-1.57806 q 0.0926,-0.12104 0.179926,-0.28165 0.08733,-0.16061 0.109497,-0.23603 l 0.712813,0.54529 -0.0343,0.0448 -0.04035,-0.0309 q -0.197256,-0.15089 -0.391642,-0.12904 -0.194386,0.0219 -0.346338,0.2112 l -0.493849,0.64557 1.089395,0.83337 0.390963,-0.51107 q 0.112121,-0.15586 0.08551,-0.32545 -0.02661,-0.1696 -0.179034,-0.2862 l -0.03138,-0.024 0.0343,-0.0448 0.950418,0.72706 -0.0343,0.0448 -0.03138,-0.024 q -0.210706,-0.16118 -0.424884,-0.0763 -0.111046,0.043 -0.186495,0.1416 l -0.394393,0.51556 1.062496,0.81279 0.411541,-0.53797 q 0.208146,-0.28138 0.18974,-0.60105 -0.01946,-0.32757 -0.255721,-0.65044 l 0.03087,-0.0404 z" />
      <path
         id="path850"
         style="font-style:normal;font-variant:normal;font-weight:bold;font-stretch:normal;font-size:5.64444447px;font-family:Cinzel;-inkscape-font-specification:'Cinzel, Bold';font-variant-ligatures:normal;font-variant-caps:normal;font-variant-numeric:normal;font-feature-settings:normal;text-align:start;writing-mode:lr-tb;text-anchor:start;fill:#ffffff;stroke-width:0.26458332"
         d="m 84.920641,115.40283 0.03094,-0.0329 0.04111,0.0387 -1.137189,1.20856 -0.04111,-0.0387 0.03094,-0.0329 q 0.07736,-0.0822 0.06284,-0.16563 -0.01452,-0.0834 -0.05562,-0.12209 -0.04111,-0.0387 -0.101798,-0.0648 l -0.529042,-0.19553 -0.820015,0.87148 0.227582,0.52415 q 0.02564,0.0551 0.07085,0.0977 0.04111,0.0387 0.125249,0.0481 0.0839,0.001 0.161258,-0.0808 l 0.03094,-0.0329 0.04111,0.0387 -0.773598,0.82216 -0.04111,-0.0387 0.03094,-0.0329 q 0.08123,-0.0863 0.109016,-0.22294 0.02779,-0.13661 -0.02881,-0.29061 l -1.024506,-2.56832 q -0.236774,-0.56381 -0.323585,-0.66099 l 0.03481,-0.037 3.346872,1.07213 q 0.169496,0.0587 0.308274,0.0266 0.138536,-0.0402 0.223632,-0.13059 z m -2.613503,1.2455 0.688503,-0.73172 -1.199533,-0.44666 z" />
      <path
         id="path852"
         style="font-style:normal;font-variant:normal;font-weight:bold;font-stretch:normal;font-size:5.64444447px;font-family:Cinzel;-inkscape-font-specification:'Cinzel, Bold';font-variant-ligatures:normal;font-variant-caps:normal;font-variant-numeric:normal;font-feature-settings:normal;text-align:start;writing-mode:lr-tb;text-anchor:start;fill:#ffffff;stroke-width:0.26458332"
         d="m 84.765993,111.18114 1.217217,-1.01689 0.03619,0.0433 -0.07364,0.0615 q -0.09963,0.0832 -0.118274,0.20177 -0.01431,0.11493 0.06097,0.21385 l 1.581423,1.89297 q 0.224366,0.26856 0.403773,0.41288 l 0.05933,0.0534 -0.03899,0.0326 -3.453887,-0.0933 1.197829,1.43381 q 0.08394,0.0917 0.203204,0.10237 0.119971,0.003 0.219601,-0.0805 l 0.07364,-0.0615 0.03619,0.0433 -1.212885,1.01327 -0.03619,-0.0433 0.06931,-0.0579 q 0.09963,-0.0832 0.118275,-0.20178 0.01502,-0.12288 -0.06459,-0.21818 l -1.592279,-1.90596 q -0.217129,-0.2599 -0.392917,-0.39989 l -0.05933,-0.0534 0.04261,-0.0282 3.442317,0.0883 -1.190591,-1.42514 q -0.07961,-0.0953 -0.199585,-0.098 -0.119258,-0.0107 -0.218888,0.0725 l -0.07364,0.0615 z" />
      <path
         id="path854"
         style="font-style:normal;font-variant:normal;font-weight:bold;font-stretch:normal;font-size:5.64444447px;font-family:Cinzel;-inkscape-font-specification:'Cinzel, Bold';font-variant-ligatures:normal;font-variant-caps:normal;font-variant-numeric:normal;font-feature-settings:normal;text-align:start;writing-mode:lr-tb;text-anchor:start;fill:#ffffff;stroke-width:0.26458332"
         d="m 89.634892,108.32593 q 0.672918,0.0992 1.101389,0.76993 0.428471,0.67068 0.238722,1.32774 -0.192787,0.65231 -0.958603,1.14156 l -1.607738,1.02711 -0.03039,-0.0476 0.06184,-0.0395 q 0.109403,-0.0699 0.136888,-0.19462 0.02748,-0.12473 -0.03461,-0.23241 l -1.440392,-2.25464 q -0.07637,-0.0986 -0.198054,-0.1213 -0.121688,-0.0227 -0.231091,0.0472 l -0.05708,0.0365 -0.03039,-0.0476 1.607738,-1.02712 q 0.765816,-0.48924 1.441772,-0.38525 z m 0.202877,3.08543 q 0.447122,-0.28565 0.494302,-0.77795 0.05194,-0.49534 -0.318796,-1.07565 -0.370734,-0.58031 -0.842025,-0.74138 -0.469574,-0.16887 -0.916696,0.11678 l -0.537499,0.34338 1.583215,2.4782 z" />
      <path
         id="path856"
         style="font-style:normal;font-variant:normal;font-weight:bold;font-stretch:normal;font-size:5.64444447px;font-family:Cinzel;-inkscape-font-specification:'Cinzel, Bold';font-variant-ligatures:normal;font-variant-caps:normal;font-variant-numeric:normal;font-feature-settings:normal;text-align:start;writing-mode:lr-tb;text-anchor:start;fill:#ffffff;stroke-width:0.26458332"
         d="m 91.822483,106.93051 -0.162438,0.079 1.224224,2.51779 q 0.05924,0.12183 0.177479,0.15848 0.12085,0.0291 0.22745,-0.0227 l 0.05584,-0.0271 0.02468,0.0508 -1.395954,0.67875 -0.02468,-0.0508 0.06091,-0.0296 q 0.111676,-0.0543 0.150796,-0.16746 0.0442,-0.11564 -0.0101,-0.22731 l -1.174861,-2.41627 q -0.0543,-0.11168 -0.172542,-0.14833 -0.113166,-0.0391 -0.219766,0.0127 l -0.06599,0.0321 -0.02468,-0.0508 1.558392,-0.75773 q 0.456858,-0.22214 0.852892,-0.19503 0.441441,0.0301 0.663579,0.48699 0.143155,0.29442 0.08149,0.61939 -0.06413,0.31989 -0.389705,0.54096 0.159271,-0.021 0.352957,0.0418 0.198762,0.0603 0.344154,0.15276 0.303126,0.21036 0.599266,0.36763 0.293672,0.15219 0.434827,0.17143 0.146231,0.0168 0.303593,-0.0597 l 0.02468,0.0508 -0.426401,0.20733 q -0.421324,0.20486 -0.699117,0.21441 -0.272716,0.007 -0.588602,-0.19081 -0.486379,-0.30327 -0.67578,-0.52499 -0.13496,-0.12267 -0.258278,-0.15685 -0.118242,-0.0366 -0.199322,-0.01 l -0.01975,-0.0406 0.126905,-0.0617 q 0.429008,-0.21487 0.281105,-0.76431 -0.01672,-0.086 -0.04387,-0.14185 -0.02715,-0.0558 -0.07912,-0.14982 -0.05444,-0.0991 -0.174592,-0.19127 -0.117543,-0.0998 -0.236064,-0.11116 -0.204258,-0.0199 -0.374241,0.0564 -0.05831,0.0221 -0.129373,0.0566 z" />
      <path
         id="path858"
         style="font-style:normal;font-variant:normal;font-weight:bold;font-stretch:normal;font-size:5.64444447px;font-family:Cinzel;-inkscape-font-specification:'Cinzel, Bold';font-variant-ligatures:normal;font-variant-caps:normal;font-variant-numeric:normal;font-feature-settings:normal;text-align:start;writing-mode:lr-tb;text-anchor:start;fill:#ffffff;stroke-width:0.26458332"
         d="m 94.636887,107.20137 q -0.265382,-0.76825 0.09198,-1.39332 0.360856,-0.63225 1.214473,-0.92712 0.858953,-0.29671 1.533107,-0.022 0.672311,0.26939 0.937693,1.03764 0.265381,0.76826 -0.09547,1.40051 -0.3627,0.62691 -1.216317,0.92178 -0.853617,0.29487 -1.525928,0.0255 -0.674155,-0.27472 -0.939536,-1.04298 z m 0.816271,-0.28196 q 0.232209,0.67222 0.656682,0.9675 0.427964,0.2881 0.913459,0.1204 0.49083,-0.16955 0.644392,-0.65853 0.157054,-0.49616 -0.07516,-1.16839 -0.232209,-0.67222 -0.660173,-0.96032 -0.424473,-0.29528 -0.915303,-0.12573 -0.485494,0.1677 -0.642549,0.66386 -0.153562,0.48898 0.07865,1.16121 z" />
      <path
         id="path860"
         style="font-style:normal;font-variant:normal;font-weight:bold;font-stretch:normal;font-size:5.64444447px;font-family:Cinzel;-inkscape-font-specification:'Cinzel, Bold';font-variant-ligatures:normal;font-variant-caps:normal;font-variant-numeric:normal;font-feature-settings:normal;text-align:start;writing-mode:lr-tb;text-anchor:start;fill:#ffffff;stroke-width:0.26458332"
         d="m 103.46934,106.5683 q 0.14508,-0.0221 0.21212,-0.10661 0.10874,-0.14793 0.0922,-0.29385 l -0.21721,-1.42285 -1.80786,0.27599 0.21637,1.41727 q 0.0222,0.14507 0.14435,0.2349 0.12135,0.0843 0.26642,0.0621 l 0.067,-0.0102 0.0141,0.0549 -1.69626,0.25896 -0.009,-0.0558 0.0725,-0.0111 q 0.14507,-0.0221 0.23017,-0.13792 0.0898,-0.1222 0.0733,-0.26813 l -0.47191,-3.09121 q -0.0277,-0.14422 -0.14908,-0.22847 -0.11662,-0.0907 -0.2617,-0.0685 l -0.0725,0.0111 -0.009,-0.0558 1.69626,-0.25896 0.003,0.0566 -0.067,0.0102 q -0.14508,0.0221 -0.23491,0.14434 -0.0907,0.11662 -0.0685,0.2617 l 0.21892,1.43401 1.80785,-0.27599 -0.21892,-1.43401 q -0.0277,-0.14423 -0.14908,-0.22848 -0.11662,-0.0907 -0.26169,-0.0685 l -0.0725,0.0111 -0.009,-0.0558 1.69626,-0.25895 0.009,0.0558 -0.0725,0.0111 q -0.14507,0.0222 -0.23491,0.14435 -0.0907,0.11662 -0.0685,0.26169 l 0.47191,3.09121 q 0.0221,0.14508 0.14435,0.23491 0.12135,0.0842 0.26642,0.0621 l 0.0725,-0.0111 0.009,0.0558 -1.69626,0.25895 -0.009,-0.0558 z" />
      <path
         id="path862"
         style="font-style:normal;font-variant:normal;font-weight:bold;font-stretch:normal;font-size:5.64444447px;font-family:Cinzel;-inkscape-font-specification:'Cinzel, Bold';font-variant-ligatures:normal;font-variant-caps:normal;font-variant-numeric:normal;font-feature-settings:normal;text-align:start;writing-mode:lr-tb;text-anchor:start;fill:#ffffff;stroke-width:0.26458332"
         d="m 105.46581,106.35714 0.0677,-0.003 q 0.1353,-0.007 0.2269,-0.0961 0.0913,-0.095 0.0851,-0.21903 l -0.13394,-2.67211 q -0.006,-0.12402 -0.10629,-0.20378 -0.10036,-0.0854 -0.23566,-0.0786 l -0.0676,0.003 -0.003,-0.0564 1.60101,-0.0803 0.003,0.0564 -0.0677,0.003 q -0.12966,0.007 -0.22126,0.0959 -0.0916,0.0894 -0.091,0.21367 l 0.13422,2.67775 q 0.0121,0.12938 0.11221,0.20913 0.10008,0.0798 0.22974,0.0733 l 0.0677,-0.003 0.003,0.0564 -1.60101,0.0803 z" />
      <path
         id="path864"
         style="font-style:normal;font-variant:normal;font-weight:bold;font-stretch:normal;font-size:5.64444447px;font-family:Cinzel;-inkscape-font-specification:'Cinzel, Bold';font-variant-ligatures:normal;font-variant-caps:normal;font-variant-numeric:normal;font-feature-settings:normal;text-align:start;writing-mode:lr-tb;text-anchor:start;fill:#ffffff;stroke-width:0.26458332"
         d="m 107.91486,105.90687 q -0.4835,-0.49335 -0.45138,-1.31681 0.0321,-0.82346 0.55234,-1.27202 0.52588,-0.44834 1.41138,-0.4138 0.39481,0.0154 0.77548,0.10368 0.38089,0.0826 0.61316,0.21032 l -0.035,0.89679 -0.0451,-0.002 q -0.21187,-0.94031 -1.14813,-0.97682 -0.58658,-0.0229 -0.91285,0.37675 -0.3204,0.39421 -0.349,1.12743 -0.0284,0.72758 0.23237,1.13881 0.26639,0.41145 0.77965,0.43147 0.282,0.011 0.51267,-0.10992 0.23089,-0.12657 0.31389,-0.37188 l 0.032,-0.67659 q 0.004,-0.10717 -0.0613,-0.16621 -0.0596,-0.0645 -0.17806,-0.0691 l -0.079,-0.003 0.002,-0.0451 1.44952,0.0565 -0.002,0.0451 -0.0677,-0.003 q -0.24817,-0.01 -0.25696,0.21593 l -0.0295,0.75578 q -0.20731,0.24611 -0.68336,0.4309 -0.47605,0.18479 -1.03442,0.16301 -0.85145,-0.0389 -1.3408,-0.52679 z" />
      <path
         id="path866"
         style="font-style:normal;font-variant:normal;font-weight:bold;font-stretch:normal;font-size:5.64444447px;font-family:Cinzel;-inkscape-font-specification:'Cinzel, Bold';font-variant-ligatures:normal;font-variant-caps:normal;font-variant-numeric:normal;font-feature-settings:normal;text-align:start;writing-mode:lr-tb;text-anchor:start;fill:#ffffff;stroke-width:0.26458332"
         d="m 115.17463,107.01529 0.0613,0.01 -0.009,0.0557 -1.53212,-0.24902 0.009,-0.0557 0.0557,0.009 q 0.12814,0.0208 0.23087,-0.0483 0.10272,-0.0691 0.12355,-0.19722 l 0.1956,-1.20341 -1.46526,-0.23815 -0.1956,1.2034 q -0.0153,0.12905 0.0603,0.22711 0.0756,0.0981 0.19813,0.11798 l 0.0613,0.01 -0.009,0.0557 -1.53769,-0.24993 0.009,-0.0557 0.0613,0.01 q 0.12814,0.0208 0.23087,-0.0482 0.10363,-0.0747 0.12355,-0.19722 l 0.42923,-2.64082 q 0.0199,-0.12256 -0.0556,-0.22062 -0.0746,-0.10363 -0.20279,-0.12446 l -0.0613,-0.01 0.009,-0.0557 1.53768,0.24992 -0.009,0.0557 -0.0613,-0.01 q -0.12257,-0.0199 -0.22529,0.0492 -0.10272,0.0691 -0.12822,0.19074 l -0.19831,1.22012 1.46526,0.23816 0.19741,-1.21455 q 0.0281,-0.17271 -0.10877,-0.28073 -0.0661,-0.0508 -0.14966,-0.0644 l -0.0557,-0.009 0.009,-0.0557 1.53212,0.24902 -0.009,0.0557 -0.0613,-0.01 q -0.12257,-0.0199 -0.2253,0.0492 -0.10272,0.0691 -0.12912,0.19632 l -0.43013,2.64638 q -0.0225,0.17362 0.10967,0.27516 0.0661,0.0508 0.14966,0.0644 z" />
      <path
         id="path868"
         style="font-style:normal;font-variant:normal;font-weight:bold;font-stretch:normal;font-size:5.64444447px;font-family:Cinzel;-inkscape-font-specification:'Cinzel, Bold';font-variant-ligatures:normal;font-variant-caps:normal;font-variant-numeric:normal;font-feature-settings:normal;text-align:start;writing-mode:lr-tb;text-anchor:start;fill:#ffffff;stroke-width:0.26458332"
         d="m 121.84752,109.18044 0.0849,0.0307 -0.0192,0.0531 -1.59229,-0.57617 0.0173,-0.0478 0.0796,0.0288 q 0.0922,0.0273 0.18081,-0.0186 0.0887,-0.0459 0.10877,-0.13471 l 0.49016,-2.00158 -1.6201,1.35861 q -0.31546,0.25802 -0.41487,0.51617 l -0.0531,-0.0192 -0.53438,-2.78649 -0.8984,1.83586 q -0.0414,0.0811 -0.005,0.17843 0.0387,0.0921 0.12895,0.1247 l 0.0796,0.0288 -0.0173,0.0478 -1.1093,-0.40139 0.0192,-0.0531 0.0849,0.0307 q 0.14861,0.0538 0.28742,0.002 0.14411,-0.0499 0.22103,-0.19614 l 1.67162,-3.2428 0.0478,0.0173 0.66589,3.30228 2.56116,-2.13457 0.0478,0.0173 -0.77993,3.56546 q -0.0292,0.16352 0.0444,0.29216 0.0788,0.13056 0.22211,0.18242 z" />
      <path
         id="path870"
         style="font-style:normal;font-variant:normal;font-weight:bold;font-stretch:normal;font-size:5.64444447px;font-family:Cinzel;-inkscape-font-specification:'Cinzel, Bold';font-variant-ligatures:normal;font-variant-caps:normal;font-variant-numeric:normal;font-feature-settings:normal;text-align:start;writing-mode:lr-tb;text-anchor:start;fill:#ffffff;stroke-width:0.26458332"
         d="m 125.19821,110.99917 0.04,0.021 -0.0262,0.05 -1.46939,-0.77119 0.0262,-0.05 0.04,0.021 q 0.0999,0.0525 0.17641,0.0161 0.0765,-0.0364 0.10269,-0.0863 0.0262,-0.05 0.0351,-0.11545 l 0.0464,-0.56211 -1.05956,-0.55609 -0.44386,0.35988 q -0.0462,0.0395 -0.0751,0.0945 -0.0262,0.05 -0.0127,0.13357 0.0211,0.0812 0.12109,0.13367 l 0.04,0.021 -0.0262,0.05 -0.99959,-0.52461 0.0262,-0.05 0.04,0.021 q 0.10496,0.0551 0.24401,0.0452 0.13906,-0.01 0.27223,-0.10574 l 2.19922,-1.6761 q 0.47959,-0.37938 0.54991,-0.48909 l 0.045,0.0236 -0.13473,3.51182 q -0.0111,0.17904 0.0571,0.30409 0.0759,0.12268 0.18581,0.18039 z m -1.90112,-2.18344 0.88963,0.46691 0.10841,-1.2754 z" />
      <path
         id="path872"
         style="font-style:normal;font-variant:normal;font-weight:bold;font-stretch:normal;font-size:5.64444447px;font-family:Cinzel;-inkscape-font-specification:'Cinzel, Bold';font-variant-ligatures:normal;font-variant-caps:normal;font-variant-numeric:normal;font-feature-settings:normal;text-align:start;writing-mode:lr-tb;text-anchor:start;fill:#ffffff;stroke-width:0.26458332"
         d="m 125.23857,111.10502 0.0317,-0.0467 0.0467,0.0317 q 0.14954,0.1013 0.30662,0.0305 0.0707,-0.0339 0.12286,-0.10085 l 1.5006,-2.21502 q 0.0935,-0.14803 0.0148,-0.3036 -0.0386,-0.0739 -0.10868,-0.12136 l -0.0514,-0.0348 0.0316,-0.0467 1.29444,0.87693 -0.0317,0.0467 -0.0514,-0.0348 q -0.1028,-0.0696 -0.22973,-0.0534 -0.12226,0.0194 -0.19658,0.11908 l -1.50377,2.2197 q -0.065,0.10597 -0.0409,0.23139 0.0273,0.12075 0.13476,0.19356 l 0.0467,0.0317 -0.027,0.0499 z m 3.07954,2.08628 -0.35983,-0.24377 q -0.64955,-0.44005 -0.68149,-0.98666 0.002,-0.0532 -0.0125,-0.42435 -0.0256,-0.97865 -0.0224,-0.98332 l 1.81908,-0.62207 q 0.0957,-0.0306 0.101,-0.10884 0.008,-0.0829 -0.071,-0.13673 l -0.042,-0.0285 0.0285,-0.0421 0.9533,0.64583 -0.0285,0.0421 -0.0187,-0.0127 q -0.25234,-0.17096 -0.53454,-0.1167 l -1.39622,0.39039 0.0569,2.02935 q 0.006,0.393 0.23696,0.55596 z" />
      <path
         id="path874"
         style="font-style:normal;font-variant:normal;font-weight:bold;font-stretch:normal;font-size:5.64444447px;font-family:Cinzel;-inkscape-font-specification:'Cinzel, Bold';font-variant-ligatures:normal;font-variant-caps:normal;font-variant-numeric:normal;font-feature-settings:normal;text-align:start;writing-mode:lr-tb;text-anchor:start;fill:#ffffff;stroke-width:0.26458332"
         d="m 130.39197,114.97585 -2.03369,-1.71228 0.0363,-0.0432 0.0518,0.0436 q 0.0993,0.0836 0.2186,0.0734 0.12362,-0.007 0.20792,-0.098 l 1.73045,-2.05528 q 0.0757,-0.0986 0.0611,-0.22156 -0.0102,-0.1193 -0.10954,-0.20291 l -0.0518,-0.0436 0.0364,-0.0432 1.51987,1.27967 q 0.11658,0.0982 0.27292,0.1929 0.15635,0.0947 0.23066,0.12042 l -0.57803,0.68653 -0.0432,-0.0364 0.0327,-0.0389 q 0.15996,-0.18998 0.14722,-0.38518 -0.0128,-0.19519 -0.19478,-0.35583 l -0.62176,-0.5235 -0.88341,1.04923 0.49223,0.41444 q 0.15044,0.11928 0.3211,0.10063 0.17065,-0.0186 0.29425,-0.16545 l 0.0255,-0.0302 0.0432,0.0364 -0.77071,0.91538 -0.0432,-0.0364 0.0255,-0.0302 q 0.17087,-0.20294 0.0961,-0.42085 -0.0377,-0.11294 -0.13273,-0.19292 l -0.49654,-0.41807 -0.8616,1.02332 0.51814,0.43625 q 0.27134,0.22108 0.59152,0.21764 0.32813,-0.004 0.66169,-0.22502 l 0.0389,0.0327 z" />
      <path
         id="path876"
         style="font-style:normal;font-variant:normal;font-weight:bold;font-stretch:normal;font-size:5.64444447px;font-family:Cinzel;-inkscape-font-specification:'Cinzel, Bold';font-variant-ligatures:normal;font-variant-caps:normal;font-variant-numeric:normal;font-feature-settings:normal;text-align:start;writing-mode:lr-tb;text-anchor:start;fill:#ffffff;stroke-width:0.26458332"
         d="m 134.01498,114.11877 -0.12549,-0.12992 -2.01367,1.94503 q -0.0974,0.0941 -0.0956,0.2179 0.01,0.12391 0.0922,0.20917 l 0.0431,0.0447 -0.0406,0.0392 -1.0784,-1.11645 0.0406,-0.0392 0.0471,0.0487 q 0.0863,0.0893 0.20599,0.0914 0.12364,0.006 0.21295,-0.0801 l 1.93248,-1.8666 q 0.0893,-0.0863 0.0875,-0.21005 0.002,-0.11972 -0.0803,-0.20498 l -0.051,-0.0528 0.0406,-0.0392 1.20388,1.24636 q 0.35293,0.36539 0.45004,0.75029 0.10833,0.429 -0.25705,0.78193 -0.23547,0.22744 -0.56354,0.26966 -0.324,0.0383 -0.63517,-0.20262 0.0693,0.1449 0.0698,0.3485 0.004,0.20765 -0.0384,0.37456 -0.10592,0.35344 -0.16355,0.68376 -0.0536,0.3264 -0.028,0.46656 0.0294,0.14421 0.15099,0.27007 l -0.0406,0.0392 -0.3294,-0.34102 q -0.32548,-0.33697 -0.42075,-0.59809 -0.0914,-0.25706 -0.001,-0.61875 0.13739,-0.55648 0.2894,-0.80533 0.0747,-0.16636 0.069,-0.2942 -0.002,-0.12377 -0.0525,-0.19251 l 0.0325,-0.0314 0.098,0.1015 q 0.33738,0.34116 0.81381,0.0301 0.0766,-0.0426 0.12124,-0.0857 0.0447,-0.0431 0.11787,-0.1217 0.0773,-0.0825 0.12766,-0.22532 0.0584,-0.1427 0.0324,-0.25891 -0.0444,-0.20036 -0.16978,-0.33826 -0.0391,-0.0486 -0.094,-0.10541 z" />
      <path
         id="path878"
         style="font-style:normal;font-variant:normal;font-weight:bold;font-stretch:normal;font-size:5.64444447px;font-family:Cinzel;-inkscape-font-specification:'Cinzel, Bold';font-variant-ligatures:normal;font-variant-caps:normal;font-variant-numeric:normal;font-feature-settings:normal;text-align:start;writing-mode:lr-tb;text-anchor:start;fill:#ffffff;stroke-width:0.26458332"
         d="m 133.74246,117.78223 q 0.28777,-0.22759 0.59296,-0.26026 l 0.028,0.0354 q -0.0345,0.0201 -0.061,0.0411 -0.27006,0.21358 -0.32315,0.56501 -0.0496,0.35587 0.22352,0.70119 0.19608,0.24792 0.41623,0.2897 0.22365,0.0462 0.36532,-0.0658 0.14167,-0.11205 0.16276,-0.25826 0.029,-0.14529 0.004,-0.41342 l -0.0988,-0.94378 q -0.0672,-0.59453 0.32239,-0.90265 0.0399,-0.0315 0.0876,-0.0621 0.33534,-0.22204 0.68399,-0.14516 0.35309,0.0734 0.58418,0.36557 0.23459,0.29662 0.45385,0.65574 l 0.18908,0.23907 -0.63341,0.4002 -0.0315,-0.0398 q 0.20808,-0.16457 0.21206,-0.4052 0.007,-0.23621 -0.18158,-0.47528 -0.18558,-0.23464 -0.39595,-0.29135 -0.20594,-0.0602 -0.36974,0.0693 -0.13282,0.10504 -0.12517,0.31489 0.002,0.0846 0.0207,0.23548 l 0.12286,1.04706 q 0.0658,0.5381 -0.32384,0.84623 -0.41172,0.32563 -0.86418,0.2085 -0.44895,-0.11269 -0.81309,-0.57312 -0.22409,-0.28334 -0.32925,-0.55279 -0.10516,-0.26946 -0.0839,-0.45181 0.0587,-0.0896 0.16493,-0.17363 z" />
      <path
         id="path880"
         style="font-style:normal;font-variant:normal;font-weight:bold;font-stretch:normal;font-size:5.64444447px;font-family:Cinzel;-inkscape-font-specification:'Cinzel, Bold';font-variant-ligatures:normal;font-variant-caps:normal;font-variant-numeric:normal;font-feature-settings:normal;text-align:start;writing-mode:lr-tb;text-anchor:start;fill:#ffffff;stroke-width:0.26458332"
         d="m 137.07351,123.56441 q -0.53967,-0.94631 -0.37165,-1.75689 0.16802,-0.81058 0.99666,-1.28314 0.82863,-0.47256 1.60902,-0.20934 0.7853,0.26041 1.31658,1.19201 0.40545,0.71096 0.43149,1.37188 l -0.83775,0.49076 -0.0224,-0.0392 q 0.75957,-0.76456 0.25066,-1.65694 -0.32995,-0.57857 -0.94456,-0.67641 -0.60691,-0.0957 -1.33258,0.3181 -0.72567,0.41384 -0.97049,0.97582 -0.24202,0.56687 0.0564,1.12442 0.32436,0.56876 0.77932,0.70568 0.46755,0.13622 1.25052,-0.15435 l 0.0224,0.0392 -0.81538,0.52998 q -0.88352,-0.0225 -1.41828,-0.97157 z" />
      <path
         id="path882"
         style="font-style:normal;font-variant:normal;font-weight:bold;font-stretch:normal;font-size:5.64444447px;font-family:Cinzel;-inkscape-font-specification:'Cinzel, Bold';font-variant-ligatures:normal;font-variant-caps:normal;font-variant-numeric:normal;font-feature-settings:normal;text-align:start;writing-mode:lr-tb;text-anchor:start;fill:#ffffff;stroke-width:0.26458332"
         d="m 138.07977,125.29984 0.0518,-0.0223 0.0268,0.0622 q 0.0514,0.11922 0.16265,0.16346 0.11349,0.0494 0.22753,2.8e-4 l 2.46216,-1.0612 q 0.11403,-0.0491 0.15604,-0.1656 0.0472,-0.11868 -0.002,-0.23272 l -0.0268,-0.0622 0.0518,-0.0223 0.62108,1.44101 -0.0518,0.0223 -0.0268,-0.0622 q -0.0514,-0.11922 -0.16488,-0.16865 -0.1135,-0.0494 -0.23272,0.002 l -2.57619,1.11035 0.26809,0.62202 q 0.1437,0.31914 0.43156,0.45937 0.29304,0.138 0.69019,0.0897 l 0.0246,0.057 -1.04089,0.20892 z" />
      <path
         id="path884"
         style="font-style:normal;font-variant:normal;font-weight:bold;font-stretch:normal;font-size:5.64444447px;font-family:Cinzel;-inkscape-font-specification:'Cinzel, Bold';font-variant-ligatures:normal;font-variant-caps:normal;font-variant-numeric:normal;font-feature-settings:normal;text-align:start;writing-mode:lr-tb;text-anchor:start;fill:#ffffff;stroke-width:0.26458332"
         d="m 143.56062,130.6155 -0.0235,-0.0755 q -0.0318,-0.1024 -0.11832,-0.15236 -0.0811,-0.0516 -0.17977,-0.0268 l -1.78402,0.55484 q -0.5821,0.18104 -1.0269,-0.0708 -0.43941,-0.25347 -0.65901,-0.95953 -0.21791,-0.70068 -0.0169,-1.19471 0.20269,-0.48864 0.79018,-0.67135 l 1.78941,-0.55652 q 0.097,-0.0302 0.13823,-0.12575 0.0429,-0.0902 0.011,-0.19259 l -0.0235,-0.0755 0.0539,-0.0168 0.44086,1.41752 -0.0539,0.0168 -0.0235,-0.0755 q -0.0319,-0.1024 -0.11832,-0.15235 -0.0865,-0.05 -0.18348,-0.0198 l -1.75169,0.54478 q -0.49586,0.15422 -0.70572,0.46776 -0.20819,0.31893 -0.0791,0.73394 0.12907,0.41501 0.46693,0.57003 0.33953,0.1604 0.80844,0.0146 l 1.81097,-0.56323 q 0.10073,-0.0372 0.13823,-0.12575 0.0429,-0.0902 0.011,-0.19259 l -0.0218,-0.0701 0.0539,-0.0168 0.31011,0.99712 z" />
      <path
         id="path886"
         style="font-style:normal;font-variant:normal;font-weight:bold;font-stretch:normal;font-size:5.64444447px;font-family:Cinzel;-inkscape-font-specification:'Cinzel, Bold';font-variant-ligatures:normal;font-variant-caps:normal;font-variant-numeric:normal;font-feature-settings:normal;text-align:start;writing-mode:lr-tb;text-anchor:start;fill:#ffffff;stroke-width:0.26458332"
         d="m 143.46234,134.16591 q -0.20508,0.0395 -0.37735,-0.0193 -0.33239,-0.11419 -0.42735,-0.45803 0.0438,0.37669 -0.1465,0.672 -0.18476,0.29425 -0.55057,0.36469 -0.715,0.13769 -1.06334,-0.68619 -0.0969,-0.23427 -0.15235,-0.52249 l -0.30953,-1.60735 0.0554,-0.0107 0.0117,0.061 q 0.0246,0.12748 0.1237,0.19461 0.10021,0.0727 0.22876,0.0537 l 2.6272,-0.50593 q 0.19846,-0.044 0.2353,-0.24074 0.0115,-0.0597 -2.5e-4,-0.12067 l -0.0117,-0.061 0.0554,-0.0107 0.28605,1.48542 q 0.24122,1.25263 -0.58463,1.41166 z m -1.6248,-0.34815 q 0.25496,-0.0491 0.40651,-0.18749 0.2952,-0.25803 0.2034,-0.7347 -0.001,-0.006 -0.002,-0.0111 l 0.0499,-0.01 q 0.0512,0.26605 0.23845,0.40244 0.18721,0.13639 0.51423,0.0734 0.66511,-0.12808 0.54877,-0.73223 l -0.0299,-0.15519 -2.8877,0.55608 0.0427,0.22171 q 0.0619,0.32147 0.28878,0.48471 0.22794,0.16879 0.627,0.0919 z" />
    </g>
    <circle
       r="0.42483923"
       cy="130.58076"
       cx="81.917168"
       id="path4575"
       style="fill:#ffffff;fill-opacity:1;stroke-width:0.03504745" />
    <circle
       r="0.42483923"
       cy="130.58076"
       cx="115.74385"
       id="path4575-8"
       style="fill:#ffffff;fill-opacity:1;stroke-width:0.03504745" />
    <ellipse
       transform="matrix(0.8669927,0.49832083,-0.47015187,0.88258553,0,0)"
       ry="0.5038473"
       rx="3.0038331"
       cy="74.656075"
       cx="141.4998"
       id="path161"
       style="fill:#000000;fill-opacity:1;stroke-width:0.16459185" />
    <ellipse
       ry="0.37797621"
       rx="0.34254089"
       cy="134.98891"
       cx="85.693649"
       id="path178"
       style="fill:#000000;fill-opacity:1;stroke-width:0.26458332" />
    <ellipse
       ry="0.89479601"
       rx="0.87218535"
       cy="138.34633"
       cx="90.337555"
       id="path180"
       style="fill:#000000;fill-opacity:1;stroke-width:0.30701467" />
    <circle
       r="0.20079985"
       cy="131.29184"
       cx="92.048386"
       id="path194"
       style="fill:#000000;fill-opacity:1;stroke-width:0.10709325" />
    <rect
       transform="matrix(0.89396715,0.4481325,-0.262915,0.964819,0,0)"
       y="78.282822"
       x="124.86918"
       height="1.4028815"
       width="0.49835587"
       id="rect206"
       style="fill:#000000;fill-opacity:1;stroke-width:0.25028467" />
    <ellipse
       ry="1.4764695"
       rx="0.55497867"
       cy="136.81973"
       cx="90.595703"
       id="path208"
       style="fill:#000000;fill-opacity:1;stroke-width:0.29228938" />
    <ellipse
       transform="rotate(-8.6937496)"
       ry="0.56629825"
       rx="1.5432118"
       cy="155.53076"
       cx="80.100677"
       id="path210"
       style="fill:#000000;fill-opacity:1;stroke-width:0.26458332" />
    <path
       transform="translate(17.244531,17.244601)"
       id="path1039"
       d="m 87.336196,121.15833 c 0.329363,0.71883 1.317454,2.87532 1.646817,3.59415 z m 1.887353,3.48393 c -0.329363,-0.71883 -1.317454,-2.87532 -1.646817,-3.59415 z"
       style="fill:#000000;fill-rule:nonzero;stroke:none;stroke-width:0.26458332px;stroke-linecap:butt;stroke-linejoin:miter;stroke-opacity:1" />
  </g>
  <g
     transform="translate(-73.59244,-105.34254)"
     style="display:inline"
     id="layer4">
    <circle
       transform="rotate(-173)"
       r="33.363476"
       style="fill:none;fill-opacity:1;stroke-width:0.73561817"
       cy="-125.5029"
       cx="-124.1705"
       id="path39" />
  </g>
</svg>
