<?xml version="1.0" encoding="UTF-8" standalone="no"?>
<!-- Created with Inkscape (http://www.inkscape.org/) -->

<svg
   xmlns:dc="http://purl.org/dc/elements/1.1/"
   xmlns:cc="http://creativecommons.org/ns#"
   xmlns:rdf="http://www.w3.org/1999/02/22-rdf-syntax-ns#"
   xmlns:svg="http://www.w3.org/2000/svg"
   xmlns="http://www.w3.org/2000/svg"
   xmlns:xlink="http://www.w3.org/1999/xlink"
   xmlns:sodipodi="http://sodipodi.sourceforge.net/DTD/sodipodi-0.dtd"
   xmlns:inkscape="http://www.inkscape.org/namespaces/inkscape"
   width="1.9872599in"
   height="1.9872611in"
   viewBox="0 0 50.4764 50.476431"
   version="1.1"
   id="svg8"
   inkscape:version="0.92.4 (f8dce91, 2019-08-02)"
   sodipodi:docname="t-shirt_source.svg"
   style="enable-background:new">
  <defs
     id="defs2">
    <inkscape:path-effect
       effect="powerstroke"
       id="path-effect1041"
       is_visible="true"
       offset_points="0,0.13229166"
       sort_points="true"
       interpolator_type="CubicBezierJohan"
       interpolator_beta="0.2"
       start_linecap_type="zerowidth"
       linejoin_type="extrp_arc"
       miter_limit="4"
       end_linecap_type="zerowidth" />
    <inkscape:path-effect
       effect="powerstroke"
       id="path-effect1031"
       is_visible="true"
       offset_points="0,0.13229166"
       sort_points="true"
       interpolator_type="CubicBezierJohan"
       interpolator_beta="0.2"
       start_linecap_type="zerowidth"
       linejoin_type="extrp_arc"
       miter_limit="4"
       end_linecap_type="zerowidth" />
    <inkscape:tag
       id="Set 1"
       inkscape:expanded="true" />
  </defs>
  <sodipodi:namedview
     id="base"
     pagecolor="#ffffff"
     bordercolor="#666666"
     borderopacity="1.0"
     inkscape:pageopacity="0.0"
     inkscape:pageshadow="2"
     inkscape:zoom="3.959798"
     inkscape:cx="98.867391"
     inkscape:cy="90.614187"
     inkscape:document-units="mm"
     inkscape:current-layer="layer3"
     showgrid="false"
     units="in"
     inkscape:window-width="1850"
     inkscape:window-height="1016"
     inkscape:window-x="70"
     inkscape:window-y="27"
     inkscape:window-maximized="1"
     inkscape:pagecheckerboard="true"
     fit-margin-top="0"
     fit-margin-left="0"
     fit-margin-right="0"
     fit-margin-bottom="0" />
  <metadata
     id="metadata5">
    <rdf:RDF>
      <cc:Work
         rdf:about="">
        <dc:format>image/svg+xml</dc:format>
        <dc:type
           rdf:resource="http://purl.org/dc/dcmitype/StillImage" />
        <dc:title />
      </cc:Work>
    </rdf:RDF>
  </metadata>
  <g
     inkscape:groupmode="layer"
     id="layer3"
     inkscape:label="Main"
     transform="translate(-73.59244,-105.34254)">
    <path
       id="path77"
       d="m 96.711503,105.34254 -1.051424,5.98904 0.0039,0.004 c -1.285258,0.21003 -2.528719,0.54661 -3.716404,0.99487 v -0.004 l -3.902368,-4.66275 -3.667884,2.11902 2.082658,5.71004 0.008,0.004 c -0.994351,0.81629 -1.905757,1.73093 -2.721536,2.72568 l -0.0039,-0.0122 -5.710039,-2.08266 -2.119022,3.66788 4.662626,3.90651 c -0.447486,1.18666 -0.781092,2.42831 -0.990732,3.71228 l -0.0039,-0.004 -5.989038,1.05143 v 4.23804 l 5.989038,1.05142 0.0039,-0.004 c 0.20964,1.28397 0.543246,2.52562 0.990732,3.7124 l -4.662626,3.90638 2.119022,3.66788 5.710039,-2.08266 0.0039,-0.0122 c 0.815779,0.99475 1.727185,1.90939 2.721536,2.72555 l -0.008,0.004 -2.082658,5.71004 3.667884,2.11903 3.902368,-4.6625 v -0.004 c 1.187685,0.44826 2.431146,0.78485 3.716404,0.99487 l -0.0039,0.004 1.051424,5.98904 h 4.234037 l 1.05142,-5.98904 -0.004,-0.004 c 1.28487,-0.20951 2.52873,-0.54325 3.71641,-0.99073 l 3.90638,4.66263 3.66788,-2.11903 -2.08666,-5.71004 c 0.99215,-0.81422 1.90304,-1.72562 2.71752,-2.71752 l 5.71405,2.08266 2.11501,-3.66789 -4.65861,-3.9065 c 0.44761,-1.18691 0.7851,-2.42818 0.99474,-3.71228 l 5.98916,-1.04739 v -4.23804 l -5.98916,-1.05143 c -0.20977,-1.2828 -0.54765,-2.52264 -0.99475,-3.70826 l 4.65861,-3.9065 -2.11501,-3.66777 -5.71404,2.08254 c -0.81448,-0.9919 -1.72537,-1.90331 -2.71753,-2.71753 l 2.08667,-5.71004 -3.66788,-2.11902 -3.90638,4.66262 c -1.1877,-0.44726 -2.43155,-0.781 -3.71642,-0.9905 l 0.004,-0.004 -1.05142,-5.98904 h -4.23404 z m 2.119026,10.31198 c 8.244451,0 14.930861,6.68174 14.930861,14.92568 0,8.24446 -6.68576,14.92569 -14.930861,14.92569 -8.244456,0 -14.925687,-6.68175 -14.925687,-14.92569 0,-8.24445 6.681622,-14.92568 14.925687,-14.92568 z"
       inkscape:connector-curvature="0"
       style="display:inline;fill:#000000;stroke-width:0.25881195;stroke-linecap:round;stroke-linejoin:round" />
    <path
       style="display:inline;stroke-width:0.07112224"
       d="M 106.88281 41.310547 C 106.48906 42.571624 106.0958 43.836867 105.66992 45.087891 C 104.11514 46.504042 104.93287 44.302554 104.24609 49.8125 C 103.39725 50.013949 102.61139 50.39206 102.14258 51.164062 C 98.487317 49.426164 95.033066 47.294744 91.414062 45.488281 C 91.338816 45.70825 91.18668 46.142821 91.113281 46.363281 C 92.49573 48.679451 94.24731 51.58798 92.433594 56.058594 C 90.965391 61.611665 88.71232 64.514246 85.255859 67.132812 C 84.177612 67.66737 83.499756 68.418828 83.275391 68.615234 C 83.197556 68.365574 83.058542 67.94229 83.230469 68.511719 C 83.263476 68.609261 83.254362 68.578124 83.269531 68.621094 C 83.177613 68.700681 83.143386 68.704426 83.230469 68.511719 C 82.097533 67.769079 80.964437 67.015997 79.892578 66.183594 C 78.884912 64.200309 79.920056 62.071164 80.589844 60.158203 C 80.496155 60.183607 80.407479 60.204386 80.59375 60.146484 C 80.623041 59.892103 80.60938 60.01945 80.595703 60.146484 C 80.778354 60.103473 80.694314 60.128766 80.601562 60.154297 C 81.233013 61.066032 82.182165 60.468058 82.837891 61.410156 C 83.074376 61.478944 83.547411 61.616255 83.78125 61.681641 C 83.775581 61.399688 83.765372 61.120272 83.757812 60.841797 C 84.344947 59.925261 84.641695 58.873999 84.955078 57.845703 C 84.538656 57.045805 84.997346 55.620898 84.402344 54.941406 L 84.402344 54.939453 C 84.529714 54.554168 84.661458 54.168299 84.789062 53.783203 C 84.550843 52.42828 83.665336 51.370241 82.695312 50.457031 C 82.31668 50.331929 81.940491 50.201362 81.5625 50.074219 C 81.054297 52.401009 80.185891 54.632297 79.720703 56.972656 C 79.229028 57.239113 78.738472 57.507297 78.246094 57.777344 C 78.242397 57.994667 78.229081 58.427007 78.222656 58.646484 C 79.387238 59.980809 78.123163 61.599255 77.869141 63.039062 C 77.262337 63.153204 76.58901 63.574599 75.998047 63.1875 C 73.367556 61.809069 71.184639 59.748319 68.619141 58.255859 C 68.897276 60.41276 70.534673 61.347123 71.585938 67.125 C 72.753191 76.086146 69.044115 83.22706 64.068359 86.527344 C 62.326296 81.723489 60.283815 62.773166 58.287109 61.470703 C 57.81409 67.809576 59.533304 72.779551 54.380859 95.259766 C 53.154474 103.43624 48.029833 106.98188 44.814453 107.39453 C 45.299631 106.47852 46.15049 103.55847 47.009766 103.05859 C 47.00111 102.65576 47.007826 102.85568 47.013672 103.05664 C 47.516444 102.69273 48.009189 102.32318 48.509766 101.95508 C 47.603537 101.12755 47.318951 99.920019 46.708984 98.902344 C 46.583844 99.161241 44.291167 100.35848 44.166016 100.61719 C 43.836978 100.7398 43.997543 100.6917 44.164062 100.63672 C 44.140814 100.80502 44.096503 101.11284 44.072266 101.26758 C 44.228776 102.52404 43.283407 103.57476 43.25 104.82227 C 44.151969 106.75557 44.223006 104.88408 39.974609 118.59961 C 40.361002 120.90297 41.254753 123.10712 41.445312 125.44336 C 38.9474 128.13869 40.236656 124.76446 39.259766 132.37695 C 38.859907 141.67538 24.067266 134.25172 102.01172 156.87695 C 103.49734 151.96735 112.7199 144.28319 116.58203 143.05469 L 117.37891 140.62109 C 117.38133 140.61322 117.3843 140.60553 117.38672 140.59766 C 117.56323 140.02321 117.7421 139.4489 117.91211 138.87305 C 117.76282 138.40061 117.62285 137.92509 117.49219 137.45117 C 118.3738 137.23838 119.2092 136.90253 119.99023 136.44336 C 121.26794 137.04986 122.5942 137.57687 123.80078 138.32812 C 123.9531 138.65241 124.10869 138.97431 124.26758 139.30078 C 124.26743 139.30599 124.26773 139.3112 124.26758 139.31641 L 125.91797 142.81641 C 128.02631 142.50012 130.05726 141.92487 131.59766 140.93945 C 132.89959 139.73923 134.42957 138.80347 135.58984 137.45312 C 136.12586 136.76779 136.62986 136.05737 137.18359 135.38477 C 138.07888 133.29028 138.51764 128.22532 137.21289 126.94922 L 137.21094 126.94727 C 136.68009 126.69619 136.15655 126.40717 135.75195 125.97461 C 136.71006 124.73504 138.02908 123.82793 139.30664 122.94727 C 139.3656 122.71142 139.48602 122.23699 139.54688 121.99805 C 137.50824 122.21348 135.90273 123.58664 134.08398 124.37305 C 132.50675 124.51213 128.22863 120.58671 124.8418 119.28516 C 123.8358 118.86623 123.65889 117.69466 123.31836 116.79102 C 122.42454 116.18916 121.45512 115.71517 120.45312 115.33008 C 122.69382 113.72412 124.99095 112.12147 126.66211 109.88867 C 128.01276 105.84839 128.51992 106.33715 128.75391 101.47656 C 128.96027 98.954458 128.14748 93.709608 126.68359 92.341797 C 124.67058 91.491214 123.73127 90.201021 121.77344 89.205078 C 122.87271 88.151875 124.36493 87.581541 125.33789 86.386719 C 128.11547 83.283916 128.6894 77.397561 126.92383 74.291016 C 125.21726 73.280257 123.53752 72.194813 122.04102 70.886719 C 121.82369 70.81453 121.39157 70.666002 121.17383 70.595703 C 121.1399 69.805325 121.25743 69.023757 121.41406 68.25 C 121.3407 68.320048 121.27281 68.382631 121.41406 68.246094 C 121.41431 68.247795 121.41381 68.248301 121.41406 68.25 C 121.43039 68.360442 121.44625 68.460003 121.41602 68.248047 L 121.41797 68.246094 L 121.41602 68.244141 C 121.5689 68.099763 121.49413 68.173338 121.41797 68.246094 C 122.29481 68.780634 123.28277 67.411289 123.20898 68.394531 C 123.57711 68.623193 123.94657 68.845568 124.32422 69.066406 C 124.37449 68.595175 124.42825 68.127595 124.47852 67.65625 C 125.29516 66.288477 125.49919 64.713465 125.33984 63.154297 C 124.18977 62.373635 123.02441 61.620782 121.83594 60.904297 C 121.08132 62.58252 121.00082 64.567597 119.88477 66.066406 C 119.83336 66.199068 119.72636 66.463231 119.67383 66.595703 C 119.70406 67.256516 119.72701 67.917792 119.74023 68.580078 C 119.46697 68.639039 119.19311 68.698478 118.91992 68.757812 C 116.4057 66.909816 115.40657 66.532797 114.28711 65.650391 C 114.40087 63.886145 115.2702 60.593692 114.21484 58.242188 C 113.03295 57.610175 106.42069 53.552015 106.02539 53.347656 C 106.21928 52.75068 106.44893 52.16208 106.52539 51.539062 C 106.5274 51.525522 106.52547 51.536276 106.52734 51.523438 C 106.53687 51.53529 106.53971 51.539175 106.54883 51.550781 C 106.95051 51.9077 108.55862 47.782153 108.45703 48.421875 L 108.45703 48.423828 C 108.78705 48.782144 109.12484 49.13386 109.45508 49.492188 C 109.33678 48.221813 109.78315 47.020378 110.17188 45.833984 C 109.42806 44.744989 109.45549 43.330299 108.61719 42.298828 C 108.0201 42.001379 107.45001 41.6566 106.88281 41.310547 z M 106.54883 51.550781 C 106.5418 51.544539 106.53166 51.548104 106.52539 51.539062 C 106.64138 51.674408 106.60206 51.618521 106.54883 51.550781 z M 47.013672 103.05664 C 47.012507 103.05748 47.01093 103.05775 47.009766 103.05859 C 47.024506 103.4614 47.01953 103.25848 47.013672 103.05664 z M 80.601562 60.154297 C 80.599825 60.151782 80.59744 60.150971 80.595703 60.148438 L 80.595703 60.146484 L 80.59375 60.146484 C 80.592695 60.149504 80.592854 60.153229 80.591797 60.15625 C 80.570671 60.368352 80.582955 60.274084 80.595703 60.15625 C 80.598365 60.155523 80.598912 60.155028 80.601562 60.154297 z M 91.580078 67.648438 C 94.004055 67.692865 96.288922 68.096701 97.892578 68.666016 C 97.614821 69.534664 97.408478 70.432539 97.003906 71.253906 C 96.598042 71.583859 96.143944 71.858738 95.708984 72.154297 C 95.566647 72.574883 95.425499 72.999224 95.291016 73.425781 C 94.735527 72.947633 88.525963 69.265442 88.462891 69.228516 C 88.091854 68.802412 86.904494 68.716611 87.185547 67.998047 C 88.621968 67.724022 90.125692 67.621779 91.580078 67.648438 z M 100.8457 69.671875 C 101.15751 69.698332 101.46925 69.722346 101.78125 69.748047 C 102.42967 70.032645 103.08474 70.293898 103.74805 70.542969 L 109.52344 72.947266 C 109.42782 74.473288 109.12957 75.984755 108.25 77.263672 C 106.40634 78.810204 104.70256 79.424122 102.79883 78.09375 L 101.3418 77.373047 C 101.33511 77.370331 101.32895 77.365992 101.32227 77.363281 L 98.507812 75.96875 L 100.69727 73.701172 C 100.45034 73.290943 100.20712 72.8755 99.962891 72.466797 C 100.26034 71.535295 100.55162 70.604436 100.8457 69.671875 z M 110.75586 79.345703 C 112.4944 79.374932 114.57943 79.739624 116.06836 80.208984 L 115.2793 82.712891 C 114.9123 82.91056 114.5505 83.112778 114.18555 83.314453 C 112.1257 82.539574 109.82567 80.951278 109.25977 80.3125 C 109.46121 80.354453 108.96576 79.398949 109.16797 79.4375 C 109.63532 79.363988 110.17635 79.33596 110.75586 79.345703 z M 118.54102 81.535156 L 118.54297 81.535156 C 119.32771 81.975244 120.10548 82.432432 120.88281 82.884766 C 121.72047 83.745251 122.04567 84.886457 122.26953 86.033203 C 122.0061 86.880951 121.47182 87.58967 120.8457 88.203125 C 119.50972 87.36286 119.20065 87.195415 118.39062 86.671875 C 118.51195 86.299214 118.63504 85.928168 118.75977 85.556641 C 118.4506 85.084578 118.14138 84.615791 117.82031 84.158203 C 118.05389 83.279236 118.29213 82.405657 118.54102 81.535156 z M 64.738281 89.601562 C 67.67042 89.92698 64.980136 89.491147 68.544922 90.183594 C 68.155581 91.798888 67.711324 93.399734 67.220703 94.990234 C 66.721337 95.305447 66.217402 95.647448 65.619141 95.746094 C 65.615444 95.727196 64.547107 90.35859 64.542969 90.339844 C 64.595088 90.156537 64.690999 89.786608 64.738281 89.601562 z M 72.019531 90.757812 C 72.671178 90.905214 73.329327 91.11736 74.007812 91.029297 C 75.656155 91.429058 77.301619 91.904694 78.787109 92.740234 C 77.003097 95.250105 73.087144 94.861641 70.423828 96.181641 C 70.719274 94.322264 71.517122 92.570096 72.019531 90.757812 z M 80.058594 95.871094 C 81.472712 96.01018 81.371637 96.025814 82.566406 95.933594 C 85.723124 96.014098 87.540963 96.385699 89.132812 96.458984 C 88.498045 101.67254 87.501282 101.51298 86.488281 102.18555 C 82.066718 100.73307 77.595666 99.424152 73.185547 97.935547 C 75.196445 96.56252 77.823245 96.733355 80.058594 95.871094 z M 92.566406 97.095703 C 94.175098 97.55193 95.736564 98.142095 97.306641 98.720703 L 100.35352 101.83789 C 100.68611 101.93691 101.01855 102.02982 101.35156 102.12695 C 101.61386 102.63462 101.88067 103.14135 102.1582 103.64648 C 101.87663 104.60849 99.66893 105.67627 99.035156 106.47266 C 96.550106 105.80912 93.206427 103.39038 91.060547 101.93945 C 91.53309 100.31411 92.061442 98.710771 92.566406 97.095703 z M 69.96875 97.601562 C 70.357212 97.658711 70.708378 98.126151 70.292969 98.431641 C 69.852367 98.790696 69.041677 98.099484 69.595703 97.703125 C 69.706856 97.60996 69.839263 97.582517 69.96875 97.601562 z M 72.134766 98.349609 C 76.301525 103.2828 71.751485 111.2454 69.853516 113.46289 C 69.431342 113.93696 69.033562 114.42945 68.677734 114.95703 C 68.278488 115.28925 67.867049 115.84334 67.367188 115.31836 C 67.381924 115.07156 68.259903 110.6345 67.097656 105.29883 C 67.642513 103.40906 68.264546 101.54096 68.849609 99.660156 C 69.960639 99.261454 71.021302 98.733005 72.134766 98.349609 z M 66.953125 100 L 67.212891 100.11523 C 66.712878 101.40099 66.612485 102.86303 65.773438 104.00195 C 66.038378 102.63108 66.593715 101.3446 66.953125 100 z M 107.65234 102.66211 L 108.86914 103.04688 C 108.36654 104.64093 107.87111 106.23209 107.35547 107.81836 L 107.35352 107.81836 C 106.96279 108.13508 106.58064 108.45755 106.20117 108.78516 C 104.63323 108.07264 102.69325 108.64215 101.50977 107.28711 C 105.2998 106.31721 106.36432 104.12354 107.65234 102.66211 z M 112.23242 104.04102 C 113.5928 104.89119 115.22842 105.27256 116.39062 106.42773 C 116.53425 106.50219 116.82747 106.64511 116.97461 106.7207 C 118.47021 108.18126 119.47957 110.05621 119.80469 112.12891 C 119.70604 112.47247 119.60999 112.81695 119.51172 113.16406 C 119.04359 113.50724 118.56752 113.8476 118.08594 114.17578 C 116.87777 113.53311 115.44473 113.34365 114.36133 112.47852 C 113.52567 112.14214 112.64337 111.92701 111.82812 111.54883 C 111.51635 110.57775 110.96122 109.71941 110.53516 108.81055 C 110.56539 107.09256 111.73107 105.64278 112.23242 104.04102 z M 50.064453 108.58398 C 55.327601 108.43439 61.08319 110.17141 61.791016 111.53125 C 61.152102 113.84595 60.426823 116.14658 59.576172 118.39453 C 56.634441 117.78176 46.95347 110.54246 45.169922 109.44727 C 46.609431 108.89454 48.31007 108.63385 50.064453 108.58398 z M 45.763672 111.75 C 45.50553 112.59945 45.243163 113.45051 45 114.30469 C 44.861065 114.12251 44.59019 113.76402 44.451172 113.58203 C 44.611121 113.08706 44.770755 112.59328 44.929688 112.10156 C 45.138843 112.01501 45.554505 111.83693 45.763672 111.75 z M 46.847656 112.94336 L 47.505859 113.15039 L 46.746094 115.56445 C 46.617212 115.39626 46.351538 115.06625 46.222656 114.89844 C 46.431589 114.24802 46.638713 113.59374 46.847656 112.94336 z M 49.074219 113.77539 C 48.858899 114.631 48.599885 115.47699 48.333984 116.32031 L 47.636719 116.09961 C 47.909449 115.2039 48.186956 114.24829 49.074219 113.77539 z M 64.398438 114.32031 C 65.325809 114.89627 65.699047 115.93041 65.96875 116.93164 C 65.849355 117.26122 65.734819 117.59265 65.615234 117.92578 C 64.617466 118.6801 63.609153 119.44411 62.414062 119.86719 C 62.670844 119.34104 62.934667 118.82436 63.207031 118.30664 C 63.24528 116.89348 63.844578 115.59277 64.398438 114.32031 z M 50.501953 115.18555 C 50.667307 115.2377 50.998697 115.33851 51.164062 115.39062 L 50.541016 117.37109 C 50.373998 117.32423 50.036506 117.23909 49.869141 117.19336 L 50.501953 115.18555 z M 52.384766 116.14258 L 53.039062 116.34961 C 52.8434 116.98242 52.646473 117.61615 52.455078 118.25391 C 52.241497 118.33176 51.817199 118.48622 51.603516 118.56445 C 51.862489 117.75533 52.123302 116.94728 52.384766 116.14258 z M 53.929688 116.77148 C 54.940832 117.64663 53.581678 118.69406 53.304688 119.5957 C 53.261299 118.61484 53.654054 117.6918 53.929688 116.77148 z M 55.460938 117.83984 C 55.626288 117.892 55.96436 117.99812 56.130859 118.04688 C 55.896869 118.90388 55.703911 119.78011 55.337891 120.5918 C 54.653325 119.73582 55.21151 118.74602 55.460938 117.83984 z M 71.806641 118.53906 C 75.14963 118.49307 78.993273 119.25474 81.941406 120.42578 C 80.745809 124.27313 79.509727 128.10489 78.310547 131.95117 C 77.467168 131.68509 76.623749 131.42062 75.779297 131.1582 C 75.44632 130.44973 75.117241 129.7423 74.792969 129.0293 C 73.520806 128.69292 68.578817 126.84946 67.947266 125.70312 C 67.27005 124.72608 67.96596 123.57132 67.871094 122.49805 C 67.378512 122.2845 66.786343 122.22183 66.378906 121.85352 C 66.458579 121.09338 66.619181 120.34362 66.630859 119.58008 C 67.974489 118.88532 69.800847 118.56666 71.806641 118.53906 z M 57.621094 118.61133 C 57.861774 119.38171 57.620766 120.14573 57.435547 120.89453 C 57.218791 120.98259 56.790997 121.16389 56.574219 121.25195 C 56.660505 120.28651 56.700321 119.17901 57.621094 118.61133 z M 65.521484 119.83008 C 66.364303 119.92237 65.673358 121.13747 65.667969 121.43164 C 64.842796 121.16556 64.023792 120.89324 63.212891 120.59375 C 64.437989 119.97964 65.138385 119.78813 65.521484 119.83008 z M 58.830078 119.86133 C 58.949587 120.059 59.196879 120.45276 59.316406 120.65039 C 59.015405 121.22454 58.746873 121.85408 58.181641 122.22852 C 58.354894 121.4251 58.587149 120.64286 58.830078 119.86133 z M 63.048828 121.58008 C 62.775984 122.45772 62.48892 123.33531 62.148438 124.19141 C 61.817086 123.44332 61.914495 122.64852 62.134766 121.89258 C 62.362709 121.81548 62.820809 121.65718 63.048828 121.58008 z M 63.888672 122.31445 L 64.550781 122.52344 L 63.923828 124.51172 C 63.758549 124.45956 63.429041 124.35099 63.263672 124.29883 L 63.888672 122.31445 z M 65.949219 122.82617 C 66.032595 122.99814 66.203053 123.34569 66.287109 123.51758 C 65.984974 124.15314 65.700751 124.79929 65.414062 125.44336 C 65.285978 125.25023 65.034482 124.86497 64.90625 124.67188 C 65.154036 124.00093 65.438707 123.33784 65.949219 122.82617 z M 85.890625 123.64844 C 87.783761 123.67151 90.906783 124.24751 91.695312 124.44336 C 93.55964 124.32997 101.29461 126.83282 101.36328 126.85156 C 101.06054 130.22128 99.494757 133.31663 98.681641 136.57617 C 96.476052 137.30891 82.827631 133.45155 81.914062 133.11328 C 81.782085 131.71089 84.485957 123.98068 84.539062 123.84375 C 84.7647 123.69444 85.25958 123.64075 85.890625 123.64844 z M 105.31641 128.51172 C 107.97859 129.05333 109.72541 130.1478 111.88477 131.61523 C 111.81031 131.82084 111.65687 132.22384 111.58203 132.42578 C 108.92283 134.1943 106.17175 135.96615 102.98633 136.60156 C 102.98448 135.13915 104.07192 130.51675 104.82227 128.78516 C 104.94586 128.71448 105.19334 128.57786 105.31641 128.51172 z M 111.0957 135.80664 C 113.19704 136.00847 112.61923 135.68745 114.62109 136.08203 C 113.30657 137.23199 113.38031 137.73948 106.53906 137.47461 C 105.90765 137.42472 105.27901 137.37871 104.64844 137.31445 C 106.28675 136.48288 108.47672 136.27727 111.0957 135.80664 z "
       transform="matrix(0.26458333,0,0,0.26458333,73.59244,105.34254)"
       id="path67" />
    <text
       xml:space="preserve"
       style="font-style:normal;font-weight:normal;font-size:10.58333302px;line-height:1.25;font-family:sans-serif;letter-spacing:0px;word-spacing:0px;display:inline;fill:#000000;fill-opacity:1;stroke:none;stroke-width:0.26458332"
       id="text210"
       transform="matrix(0.4890935,0,0,0.4890935,46.033048,62.254411)"><textPath
         xlink:href="#path39"
         id="textPath4566"><tspan
   style="font-style:normal;font-variant:normal;font-weight:bold;font-stretch:normal;font-size:5.64444447px;font-family:Cinzel;-inkscape-font-specification:'Cinzel, Bold';font-variant-ligatures:normal;font-variant-caps:normal;font-variant-numeric:normal;font-feature-settings:normal;text-align:start;writing-mode:lr-tb;text-anchor:start;fill:#ffffff;stroke-width:0.26458332"
   id="tspan208">San Leandro High Makers Club</tspan></textPath></text>
    <circle
       style="fill:#ffffff;fill-opacity:1;stroke-width:0.03504745"
       id="path4575"
       cx="81.917168"
       cy="130.58076"
       r="0.42483923" />
    <circle
       style="fill:#ffffff;fill-opacity:1;stroke-width:0.03504745"
       id="path4575-8"
       cx="115.74385"
       cy="130.58076"
       r="0.42483923" />
    <ellipse
       style="fill:#000000;fill-opacity:1;stroke-width:0.16459185"
       id="path161"
       cx="141.4998"
       cy="74.656075"
       rx="3.0038331"
       ry="0.5038473"
       transform="matrix(0.8669927,0.49832083,-0.47015187,0.88258553,0,0)"
       inkscape:transform-center-x="15.901363"
       inkscape:transform-center-y="-8.9363081" />
    <ellipse
       style="fill:#000000;fill-opacity:1;stroke-width:0.26458332"
       id="path178"
       cx="85.693649"
       cy="134.98891"
       rx="0.34254089"
       ry="0.37797621" />
    <ellipse
       style="fill:#000000;fill-opacity:1;stroke-width:0.30701467"
       id="path180"
       cx="90.337555"
       cy="138.34633"
       rx="0.87218535"
       ry="0.89479601" />
    <circle
       style="fill:#000000;fill-opacity:1;stroke-width:0.10709325"
       id="path194"
       cx="92.048386"
       cy="131.29184"
       r="0.20079985" />
    <rect
       style="fill:#000000;fill-opacity:1;stroke-width:0.25028467"
       id="rect206"
       width="0.49835587"
       height="1.4028815"
       x="124.86918"
       y="78.282822"
       transform="matrix(0.89396715,0.4481325,-0.262915,0.964819,0,0)" />
    <ellipse
       style="fill:#000000;fill-opacity:1;stroke-width:0.29228938"
       id="path208"
       cx="90.595703"
       cy="136.81973"
       rx="0.55497867"
       ry="1.4764695" />
    <ellipse
       style="fill:#000000;fill-opacity:1;stroke-width:0.26458332"
       id="path210"
       cx="80.100677"
       cy="155.53076"
       rx="1.5432118"
       ry="0.56629825"
       transform="rotate(-8.6937496)" />
    <path
       style="fill:#000000;fill-rule:nonzero;stroke:none;stroke-width:0.26458332px;stroke-linecap:butt;stroke-linejoin:miter;stroke-opacity:1"
       d="m 87.336196,121.15833 c 0.329363,0.71883 1.317454,2.87532 1.646817,3.59415 z m 1.887353,3.48393 c -0.329363,-0.71883 -1.317454,-2.87532 -1.646817,-3.59415 z"
       id="path1039"
       inkscape:connector-curvature="0"
       inkscape:path-effect="#path-effect1041"
       inkscape:original-d="m 89.103281,124.69737 0.548939,1.19805 -2.242558,0.18792 z"
       transform="translate(17.244531,17.244601)" />
  </g>
  <g
     inkscape:groupmode="layer"
     id="layer4"
     inkscape:label="Text"
     style="display:inline"
     transform="translate(-73.59244,-105.34254)">
    <circle
       id="path39"
       cx="-124.1705"
       cy="-125.5029"
       style="fill:none;fill-opacity:1;stroke-width:0.73561817"
       r="33.363476"
       transform="rotate(-173)" />
  </g>
</svg>
