<?xml version="1.0" encoding="UTF-8" standalone="no"?>
<!-- Created with Inkscape (http://www.inkscape.org/) -->

<svg
   xmlns:dc="http://purl.org/dc/elements/1.1/"
   xmlns:cc="http://creativecommons.org/ns#"
   xmlns:rdf="http://www.w3.org/1999/02/22-rdf-syntax-ns#"
   xmlns:svg="http://www.w3.org/2000/svg"
   xmlns="http://www.w3.org/2000/svg"
   xmlns:sodipodi="http://sodipodi.sourceforge.net/DTD/sodipodi-0.dtd"
   xmlns:inkscape="http://www.inkscape.org/namespaces/inkscape"
   width="1.2708378in"
   height="1.2708503in"
   viewBox="0 0 32.27928 32.279598"
   version="1.1"
   id="svg8"
   inkscape:version="0.92.4 (f8dce91, 2019-08-02)"
   sodipodi:docname="t-shirt_source.svg"
   style="enable-background:new">
  <defs
     id="defs2">
    <inkscape:perspective
       sodipodi:type="inkscape:persp3d"
       inkscape:vp_x="0 : 25.238217 : 1"
       inkscape:vp_y="0 : 1000 : 0"
       inkscape:vp_z="50.476403 : 25.238215 : 1"
       inkscape:persp3d-origin="25.238201 : 16.825477 : 1"
       id="perspective45" />
    <inkscape:path-effect
       effect="powerstroke"
       id="path-effect1041"
       is_visible="true"
       offset_points="0,0.13229166"
       sort_points="true"
       interpolator_type="CubicBezierJohan"
       interpolator_beta="0.2"
       start_linecap_type="zerowidth"
       linejoin_type="extrp_arc"
       miter_limit="4"
       end_linecap_type="zerowidth" />
    <inkscape:path-effect
       effect="powerstroke"
       id="path-effect1031"
       is_visible="true"
       offset_points="0,0.13229166"
       sort_points="true"
       interpolator_type="CubicBezierJohan"
       interpolator_beta="0.2"
       start_linecap_type="zerowidth"
       linejoin_type="extrp_arc"
       miter_limit="4"
       end_linecap_type="zerowidth" />
    <inkscape:tag
       id="Set 1"
       inkscape:expanded="true" />
  </defs>
  <sodipodi:namedview
     id="base"
     pagecolor="#ffffff"
     bordercolor="#666666"
     borderopacity="1.0"
     inkscape:pageopacity="0.0"
     inkscape:pageshadow="2"
     inkscape:zoom="4"
     inkscape:cx="79.718065"
     inkscape:cy="33.248104"
     inkscape:document-units="in"
     inkscape:current-layer="layer3"
     showgrid="false"
     units="in"
     inkscape:window-width="1850"
     inkscape:window-height="1016"
     inkscape:window-x="70"
     inkscape:window-y="27"
     inkscape:window-maximized="1"
     inkscape:pagecheckerboard="true"
     fit-margin-top="0"
     fit-margin-left="0"
     fit-margin-right="0"
     fit-margin-bottom="0" />
  <metadata
     id="metadata5">
    <rdf:RDF>
      <cc:Work
         rdf:about="">
        <dc:format>image/svg+xml</dc:format>
        <dc:type
           rdf:resource="http://purl.org/dc/dcmitype/StillImage" />
        <dc:title></dc:title>
      </cc:Work>
    </rdf:RDF>
  </metadata>
  <g
     inkscape:groupmode="layer"
     id="layer3"
     inkscape:label="Main"
     transform="translate(-73.59244,123.58222)"
     style="display:inline">
    <path
       style="display:inline;fill:#000000;stroke-width:0.1655065;stroke-linecap:round;stroke-linejoin:round"
       d="m 88.37752,-123.58085 -0.6725,3.82945 0.003,0.003 c -0.8219,0.13431 -1.61717,0.34949 -2.37667,0.63614 v -0.003 l -2.49529,-2.98179 -2.3456,1.35491 1.33175,3.65165 0.005,0.003 c -0.63587,0.52201 -1.21886,1.10675 -1.74052,1.74289 l -0.003,-0.008 -3.65157,-1.33212 -1.35523,2.34565 2.98174,2.49833 c -0.28616,0.75886 -0.49942,1.55266 -0.63349,2.37375 l -0.003,-0.003 -3.8297,0.67217 v 2.71015 l 3.8297,0.6725 0.003,-0.003 c 0.13407,0.82109 0.34733,1.61514 0.63349,2.37408 l -2.98174,2.498 1.35523,2.345648 3.65157,-1.33178 0.003,-0.0079 c 0.52166,0.636135 1.10465,1.221289 1.74052,1.743217 l -0.005,0.0026 -1.33175,3.65166 2.3456,1.355244 2.49529,-2.981805 v -0.0026 c 0.7595,0.286659 1.55477,0.502174 2.37667,0.636474 l -0.003,0.0026 0.6725,3.83011 h 2.70747 l 0.67248,-3.83011 -0.003,-0.0026 c 0.82166,-0.13398 1.61717,-0.347673 2.37667,-0.633833 l 2.49795,2.981805 2.3456,-1.354917 -1.33441,-3.651654 c 0.63446,-0.520688 1.21706,-1.103617 1.73791,-1.737929 l 3.65389,1.331781 1.35257,-2.345321 -2.97909,-2.49833 c 0.28624,-0.75902 0.50207,-1.5529 0.63613,-2.37407 l 3.83003,-0.66953 v -2.71044 l -3.83003,-0.67217 c -0.13415,-0.82034 -0.35023,-1.61324 -0.63614,-2.37143 l 2.9791,-2.49833 -1.35258,-2.34532 -3.6539,1.33178 c -0.5204,-0.63431 -1.10298,-1.21724 -1.73744,-1.73793 l 1.33439,-3.65165 -2.3456,-1.35491 -2.49795,2.98179 c -0.7595,-0.28601 -1.55502,-0.49953 -2.37667,-0.6335 l 0.003,-0.003 -0.67248,-3.82978 z m 1.35523,6.59413 c 5.27215,0 9.54796,4.27294 9.54796,9.54488 0,2.40457 -0.89152,4.59935 -2.35915,6.27754 0.0491,-0.37272 0.0336,-0.79443 -0.11235,-0.9372 l -3.4e-4,-3.4e-4 c -0.0898,-0.0425 -0.1784,-0.0914 -0.24685,-0.16457 0.1621,-0.20974 0.38527,-0.36322 0.60143,-0.51223 0.01,-0.0399 0.0304,-0.12018 0.0407,-0.1606 -0.34494,0.0365 -0.61658,0.26878 -0.92431,0.40184 -0.26686,0.0235 -0.9907,-0.64064 -1.56372,-0.86086 -0.17021,-0.0709 -0.20015,-0.26912 -0.25775,-0.42201 -0.15124,-0.10183 -0.31526,-0.18203 -0.4848,-0.24719 0.37912,-0.27173 0.76778,-0.54289 1.05054,-0.92068 0.22853,-0.68361 0.31433,-0.60092 0.35393,-1.42332 0.0349,-0.42674 -0.10262,-1.31416 -0.3503,-1.54559 -0.34058,-0.14392 -0.49951,-0.36222 -0.83078,-0.53073 0.18599,-0.17821 0.43847,-0.27471 0.6031,-0.47687 0.46995,-0.52499 0.56706,-1.52095 0.26832,-2.04658 -0.28873,-0.17102 -0.57293,-0.35467 -0.82614,-0.576 -0.0368,-0.0122 -0.10989,-0.0373 -0.14673,-0.0492 -0.006,-0.13373 0.0141,-0.26597 0.0407,-0.39689 -0.0124,0.0118 -0.0239,0.0225 0,-6.4e-4 4e-5,2.9e-4 -5e-5,3.7e-4 0,6.4e-4 0.003,0.0187 0.006,0.0356 3.4e-4,-3.4e-4 l 3.2e-4,-3.4e-4 -3.2e-4,-3.4e-4 c 0.0258,-0.0244 0.0132,-0.012 3.2e-4,3.4e-4 0.14836,0.0904 0.31552,-0.14124 0.30304,0.0251 0.0623,0.0387 0.12479,0.0763 0.18869,0.11369 0.009,-0.0797 0.0176,-0.15885 0.0261,-0.2386 0.13817,-0.23142 0.17269,-0.49791 0.14573,-0.76172 -0.19459,-0.13209 -0.39177,-0.25948 -0.59285,-0.38071 -0.12768,0.28396 -0.1413,0.61983 -0.33013,0.87343 -0.009,0.0225 -0.0268,0.0671 -0.0357,0.0896 0.005,0.11181 0.009,0.2237 0.0113,0.33576 -0.0462,0.01 -0.0926,0.02 -0.1388,0.0301 -0.42539,-0.31268 -0.59444,-0.37647 -0.78384,-0.52577 0.0192,-0.29851 0.16634,-0.85559 -0.0122,-1.25346 -0.19997,-0.10694 -1.31873,-0.79358 -1.38562,-0.82815 0.0328,-0.10101 0.0717,-0.2006 0.0846,-0.30601 3.4e-4,-0.003 -2e-5,-4.8e-4 3.4e-4,-0.003 0.002,0.002 0.002,0.003 0.004,0.004 0.0679,0.0604 0.34004,-0.63765 0.32286,-0.52941 v 3.4e-4 c 0.0558,0.0606 0.113,0.12013 0.16886,0.18076 -0.02,-0.21495 0.0555,-0.41823 0.12128,-0.61896 -0.12585,-0.18426 -0.1212,-0.42362 -0.26304,-0.59815 -0.10102,-0.0503 -0.19749,-0.10866 -0.29345,-0.16721 -0.0666,0.21337 -0.13317,0.42745 -0.20522,0.63912 -0.26306,0.23961 -0.12471,-0.13288 -0.2409,0.7994 -0.14362,0.0341 -0.27659,0.0981 -0.35591,0.22868 -0.61845,-0.29405 -1.2029,-0.65468 -1.81522,-0.96033 -0.0127,0.0372 -0.0385,0.11075 -0.0509,0.14805 0.2339,0.39189 0.53026,0.88401 0.22339,1.64043 -0.24842,0.93957 -0.62964,1.43069 -1.21445,1.87375 -0.18243,0.0904 -0.29712,0.21759 -0.33508,0.25082 -0.0132,-0.0423 -0.0367,-0.11386 -0.008,-0.0175 0.006,0.0165 0.004,0.0113 0.007,0.0185 -0.0155,0.0135 -0.0214,0.0141 -0.007,-0.0185 -0.19169,-0.12565 -0.38341,-0.25307 -0.56475,-0.39391 -0.1705,-0.33557 0.004,-0.69582 0.11797,-1.0195 -0.0159,0.004 -0.0308,0.008 6.5e-4,-0.002 0.005,-0.043 0.003,-0.0215 3.2e-4,0 0.0309,-0.007 0.0167,-0.003 0.001,0.001 0.10685,0.15426 0.26743,0.0531 0.37837,0.21249 0.04,0.0116 0.12005,0.0348 0.15962,0.0459 -10e-4,-0.0477 -0.003,-0.095 -0.004,-0.1421 0.0993,-0.15507 0.14955,-0.33295 0.20257,-0.50694 -0.0705,-0.13534 0.007,-0.37643 -0.0935,-0.4914 v -3.4e-4 c 0.0215,-0.0652 0.0439,-0.13047 0.0654,-0.19563 -0.0403,-0.22925 -0.19013,-0.40827 -0.35424,-0.56279 -0.0641,-0.0212 -0.12773,-0.0433 -0.19167,-0.0648 -0.086,0.39369 -0.23293,0.77122 -0.31164,1.16721 -0.0832,0.0451 -0.16618,0.0905 -0.24949,0.13615 -6.2e-4,0.0368 -0.003,0.10992 -0.004,0.14706 0.19705,0.22576 -0.0168,0.49961 -0.0598,0.74322 -0.10265,0.0193 -0.21659,0.0906 -0.31657,0.0251 -0.44507,-0.23323 -0.81442,-0.58191 -1.24849,-0.83443 0.0471,0.36494 0.3241,0.52303 0.50198,1.50064 0.19749,1.51622 -0.43007,2.72446 -1.27195,3.28286 -0.29474,-0.81281 -0.64032,-4.01918 -0.97816,-4.23956 -0.08,1.07253 0.21085,1.91345 -0.66092,5.71708 -0.2075,1.38345 -1.07456,1.98337 -1.61859,2.05319 0.0821,-0.15499 0.22605,-0.64906 0.37144,-0.73364 -0.001,-0.0682 -3.2e-4,-0.0343 6.3e-4,-3.4e-4 0.0851,-0.0616 0.16844,-0.1241 0.25314,-0.18638 -0.15334,-0.14002 -0.20148,-0.34433 -0.30469,-0.51652 -0.0212,0.0438 -0.40908,0.24638 -0.43026,0.29015 -0.0557,0.0207 -0.0285,0.0126 -3.4e-4,0.003 -0.004,0.0285 -0.0114,0.0806 -0.0155,0.10675 0.0265,0.21259 -0.13346,0.39037 -0.13911,0.60145 0.12439,0.26667 0.13205,0.18351 -0.25016,1.3721 -0.30563,-0.93466 -0.47289,-1.93174 -0.47289,-2.96859 0,-5.27226 4.27276,-9.54487 9.54467,-9.54487 z m -8.18484,10.84262 c -2.2e-4,1.4e-4 -4.5e-4,1.4e-4 -6.3e-4,3.4e-4 0.003,0.0682 0.002,0.0338 6.3e-4,-3.4e-4 z m 5.6829,-7.25904 c -2.9e-4,-4.2e-4 -6.4e-4,-5.6e-4 -0.001,-0.001 v -3.4e-4 h -3.2e-4 c -1.8e-4,5.1e-4 -1.4e-4,0.001 -3.4e-4,0.002 -0.004,0.0359 -0.001,0.0199 6.3e-4,0 4.7e-4,-1.3e-4 5.4e-4,-2e-4 9.9e-4,-3.4e-4 z m 4.39018,-1.4557 c -0.001,-0.001 -0.003,-4.6e-4 -0.004,-0.002 0.0196,0.0229 0.013,0.0134 0.004,0.002 z m -2.53265,2.72371 c 0.41013,0.008 0.79672,0.0758 1.06804,0.17217 -0.047,0.14697 -0.0819,0.29889 -0.15035,0.43787 -0.0687,0.0558 -0.14551,0.10233 -0.21909,0.15234 -0.0241,0.0712 -0.048,0.14296 -0.0707,0.21514 -0.094,-0.0809 -1.14461,-0.70393 -1.1553,-0.71018 -0.0628,-0.0721 -0.26366,-0.0866 -0.21611,-0.20819 0.24304,-0.0464 0.49745,-0.0637 0.74354,-0.0592 z m 1.5677,0.34236 c 0.0528,0.005 0.10551,0.009 0.1583,0.0129 0.10971,0.0481 0.22055,0.0924 0.33277,0.1345 l 0.97717,0.40681 c -0.0162,0.2582 -0.0666,0.51394 -0.21547,0.73033 -0.31193,0.26167 -0.60021,0.36554 -0.9223,0.14044 l -0.24653,-0.12194 c -0.001,-4.6e-4 -0.002,-0.001 -0.003,-0.002 l -0.4762,-0.23594 0.37045,-0.38368 c -0.0418,-0.0694 -0.0829,-0.1397 -0.12426,-0.20885 0.0503,-0.15761 0.0996,-0.31511 0.14937,-0.4729 z m 1.67676,1.6368 c 0.29415,0.005 0.64693,0.0666 0.89885,0.14607 l -0.1335,0.42365 c -0.0621,0.0334 -0.12331,0.0677 -0.18506,0.10179 -0.34851,-0.13111 -0.73767,-0.39985 -0.83342,-0.50793 0.0341,0.007 -0.0498,-0.15457 -0.0155,-0.14805 0.0791,-0.0125 0.17062,-0.0172 0.26867,-0.0155 z m 1.31721,0.37045 h 3.4e-4 c 0.13276,0.0745 0.26436,0.15182 0.39589,0.22836 0.14173,0.14559 0.19675,0.33868 0.23462,0.53271 -0.0446,0.14344 -0.13495,0.26335 -0.2409,0.36715 -0.22605,-0.14217 -0.27834,-0.17051 -0.41539,-0.25909 0.0205,-0.063 0.0414,-0.12583 0.0625,-0.1887 -0.0523,-0.0799 -0.10463,-0.15919 -0.15895,-0.23661 0.0395,-0.14872 0.0798,-0.29653 0.12196,-0.44382 z m -9.10318,1.36483 c 0.4961,0.0551 0.0409,-0.0187 0.64407,0.0985 -0.0659,0.27331 -0.14106,0.54416 -0.22407,0.81327 -0.0845,0.0533 -0.16976,0.11121 -0.27098,0.1279 -6.2e-4,-0.003 -0.18138,-0.91156 -0.18208,-0.91473 0.009,-0.031 0.0251,-0.0936 0.0331,-0.12492 z m 1.23194,0.19563 c 0.11028,0.0249 0.22161,0.0608 0.33641,0.0459 0.27889,0.0676 0.5573,0.14812 0.80865,0.2895 -0.30185,0.42466 -0.96443,0.35894 -1.41503,0.58228 0.05,-0.3146 0.18496,-0.61107 0.26997,-0.91771 z m -6.86199,0.5119 a 0.27167571,0.27168136 0 0 1 0.27164,0.27164 0.27167571,0.27168136 0 0 1 -0.27164,0.27165 0.27167571,0.27168136 0 0 1 -0.27163,-0.27165 0.27167571,0.27168136 0 0 1 0.27163,-0.27164 z m 21.63158,0 a 0.27167571,0.27168136 0 0 1 0.27163,0.27164 0.27167571,0.27168136 0 0 1 -0.27163,0.27165 0.27167571,0.27168136 0 0 1 -0.27164,-0.27165 0.27167571,0.27168136 0 0 1 0.27164,-0.27164 z m -13.40942,0.35327 c 0.23928,0.0235 0.22216,0.0262 0.42432,0.0105 0.53409,0.0136 0.84167,0.0765 1.111,0.0889 -0.1074,0.88212 -0.27605,0.85513 -0.44744,0.96892 -0.74811,-0.24575 -1.50459,-0.46722 -2.25076,-0.71909 0.34023,-0.23232 0.78468,-0.20341 1.16288,-0.34931 z m 2.11628,0.2072 c 0.27218,0.0772 0.53636,0.17705 0.80203,0.27495 l 0.51551,0.52743 c 0.0563,0.0167 0.11251,0.0325 0.16886,0.0489 0.0444,0.0859 0.0895,0.17163 0.13648,0.2571 -0.0476,0.16277 -0.42117,0.34344 -0.52839,0.47818 -0.42048,-0.11227 -0.9862,-0.52151 -1.34926,-0.76701 0.0799,-0.27501 0.16933,-0.54629 0.25477,-0.81956 z m -3.45695,0.21216 c 0.70501,0.83469 -0.0649,2.18196 -0.38597,2.55715 -0.0714,0.0802 -0.13873,0.16354 -0.19893,0.25281 -0.0676,0.0562 -0.13716,0.14996 -0.22175,0.0611 0.003,-0.0418 0.15105,-0.79251 -0.0456,-1.6953 0.0922,-0.31975 0.19743,-0.63582 0.29642,-0.95405 0.18798,-0.0675 0.36744,-0.15688 0.55582,-0.22175 z m 6.00941,0.72967 0.20589,0.0651 c -0.085,0.26971 -0.16888,0.53893 -0.25612,0.80733 h -3.4e-4 c -0.0661,0.0536 -0.13076,0.10815 -0.19497,0.16358 -0.26529,-0.12056 -0.59352,-0.0242 -0.79375,-0.25347 0.64126,-0.16411 0.82137,-0.53527 1.03929,-0.78255 z m 0.77494,0.23331 c 0.23017,0.14385 0.50692,0.20837 0.70356,0.40383 0.0243,0.0126 0.0739,0.0368 0.0988,0.0496 0.25306,0.24712 0.42383,0.56436 0.47884,0.91506 -0.0167,0.0581 -0.0329,0.11641 -0.0496,0.17514 -0.0792,0.0581 -0.15976,0.11566 -0.24124,0.17119 -0.20441,-0.10874 -0.44687,-0.1408 -0.63018,-0.28718 -0.14139,-0.0569 -0.29068,-0.0933 -0.42861,-0.1573 -0.0528,-0.1643 -0.14668,-0.30953 -0.21877,-0.46331 0.005,-0.29068 0.20234,-0.53598 0.28717,-0.807 z m -10.51855,0.76867 c 0.89051,-0.0253 1.86433,0.26859 1.98411,0.49867 -0.10812,0.39165 -0.23082,0.78091 -0.37476,1.16126 -0.49772,-0.10368 -2.13569,-1.32856 -2.43747,-1.51387 0.24356,-0.0935 0.53129,-0.13762 0.82812,-0.14606 z m 3.6787,1.68439 c 0.56561,-0.008 1.21593,0.12109 1.71476,0.31922 -0.20229,0.65097 -0.41143,1.2993 -0.61433,1.95009 -0.14269,-0.045 -0.28541,-0.0898 -0.42827,-0.13417 -0.0563,-0.11987 -0.11203,-0.23957 -0.16688,-0.36021 -0.21525,-0.0569 -1.05141,-0.36883 -1.15827,-0.56278 -0.11458,-0.16531 0.003,-0.3607 -0.0129,-0.5423 -0.0833,-0.0361 -0.18353,-0.0468 -0.25247,-0.10905 0.0135,-0.12862 0.0407,-0.25547 0.0427,-0.38466 0.22734,-0.11756 0.53635,-0.17148 0.87572,-0.17614 z m -2.30363,0.61731 a 1.9209265,0.3220329 29.94288 0 0 0.004,0.002 c -0.002,0.001 -0.004,0.003 -0.006,0.005 4.9e-4,-0.003 9.9e-4,-0.004 0.002,-0.007 z m 4.68658,0.24719 c 0.32031,0.004 0.8487,0.10136 0.98212,0.1345 0.31543,-0.0192 1.62414,0.40429 1.63578,0.40746 -0.0512,0.57015 -0.31614,1.09389 -0.45373,1.6454 -0.37317,0.12398 -2.68243,-0.52868 -2.83699,-0.58592 -0.0223,-0.23728 0.43514,-1.54523 0.44414,-1.5684 0.0382,-0.0253 0.12191,-0.0343 0.22868,-0.0331 z m 3.28674,0.82286 c 0.45043,0.0916 0.74599,0.27682 1.11134,0.52511 -0.0126,0.0348 -0.0386,0.10297 -0.0512,0.13714 -0.44993,0.29923 -0.91539,0.59903 -1.45436,0.70654 -3.4e-4,-0.24743 0.18369,-1.02954 0.31065,-1.32252 0.0209,-0.012 0.0628,-0.0351 0.0836,-0.0463 z m 2.48275,1.34203 c 0.17264,0.0819 0.35021,0.15622 0.51883,0.24718 0.0425,0.023 0.0848,0.0461 0.12591,0.0717 0.0258,0.0549 0.0521,0.10935 0.079,0.16458 -2e-5,6.4e-4 3e-5,0.002 0,0.003 l 0.27924,0.592193 c 3.3e-4,-5.1e-5 6.4e-4,-3.39e-4 0.001,-3.39e-4 -1.00119,0.64551 -2.12995,1.109167 -3.34129,1.343682 0.57752,-0.60755 1.34899,-1.172068 1.7607,-1.303029 l 0.13483,-0.411763 c 3.2e-4,-0.0013 6.4e-4,-0.0026 0.001,-0.0038 0.0299,-0.0972 0.0601,-0.194374 0.0889,-0.291804 -0.0253,-0.0799 -0.0489,-0.16039 -0.0711,-0.24058 0.14916,-0.036 0.29051,-0.0928 0.42266,-0.17052 z"
       id="path77"
       inkscape:connector-curvature="0"
       sodipodi:insensitive="true" />
    <circle
       style="display:inline;fill:#ffffff;fill-opacity:0;stroke:none;stroke-width:0;stroke-miterlimit:4;stroke-dasharray:none;stroke-opacity:1"
       id="path63"
       cx="-63.497795"
       cy="124.75445"
       r="10.384896"
       transform="rotate(-167.10736)"
       sodipodi:insensitive="true" />
    <g
       aria-label="SAN LEANDRO HIGH MAKERS CLUB"
       style="font-style:normal;font-variant:normal;font-weight:600;font-stretch:normal;font-size:4.23333311px;line-height:1.25;font-family:Raleway;-inkscape-font-specification:'Raleway Semi-Bold';font-variant-ligatures:normal;font-variant-caps:normal;font-variant-numeric:normal;font-feature-settings:normal;text-align:start;letter-spacing:0px;word-spacing:0px;writing-mode:lr-tb;text-anchor:start;fill:#ffffff;fill-opacity:1;stroke:none;stroke-width:0.26458332"
       id="text924">
      <path
         d="m 78.980437,-110.75643 q -0.02107,0.0106 -0.04747,0.0346 -0.02794,0.0236 -0.05578,0.0587 -0.02742,0.0336 -0.05126,0.078 -0.02342,0.0429 -0.03698,0.0919 -0.03008,0.10863 -0.0047,0.17166 0.0258,0.0615 0.09617,0.081 0.03978,0.011 0.07002,0.003 0.02914,-0.01 0.05835,-0.0382 0.02768,-0.0286 0.05696,-0.0748 0.02775,-0.0467 0.06322,-0.10934 0.04277,-0.0771 0.08546,-0.13611 0.04312,-0.0605 0.09102,-0.0967 0.0479,-0.0362 0.106695,-0.0462 0.05769,-0.012 0.131126,0.008 0.08261,0.0229 0.133385,0.0715 0.05119,0.0471 0.07419,0.11279 0.02189,0.0637 0.02034,0.1407 -0.0031,0.0766 -0.02596,0.15919 -0.03432,0.12392 -0.103234,0.23003 -0.07002,0.10415 -0.167774,0.17756 l -0.125265,-0.1187 q 0.0254,-0.0144 0.06004,-0.0443 0.03507,-0.0315 0.07005,-0.0745 0.03387,-0.045 0.06527,-0.0989 0.02987,-0.0543 0.04724,-0.11705 0.02796,-0.10098 0.008,-0.1658 -0.01994,-0.0648 -0.08878,-0.0839 -0.04131,-0.0114 -0.07478,0.002 -0.03305,0.0123 -0.06353,0.045 -0.03201,0.0323 -0.06409,0.0827 -0.03208,0.0504 -0.06993,0.11571 -0.04387,0.0752 -0.08377,0.13 -0.041,0.0529 -0.08568,0.0833 -0.04467,0.0305 -0.09497,0.0396 -0.05141,0.007 -0.115662,-0.0106 -0.07956,-0.022 -0.132279,-0.0696 -0.05425,-0.048 -0.08116,-0.11142 -0.02801,-0.0654 -0.02952,-0.14325 -0.0015,-0.0778 0.0218,-0.16198 0.0305,-0.11016 0.09154,-0.19374 0.06103,-0.0836 0.132538,-0.13955 z"
         style="font-size:1.58749998px;letter-spacing:0.0396875px"
         id="path23"
         inkscape:connector-curvature="0" />
      <path
         d="m 78.978956,-111.55441 0.0564,-0.145 1.211594,-0.006 -0.06791,0.17459 -0.328708,-1.1e-4 -0.15768,0.40539 0.242963,0.22055 -0.06848,0.17607 z m 0.735915,0.009 -0.516858,-0.007 0.383348,0.3501 z"
         style="font-size:1.58749998px;letter-spacing:0.0396875px"
         id="path25"
         inkscape:connector-curvature="0" />
      <path
         d="m 79.70542,-112.39717 0.70197,0.37051 -0.083,0.15724 -0.996797,-0.52612 0.06521,-0.12355 1.019671,-0.1906 -0.717413,-0.37866 0.08374,-0.15864 0.995393,0.52538 -0.06891,0.13057 z"
         style="font-size:1.58749998px;letter-spacing:0.0396875px"
         id="path27"
         inkscape:connector-curvature="0" />
      <path
         d="m 81.169237,-113.33061 -0.907214,-0.66886 0.10551,-0.14311 0.780715,0.5756 0.358923,-0.48683 0.126499,0.0933 z"
         style="font-size:1.58749998px;letter-spacing:0.0396875px"
         id="path29"
         inkscape:connector-curvature="0" />
      <path
         d="m 82.152307,-114.78177 0.117086,0.10484 -0.515715,0.57597 -0.839709,-0.75187 0.506185,-0.56532 0.117086,0.10484 -0.387581,0.43286 0.238903,0.21391 0.335692,-0.37491 0.10999,0.0985 -0.335692,0.37491 0.256643,0.2298 z"
         style="font-size:1.58749998px;letter-spacing:0.0396875px"
         id="path31"
         inkscape:connector-curvature="0" />
      <path
         d="m 81.914559,-115.89307 0.114996,-0.10478 1.087705,0.53375 -0.138464,0.12617 -0.294366,-0.14628 -0.321518,0.29296 0.119526,0.3056 -0.139637,0.12723 z m 0.65531,0.33499 -0.459883,-0.23601 0.187649,0.48407 z"
         style="font-size:1.58749998px;letter-spacing:0.0396875px"
         id="path33"
         inkscape:connector-curvature="0" />
      <path
         d="m 82.939245,-116.32442 0.46462,0.64356 -0.144157,0.10407 -0.65976,-0.91385 0.113266,-0.0818 0.99834,0.28173 -0.474841,-0.65772 0.145444,-0.105 0.658831,0.91256 -0.119702,0.0864 z"
         style="font-size:1.58749998px;letter-spacing:0.0396875px"
         id="path35"
         inkscape:connector-curvature="0" />
      <path
         d="m 84.291482,-116.29762 -0.548986,-0.98439 0.349389,-0.19485 q 0.119237,-0.0665 0.229621,-0.0772 0.11177,-0.0114 0.208503,0.0219 0.09812,0.0325 0.17888,0.10564 0.07999,0.0717 0.136433,0.17293 0.06263,0.11231 0.079,0.22314 0.01698,0.10868 -0.0091,0.20864 -0.02682,0.0986 -0.09545,0.18411 -0.0694,0.0841 -0.178934,0.14523 z m 0.395783,-0.86782 q -0.0433,-0.0776 -0.101825,-0.13044 -0.05714,-0.0536 -0.124248,-0.0761 -0.06788,-0.0239 -0.142193,-0.017 -0.07431,0.007 -0.150565,0.0494 l -0.194105,0.10825 0.395889,0.70987 0.194105,-0.10825 q 0.07764,-0.0433 0.122569,-0.10289 0.04554,-0.0618 0.05946,-0.13132 0.01453,-0.0717 -0.001,-0.14848 -0.01555,-0.0768 -0.05807,-0.15302 z"
         style="font-size:1.58749998px;letter-spacing:0.0396875px"
         id="path37"
         inkscape:connector-curvature="0" />
      <path
         d="m 85.329018,-116.85522 -0.439099,-1.03807 0.451782,-0.1911 q 0.07018,-0.0297 0.141032,-0.0252 0.07231,0.004 0.135123,0.0342 0.06219,0.0288 0.111559,0.0804 0.05021,0.0494 0.0768,0.1123 0.02227,0.0526 0.02805,0.10707 0.0058,0.0544 -0.0032,0.1065 -0.009,0.0521 -0.03403,0.0988 -0.02564,0.0453 -0.06479,0.0791 l 0.411149,0.29148 -0.185684,0.0785 -0.377917,-0.26589 -0.239781,0.10142 0.152757,0.36114 z m -0.05023,-0.57514 0.286568,-0.12122 q 0.03509,-0.0148 0.05669,-0.0412 0.02244,-0.0285 0.03177,-0.0634 0.0087,-0.0364 0.0056,-0.0765 -0.0031,-0.04 -0.01985,-0.0795 -0.0167,-0.0395 -0.04616,-0.0684 -0.028,-0.0295 -0.06253,-0.046 -0.03306,-0.017 -0.06995,-0.0187 -0.03604,-0.004 -0.06821,0.01 l -0.277795,0.11751 z"
         style="font-size:1.58749998px;letter-spacing:0.0396875px"
         id="path39"
         inkscape:connector-curvature="0" />
      <path
         d="m 86.787261,-117.39347 q -0.115663,0.0343 -0.225093,0.0171 -0.108359,-0.0192 -0.199427,-0.0749 -0.09152,-0.0573 -0.158927,-0.14493 -0.06588,-0.0881 -0.0966,-0.19157 -0.03207,-0.10805 -0.02186,-0.21872 0.01021,-0.11066 0.05611,-0.20708 0.04742,-0.0969 0.128682,-0.16901 0.08233,-0.0741 0.194948,-0.10754 0.115664,-0.0343 0.224474,-0.0136 0.109881,0.0187 0.19988,0.0765 0.09152,0.0573 0.157404,0.14537 0.06695,0.0861 0.09722,0.18808 0.03207,0.10805 0.02186,0.21872 -0.0087,0.11021 -0.05611,0.20708 -0.04787,0.0954 -0.130203,0.16946 -0.08126,0.0721 -0.192357,0.10511 z m -0.50655,-0.4458 q 0.02258,0.0761 0.06816,0.1404 0.04558,0.0643 0.105974,0.10599 0.06192,0.0412 0.135773,0.0557 0.07341,0.013 0.152543,-0.0105 0.08218,-0.0244 0.134643,-0.0764 0.05353,-0.054 0.08095,-0.12338 0.02742,-0.0694 0.02947,-0.14619 0.0021,-0.0768 -0.01963,-0.14983 -0.02303,-0.0776 -0.06816,-0.1404 -0.04558,-0.0643 -0.107045,-0.10402 -0.06039,-0.0417 -0.133799,-0.0547 -0.07233,-0.015 -0.149951,0.008 -0.08218,0.0244 -0.135713,0.0784 -0.05398,0.0524 -0.08186,0.12034 -0.02787,0.0679 -0.031,0.14664 -0.0021,0.0768 0.01963,0.14983 z"
         style="font-size:1.58749998px;letter-spacing:0.0396875px"
         id="path41"
         inkscape:connector-curvature="0" />
      <path
         d="m 88.720371,-118.92108 0.144195,1.11787 -0.177914,0.023 -0.06357,-0.49281 -0.563655,0.0727 0.06357,0.4928 -0.176339,0.0228 -0.144195,-1.11786 0.176339,-0.0227 0.06032,0.46761 0.563655,-0.0727 -0.06032,-0.46762 z"
         style="font-size:1.58749998px;letter-spacing:0.0396875px"
         id="path43"
         inkscape:connector-curvature="0" />
      <path
         d="m 89.157389,-117.81344 -0.05223,-1.12592 0.177609,-0.008 0.05223,1.12591 z"
         style="font-size:1.58749998px;letter-spacing:0.0396875px"
         id="path45"
         inkscape:connector-curvature="0" />
      <path
         d="m 90.421191,-117.95075 q -0.147761,0.14274 -0.333393,0.1365 -0.112649,-0.004 -0.207883,-0.0531 -0.09518,-0.0508 -0.163907,-0.13259 -0.06873,-0.0817 -0.106453,-0.18783 -0.03614,-0.10605 -0.03229,-0.22029 0.0038,-0.11424 0.04698,-0.21603 0.04472,-0.10174 0.118737,-0.17708 0.07401,-0.0753 0.173879,-0.11645 0.09992,-0.0427 0.21574,-0.0388 0.161833,0.005 0.269012,0.0773 0.107233,0.0703 0.159025,0.18326 l -0.139759,0.0938 q -0.04291,-0.0936 -0.122282,-0.1423 -0.07937,-0.0487 -0.17615,-0.052 -0.07933,-0.003 -0.145556,0.0301 -0.06617,0.0311 -0.114106,0.0867 -0.04788,0.054 -0.07578,0.1277 -0.02631,0.0738 -0.02903,0.15469 -0.0029,0.0857 0.02158,0.16115 0.02605,0.0755 0.07178,0.13267 0.04732,0.0572 0.112831,0.0927 0.06557,0.034 0.143313,0.0366 0.08568,0.003 0.164755,-0.0342 0.08066,-0.037 0.154946,-0.12027 l 0.0041,-0.12058 -0.236403,-0.008 0.0044,-0.13169 0.385544,0.013 -0.01917,0.56959 -0.149141,-0.005 z"
         style="font-size:1.58749998px;letter-spacing:0.0396875px"
         id="path47"
         inkscape:connector-curvature="0" />
      <path
         d="m 91.890613,-118.759 -0.167374,1.11463 -0.177398,-0.0266 0.07379,-0.49138 -0.562023,-0.0844 -0.07379,0.49137 -0.175829,-0.0264 0.167374,-1.11463 0.175828,0.0264 -0.07001,0.46626 0.562024,0.0844 0.07001,-0.46626 z"
         style="font-size:1.58749998px;letter-spacing:0.0396875px"
         id="path49"
         inkscape:connector-curvature="0" />
      <path
         d="m 93.331196,-117.19173 0.251667,-0.77119 -0.509032,0.48013 -0.09357,-0.0305 -0.129348,-0.68846 -0.251666,0.77119 -0.169028,-0.0552 0.349674,-1.07152 0.181101,0.0591 0.140911,0.77072 0.5684,-0.53924 0.1811,0.0591 -0.349673,1.07151 z"
         style="font-size:1.58749998px;letter-spacing:0.0396875px"
         id="path51"
         inkscape:connector-curvature="0" />
      <path
         d="m 94.549157,-117.90011 0.140927,0.0659 -0.07483,1.20929 -0.169687,-0.0794 0.02194,-0.32798 -0.394018,-0.18426 -0.236205,0.22777 -0.171124,-0.08 z m -0.05746,0.73372 0.04118,-0.51526 -0.374798,0.35924 z"
         style="font-size:1.58749998px;letter-spacing:0.0396875px"
         id="path53"
         inkscape:connector-curvature="0" />
      <path
         d="m 94.77211,-116.53354 0.582665,-0.96299 0.152121,0.0921 -0.299961,0.49575 0.754431,-0.22263 0.16842,0.10191 -0.638352,0.19637 0.0766,0.78112 -0.169779,-0.10273 -0.05724,-0.64137 -0.240912,0.0639 -0.175867,0.29066 z"
         style="font-size:1.58749998px;letter-spacing:0.0396875px"
         id="path55"
         inkscape:connector-curvature="0" />
      <path
         d="m 96.406031,-115.61641 -0.09451,0.12556 -0.617687,-0.46493 0.677832,-0.90053 0.606272,0.45634 -0.09451,0.12557 -0.464217,-0.34942 -0.192848,0.25621 0.402067,0.30264 -0.08879,0.11795 -0.402068,-0.30264 -0.207168,0.27524 z"
         style="font-size:1.58749998px;letter-spacing:0.0396875px"
         id="path57"
         inkscape:connector-curvature="0" />
      <path
         d="m 96.483622,-115.34552 0.764968,-0.82779 0.360263,0.33292 q 0.05596,0.0517 0.08105,0.11813 0.02625,0.0675 0.02451,0.13721 -6.66e-4,0.0686 -0.02726,0.13476 -0.02435,0.0661 -0.07068,0.11626 -0.03879,0.042 -0.086,0.0697 -0.04721,0.0277 -0.09837,0.0409 -0.05115,0.0132 -0.104093,0.01 -0.05186,-0.005 -0.09878,-0.0264 l -0.0962,0.49472 -0.14807,-0.13683 0.08657,-0.4539 -0.191207,-0.1767 -0.266123,0.28798 z m 0.503368,-0.28273 0.228517,0.21117 q 0.02798,0.0259 0.06091,0.0347 0.03517,0.009 0.07089,0.003 0.03679,-0.007 0.07198,-0.0264 0.03519,-0.0194 0.06428,-0.0508 0.02909,-0.0315 0.04329,-0.0702 0.01537,-0.0377 0.0161,-0.0759 0.0019,-0.0372 -0.0118,-0.0714 -0.01147,-0.0344 -0.03712,-0.0581 l -0.221521,-0.20471 z"
         style="font-size:1.58749998px;letter-spacing:0.0396875px"
         id="path59"
         inkscape:connector-curvature="0" />
      <path
         d="m 98.358505,-114.66628 q 0.0026,-0.0235 -0.0031,-0.0587 -0.0045,-0.0363 -0.01877,-0.0788 -0.0132,-0.0413 -0.03747,-0.0855 -0.02322,-0.043 -0.05686,-0.0811 -0.07465,-0.0845 -0.141324,-0.0976 -0.06562,-0.0119 -0.120333,0.0365 -0.03092,0.0273 -0.04063,0.0571 -0.0075,0.0299 2.05e-4,0.0697 0.0089,0.0388 0.03166,0.0885 0.02399,0.0487 0.05717,0.11261 0.04131,0.0779 0.0675,0.14586 0.02723,0.0692 0.03142,0.12902 0.0042,0.0599 -0.01943,0.11464 -0.02137,0.0549 -0.07847,0.10539 -0.06423,0.0568 -0.132694,0.0728 -0.06741,0.0172 -0.135001,6.9e-4 -0.06535,-0.0164 -0.129035,-0.0597 -0.0625,-0.0443 -0.119278,-0.10856 -0.08517,-0.0963 -0.136528,-0.21197 -0.04912,-0.11549 -0.05736,-0.23746 l 0.167804,-0.0403 q -0.0018,0.0291 0.0044,0.0745 0.0073,0.0466 0.02425,0.0993 0.01923,0.0529 0.0473,0.10863 0.02925,0.0547 0.07236,0.10342 0.06939,0.0785 0.134602,0.0971 0.06521,0.0186 0.11873,-0.0287 0.03211,-0.0284 0.0388,-0.064 0.0077,-0.0344 -0.0031,-0.0778 -0.0096,-0.0444 -0.0344,-0.0988 -0.02477,-0.0544 -0.05886,-0.12171 -0.03907,-0.0778 -0.06329,-0.1411 -0.02198,-0.0632 -0.02315,-0.11727 -0.0012,-0.0541 0.0186,-0.1012 0.02201,-0.047 0.07197,-0.0912 0.06185,-0.0547 0.130453,-0.073 0.06979,-0.0193 0.137656,-0.007 0.0701,0.0122 0.136172,0.0534 0.06607,0.0412 0.123897,0.1066 0.0757,0.0856 0.112484,0.18237 0.03678,0.0967 0.04471,0.1872 z"
         style="font-size:1.58749998px;letter-spacing:0.0396875px"
         id="path61"
         inkscape:connector-curvature="0" />
      <path
         d="m 98.627429,-113.85762 q 0.08496,-0.0557 0.188621,-0.08 0.104984,-0.0252 0.209664,-0.0103 0.106877,0.0153 0.203743,0.0733 0.09687,0.058 0.167375,0.16551 0.08444,0.12877 0.08742,0.2578 0.003,0.12904 -0.05815,0.23556 l -0.154929,-0.0655 q 0.02942,-0.0478 0.04035,-0.0948 0.01093,-0.047 0.0064,-0.0915 -0.0045,-0.0445 -0.02137,-0.0847 -0.01554,-0.0411 -0.0373,-0.0743 -0.04875,-0.0743 -0.115842,-0.11008 -0.06577,-0.0366 -0.140131,-0.0429 -0.07349,-0.005 -0.147618,0.0152 -0.07325,0.0215 -0.134322,0.0615 -0.06903,0.0453 -0.116629,0.10874 -0.0476,0.0635 -0.06928,0.13465 -0.02081,0.0725 -0.01345,0.1474 0.0087,0.074 0.05221,0.14041 0.02263,0.0345 0.0541,0.0651 0.03367,0.0311 0.07402,0.0521 0.04255,0.0215 0.09003,0.0302 0.04836,0.0101 0.101699,0.002 l 0.01059,0.1696 q -0.0679,0.0122 -0.13604,-0.002 -0.06681,-0.015 -0.12864,-0.0485 -0.06183,-0.0335 -0.114732,-0.0823 -0.05204,-0.0475 -0.08859,-0.10327 -0.06529,-0.0996 -0.07677,-0.20973 -0.01149,-0.11016 0.01704,-0.2143 0.02986,-0.105 0.09439,-0.19477 0.06586,-0.0906 0.156131,-0.14984 z"
         style="font-size:1.58749998px;letter-spacing:0.0396875px"
         id="path64"
         inkscape:connector-curvature="0" />
      <path
         d="m 98.788911,-112.53311 0.997831,-0.52416 0.08268,0.15741 -0.858696,0.45107 0.281275,0.53546 -0.139135,0.0731 z"
         style="font-size:1.58749998px;letter-spacing:0.0396875px"
         id="path66"
         inkscape:connector-curvature="0" />
      <path
         d="m 99.51641,-111.35753 q 0.03311,0.0825 0.08739,0.12401 0.05429,0.0415 0.118859,0.0532 0.06664,0.0126 0.138256,-7.4e-4 0.07368,-0.0125 0.144405,-0.0408 l 0.5304,-0.21282 0.0668,0.16648 -0.53039,0.21283 q -0.107559,0.0431 -0.213375,0.0565 -0.104342,0.0128 -0.198409,-0.0127 -0.09259,-0.0261 -0.168725,-0.0965 -0.07554,-0.0689 -0.124019,-0.18971 -0.05025,-0.12523 -0.0424,-0.2293 0.0099,-0.10319 0.06082,-0.1852 0.05238,-0.0826 0.137216,-0.14401 0.08483,-0.0614 0.186492,-0.1022 l 0.53039,-0.21282 0.0662,0.16501 -0.530397,0.21283 q -0.07219,0.029 -0.134644,0.0694 -0.06039,0.0413 -0.100421,0.095 -0.03797,0.0546 -0.04851,0.1221 -0.0085,0.0684 0.02404,0.14943 z"
         style="font-size:1.58749998px;letter-spacing:0.0396875px"
         id="path68"
         inkscape:connector-curvature="0" />
      <path
         d="m 100.15607,-109.80767 q -0.0658,0.0181 -0.12544,0.005 -0.0592,-0.0117 -0.108576,-0.0475 -0.04742,-0.0347 -0.08418,-0.0904 -0.03522,-0.0562 -0.05418,-0.12504 l -0.142846,-0.51886 1.086692,-0.29918 0.15423,0.56019 q 0.0156,0.0566 0.004,0.10929 -0.0118,0.0526 -0.0428,0.0957 -0.0294,0.0427 -0.0753,0.0734 -0.0439,0.0319 -0.0944,0.0458 -0.0796,0.0219 -0.16137,-3e-5 -0.0798,-0.0208 -0.13415,-0.0866 -0.002,0.10094 -0.0606,0.17474 -0.0568,0.0749 -0.16084,0.10356 z m -0.0163,-0.18486 q 0.0337,-0.009 0.0609,-0.0299 0.0277,-0.0191 0.0452,-0.0454 0.0179,-0.0247 0.0241,-0.056 0.006,-0.0313 -0.003,-0.0635 l -0.0986,-0.35815 -0.332132,0.0914 0.09565,0.34744 q 0.0093,0.0337 0.02952,0.0594 0.02178,0.0253 0.04911,0.0408 0.0289,0.0151 0.0613,0.0193 0.034,0.004 0.0677,-0.005 z m 0.48652,-0.67896 -0.31988,0.0881 0.0868,0.31529 q 0.009,0.0321 0.0283,0.0548 0.0198,0.0242 0.0452,0.0386 0.0273,0.0155 0.0594,0.0182 0.0324,0.004 0.0677,-0.005 0.0704,-0.0194 0.10384,-0.0714 0.035,-0.0524 0.0181,-0.11365 z"
         style="font-size:1.58749998px;letter-spacing:0.0396875px"
         id="path70"
         inkscape:connector-curvature="0" />
    </g>
  </g>
</svg>
