<?xml version="1.0" encoding="UTF-8" standalone="no"?>
<svg
   xmlns:dc="http://purl.org/dc/elements/1.1/"
   xmlns:cc="http://creativecommons.org/ns#"
   xmlns:rdf="http://www.w3.org/1999/02/22-rdf-syntax-ns#"
   xmlns:svg="http://www.w3.org/2000/svg"
   xmlns="http://www.w3.org/2000/svg"
   style="enable-background:new"
   id="svg8"
   version="1.1"
   viewBox="0 0 50.4764 50.476431"
   height="1.9872611in"
   width="1.9872599in">
  <defs
     id="defs2" />
  <metadata
     id="metadata5">
    <rdf:RDF>
      <cc:Work
         rdf:about="">
        <dc:format>image/svg+xml</dc:format>
        <dc:type
           rdf:resource="http://purl.org/dc/dcmitype/StillImage" />
        <dc:title></dc:title>
      </cc:Work>
    </rdf:RDF>
  </metadata>
  <g
     transform="translate(-73.59244,-105.34254)"
     id="layer3">
    <path
       id="path77"
       transform="matrix(0.26458333,0,0,0.26458333,73.59244,105.34254)"
       d="m 87.378906,0.00195313 -3.974609,22.63281287 0.01563,0.01563 C 78.562259,23.44421 73.86194,24.71595 69.373052,26.410161 v -0.01367 L 54.625,8.7734375 40.761719,16.78125 l 7.871093,21.582031 0.03125,0.01563 c -3.758175,3.085191 -7.20385,6.541096 -10.287109,10.300782 L 38.363281,48.634766 16.78125,40.761719 8.7714844,54.625 26.394531,69.390625 c -1.691285,4.485014 -2.9518,9.176497 -3.74414,14.029297 L 22.634766,83.40625 0,87.378906 v 16.017574 l 22.634766,3.97461 0.01563,-0.0156 c 0.79234,4.8528 2.052855,9.54578 3.74414,14.03125 l -17.6230466,14.76367 8.0097656,13.86328 21.582031,-7.87109 0.01367,-0.0469 c 3.083259,3.75969 6.528934,7.21804 10.287109,10.30274 l -0.03125,0.0137 -7.871093,21.58203 13.863281,8.00977 14.748047,-17.62305 v -0.0156 c 4.488888,1.69422 9.189207,2.96795 14.046875,3.76172 l -0.01563,0.0137 3.974609,22.63672 h 16.001956 l 3.97461,-22.63672 -0.0156,-0.0137 c 4.85621,-0.79185 9.55801,-2.05483 14.04688,-3.74609 l 14.76367,17.62305 13.86328,-8.00782 -7.88672,-21.58203 c 3.74986,-3.07736 7.19314,-6.52257 10.27149,-10.27148 l 21.5957,7.87109 7.99414,-13.86133 -17.60742,-14.76562 c 1.69175,-4.48596 2.96744,-9.17796 3.75976,-14.03125 l 22.63672,-3.95703 V 87.378906 L 168.14062,83.40625 c -0.79281,-4.848378 -2.06993,-9.534542 -3.75976,-14.015625 L 181.98828,54.625 l -7.99414,-13.861328 -21.5957,7.871094 c -3.07835,-3.748914 -6.52159,-7.194118 -10.27149,-10.271485 L 150.01367,16.78125 136.15039,8.7734375 121.38672,26.396484 c -4.48895,-1.690431 -9.19067,-2.952329 -14.04688,-3.74414 l 0.0156,-0.01563 -3.97461,-22.63476587 z M 95.388672,38.974609 c 31.160128,0 56.431638,25.253911 56.431638,56.41211 0,14.211541 -5.2691,27.183081 -13.94336,37.101561 0.28985,-2.20287 0.19872,-4.69523 -0.66406,-5.53906 l -0.002,-0.002 c -0.53085,-0.25108 -1.05439,-0.5401 -1.45899,-0.97266 0.95811,-1.23957 2.27713,-2.14668 3.55469,-3.02734 0.059,-0.23585 0.17938,-0.71028 0.24024,-0.94922 -2.03864,0.21543 -3.64415,1.58859 -5.4629,2.375 -1.57723,0.13908 -5.85535,-3.78634 -9.24218,-5.08789 -1.006,-0.41893 -1.18291,-1.5905 -1.52344,-2.49414 -0.89382,-0.60186 -1.86324,-1.07585 -2.86524,-1.46094 2.2407,-1.60596 4.53783,-3.20861 6.20899,-5.44141 1.35065,-4.04028 1.85781,-3.55152 2.0918,-8.41211 0.20636,-2.522093 -0.60643,-7.766952 -2.07032,-9.134763 -2.01301,-0.850583 -2.95232,-2.140776 -4.91015,-3.136719 1.09927,-1.053203 2.59149,-1.623537 3.56445,-2.818359 2.77758,-3.102803 3.35151,-8.989158 1.58594,-12.095703 -1.70657,-1.010759 -3.38631,-2.096203 -4.88281,-3.404297 -0.21733,-0.07219 -0.64945,-0.220717 -0.86719,-0.291016 -0.0339,-0.790378 0.0836,-1.571946 0.24023,-2.345703 -0.0734,0.07005 -0.14125,0.132613 0,-0.0039 2.5e-4,0.0017 -2.5e-4,0.0022 0,0.0039 0.0163,0.110442 0.0322,0.210144 0.002,-0.002 l 0.002,-0.002 -0.002,-0.002 c 0.15288,-0.144378 0.078,-0.07095 0.002,0.002 0.87684,0.53454 1.8648,-0.834805 1.79101,0.148437 0.36813,0.228662 0.73759,0.451037 1.11524,0.671875 0.0503,-0.471231 0.10403,-0.938811 0.1543,-1.410156 0.81664,-1.367773 1.02067,-2.942785 0.86132,-4.501953 -1.15007,-0.780662 -2.31543,-1.533515 -3.5039,-2.25 -0.75462,1.678223 -0.83512,3.6633 -1.95117,5.162109 -0.0514,0.132662 -0.15841,0.396825 -0.21094,0.529297 0.0302,0.660813 0.0532,1.322089 0.0664,1.984375 -0.27326,0.05896 -0.54712,0.118403 -0.82031,0.177734 -2.51422,-1.847993 -3.51335,-2.225015 -4.63281,-3.107421 0.11376,-1.764246 0.98318,-5.056702 -0.0723,-7.408203 -1.18189,-0.632013 -7.79415,-4.690173 -8.18945,-4.894532 0.19389,-0.596976 0.42354,-1.185576 0.5,-1.808594 0.002,-0.01354 -7e-5,-0.0028 0.002,-0.01562 0.01,0.01185 0.0124,0.01574 0.0215,0.02734 0.40168,0.356919 2.00979,-3.768628 1.9082,-3.128906 v 0.002 c 0.33002,0.358316 0.66781,0.710032 0.99805,1.06836 -0.1183,-1.270375 0.32807,-2.47181 0.7168,-3.658204 -0.74382,-1.088995 -0.71639,-2.503685 -1.55469,-3.535156 -0.59709,-0.297449 -1.16718,-0.642228 -1.73438,-0.988281 -0.39375,1.261077 -0.78701,2.52632 -1.21289,3.777344 -1.55478,1.416151 -0.73705,-0.785337 -1.42383,4.724609 -0.84884,0.201449 -1.6347,0.579563 -2.10351,1.351562 -3.655269,-1.737895 -7.109514,-3.869318 -10.728518,-5.675781 -0.07525,0.219969 -0.227382,0.65454 -0.300781,0.875 1.382449,2.31617 3.134029,5.224699 1.320313,9.695313 -1.468203,5.553071 -3.721274,8.455655 -7.177735,11.074218 -1.078247,0.534558 -1.756103,1.286016 -1.980468,1.482422 -0.07783,-0.24966 -0.216855,-0.672944 -0.04492,-0.103515 0.03301,0.09754 0.02389,0.06641 0.03906,0.109375 -0.09192,0.07959 -0.126151,0.08333 -0.03906,-0.109375 -1.132936,-0.74264 -2.266032,-1.495722 -3.337891,-2.328125 -1.007666,-1.983285 0.02748,-4.11243 0.697266,-6.025391 -0.09369,0.0254 -0.182347,0.04618 0.0039,-0.01172 0.02929,-0.254381 0.01548,-0.127034 0.002,0 0.182651,-0.04301 0.09849,-0.01769 0.0059,0.0078 0.631451,0.911735 1.580603,0.313761 2.236329,1.255859 0.236485,0.06879 0.70952,0.206099 0.943359,0.271485 -0.0057,-0.281953 -0.01588,-0.561369 -0.02344,-0.839844 0.587135,-0.916536 0.883883,-1.967798 1.197266,-2.996094 -0.416422,-0.799898 0.04227,-2.224805 -0.552734,-2.904297 v -0.002 c 0.12737,-0.385285 0.259117,-0.771154 0.386718,-1.15625 -0.238216,-1.354923 -1.123726,-2.412962 -2.09375,-3.326172 -0.378629,-0.125102 -0.754821,-0.255669 -1.132812,-0.382812 -0.508203,2.32679 -1.376609,4.558078 -1.841797,6.898437 -0.491675,0.266457 -0.982231,0.534641 -1.474609,0.804688 -0.0037,0.217323 -0.01701,0.649663 -0.02344,0.86914 1.164582,1.334325 -0.09949,2.952774 -0.353515,4.392578 -0.606804,0.114142 -1.280131,0.535537 -1.871094,0.148438 -2.630491,-1.378431 -4.813408,-3.439181 -7.378906,-4.931641 0.278135,2.156901 1.915532,3.091264 2.966797,8.869141 1.16725,8.961146 -2.541823,16.10206 -7.517579,19.402344 -1.742063,-4.803855 -3.784544,-23.754178 -5.78125,-25.056641 -0.473019,6.338873 1.246195,11.308848 -3.90625,33.789063 -1.226385,8.176471 -6.351026,11.722111 -9.566406,12.134761 0.485178,-0.91601 1.336037,-3.83606 2.195313,-4.33594 -0.0087,-0.40283 -0.0019,-0.20276 0.0039,-0.002 0.502772,-0.36391 0.995517,-0.73346 1.496094,-1.10156 -0.906229,-0.82753 -1.190815,-2.035058 -1.800782,-3.052733 -0.12514,0.258897 -2.417817,1.456133 -2.542968,1.714843 -0.329038,0.12261 -0.168332,0.0745 -0.002,0.0195 -0.02325,0.1683 -0.06756,0.47612 -0.0918,0.63086 0.15651,1.25646 -0.788859,2.30718 -0.822266,3.55469 0.735295,1.57604 0.78056,1.08462 -1.478516,8.10937 -1.80634,-5.52401 -2.794922,-11.41695 -2.794922,-17.544918 0,-31.160126 25.253439,-56.41211 56.41211,-56.41211 z m -48.375,64.082031 c -0.0012,8.4e-4 -0.0027,8.5e-4 -0.0039,0.002 0.01474,0.40281 0.0098,0.20004 0.0039,-0.002 z m 33.58789,-42.902343 c -0.0017,-0.0025 -0.0041,-0.0033 -0.0059,-0.0059 v -0.002 h -0.002 c -0.0011,0.003 -7.55e-4,0.0067 -0.002,0.0098 -0.02113,0.212102 -0.0088,0.117834 0.0039,0 0.0027,-7.27e-4 0.0032,-0.0012 0.0059,-0.002 z m 25.947268,-8.603516 c -0.007,-0.0062 -0.0172,-0.0027 -0.0234,-0.01172 0.11599,0.135346 0.0767,0.07946 0.0234,0.01172 z M 91.580078,67.648438 c 2.423977,0.04443 4.708844,0.448263 6.3125,1.017578 -0.277757,0.868648 -0.4841,1.766523 -0.888672,2.58789 -0.405864,0.329953 -0.859962,0.604832 -1.294922,0.900391 -0.142337,0.420586 -0.283485,0.844927 -0.417968,1.271484 -0.555489,-0.478148 -6.765053,-4.160339 -6.828125,-4.197265 -0.371037,-0.426104 -1.558397,-0.511905 -1.277344,-1.230469 1.436421,-0.274025 2.940145,-0.376268 4.394531,-0.349609 z m 9.265622,2.023437 c 0.31181,0.02646 0.62355,0.05047 0.93555,0.07617 0.64842,0.284598 1.30349,0.545851 1.9668,0.794922 l 5.77539,2.404297 c -0.0956,1.526022 -0.39387,3.037489 -1.27344,4.316406 -1.84366,1.546532 -3.54744,2.16045 -5.45117,0.830078 l -1.45703,-0.720703 c -0.007,-0.0027 -0.0129,-0.0071 -0.0195,-0.0098 l -2.814458,-1.394531 2.189458,-2.267578 c -0.24693,-0.410229 -0.49015,-0.825672 -0.734379,-1.234375 0.297449,-0.931502 0.588729,-1.862361 0.882809,-2.794922 z m 9.91016,9.673828 c 1.73854,0.02923 3.82357,0.393921 5.3125,0.863281 l -0.78906,2.503907 c -0.367,0.197669 -0.7288,0.399887 -1.09375,0.601562 -2.05985,-0.774879 -4.35988,-2.363175 -4.92578,-3.001953 0.20144,0.04195 -0.29401,-0.913551 -0.0918,-0.875 0.46735,-0.07351 1.00838,-0.101531 1.58789,-0.0918 z m 7.78516,2.189453 h 0.002 c 0.78474,0.440088 1.56251,0.897276 2.33984,1.34961 0.83766,0.860485 1.16286,2.001691 1.38672,3.148437 -0.26343,0.847748 -0.79771,1.556467 -1.42383,2.169922 -1.33598,-0.840265 -1.64505,-1.00771 -2.45508,-1.53125 0.12133,-0.372661 0.24442,-0.743707 0.36915,-1.115234 -0.30917,-0.472063 -0.61839,-0.94085 -0.93946,-1.398438 0.23358,-0.878967 0.47182,-1.752546 0.72071,-2.623047 z m -53.802739,8.066406 c 2.932139,0.325418 0.241855,-0.110415 3.806641,0.582032 -0.389341,1.615294 -0.833598,3.21614 -1.324219,4.80664 -0.499366,0.315213 -1.003301,0.657214 -1.601562,0.75586 -0.0037,-0.0189 -1.072034,-5.387504 -1.076172,-5.40625 0.05212,-0.183307 0.14803,-0.553236 0.195312,-0.738282 z m 7.28125,1.15625 c 0.651647,0.147402 1.309799,0.359548 1.988281,0.271485 1.648343,0.399761 3.293807,0.875397 4.779297,1.710937 -1.784012,2.509871 -5.699965,2.121407 -8.363281,3.441407 0.295446,-1.859377 1.093294,-3.611545 1.595703,-5.423829 z m -40.55664,3.025391 a 1.6056916,1.6056916 0 0 1 1.605468,1.605469 1.6056916,1.6056916 0 0 1 -1.605468,1.605469 1.6056916,1.6056916 0 0 1 -1.605469,-1.605469 1.6056916,1.6056916 0 0 1 1.605469,-1.605469 z m 127.849609,0 a 1.6056916,1.6056916 0 0 1 1.60547,1.605469 1.6056916,1.6056916 0 0 1 -1.60547,1.605469 1.6056916,1.6056916 0 0 1 -1.60547,-1.605469 1.6056916,1.6056916 0 0 1 1.60547,-1.605469 z m -79.253906,2.087891 c 1.414118,0.139086 1.313043,0.15472 2.507812,0.0625 3.156718,0.0805 4.97456,0.452105 6.566406,0.52539 -0.634764,5.213556 -1.63153,5.053996 -2.644531,5.726566 -4.421563,-1.45248 -8.892615,-2.761398 -13.302734,-4.250003 2.010898,-1.373027 4.637698,-1.202192 6.873047,-2.064453 z m 12.507812,1.224609 c 1.608692,0.456227 3.170158,1.046392 4.740235,1.625 l 3.046879,3.117187 c 0.33259,0.099 0.66503,0.19193 0.99804,0.28906 0.2623,0.50767 0.52911,1.0144 0.80664,1.51953 -0.28157,0.96201 -2.48927,2.02979 -3.123044,2.82618 -2.48505,-0.66354 -5.828729,-3.08228 -7.974609,-4.53321 0.472543,-1.62534 1.000895,-3.228679 1.505859,-4.843747 z m -20.43164,1.253906 c 4.166759,4.933191 -0.383281,12.895791 -2.28125,15.113281 -0.422174,0.47407 -0.819954,0.96656 -1.175782,1.49414 -0.399246,0.33222 -0.810688,0.88631 -1.310546,0.36133 0.01474,-0.2468 0.892715,-4.68386 -0.269532,-10.01953 0.544857,-1.88977 1.16689,-3.75787 1.751953,-5.638674 1.11103,-0.398702 2.171693,-0.927151 3.285157,-1.310547 z m 35.517574,4.312501 1.2168,0.38477 c -0.5026,1.59402 -0.99803,3.18521 -1.51367,4.77148 h -0.002 c -0.39073,0.31672 -0.77288,0.63919 -1.15235,0.9668 -1.56794,-0.71252 -3.50792,-0.14301 -4.6914,-1.49805 3.79003,-0.9699 4.85455,-3.16357 6.14257,-4.625 z m 4.58008,1.37891 c 1.36038,0.85017 2.99603,1.23154 4.1582,2.38671 0.14363,0.0745 0.43685,0.21738 0.58399,0.29297 1.4956,1.46056 2.50496,3.33551 2.83008,5.40821 -0.0986,0.34356 -0.1947,0.68804 -0.29297,1.03515 -0.46813,0.34318 -0.9442,0.68354 -1.42578,1.01172 -1.20817,-0.64267 -2.64121,-0.83213 -3.72461,-1.69726 -0.83566,-0.33638 -1.71796,-0.55151 -2.53321,-0.92969 -0.31174,-0.97108 -0.8669,-1.82942 -1.29296,-2.73828 0.0302,-1.71799 1.19591,-3.16777 1.69726,-4.76953 z m -62.167967,4.54296 c 5.263148,-0.14959 11.018737,1.58743 11.726563,2.94727 -0.638914,2.3147 -1.364193,4.61533 -2.214844,6.86328 -2.941731,-0.61277 -12.622702,-7.85207 -14.40625,-8.94726 1.439509,-0.55273 3.140148,-0.81342 4.894531,-0.86329 z m 21.742188,9.95508 c 3.342989,-0.046 7.186632,0.71568 10.134765,1.88672 -1.195597,3.84735 -2.431679,7.67911 -3.630859,11.52539 -0.843379,-0.26608 -1.686798,-0.53055 -2.53125,-0.79297 -0.332977,-0.70847 -0.662056,-1.4159 -0.986328,-2.1289 -1.272163,-0.33638 -6.214152,-2.17984 -6.845703,-3.32618 -0.677216,-0.97701 0.01869,-2.1318 -0.07617,-3.20507 -0.492582,-0.21355 -1.084751,-0.27622 -1.492188,-0.64453 0.07967,-0.76014 0.240275,-1.5099 0.251953,-2.27344 1.34363,-0.69476 3.169988,-1.01342 5.175782,-1.04102 z m -13.615235,3.64844 a 11.35324,1.9032892 29.942335 0 0 0.02539,0.0117 c -0.01277,0.009 -0.02208,0.0206 -0.03516,0.0293 0.003,-0.0138 0.0068,-0.0272 0.0098,-0.041 z m 27.699219,1.46094 c 1.893136,0.0231 5.016161,0.59907 5.804687,0.79492 1.864328,-0.11339 9.599298,2.38946 9.667968,2.4082 -0.30274,3.36972 -1.868523,6.46507 -2.681639,9.72461 -2.205589,0.73274 -15.85401,-3.12462 -16.767579,-3.46289 -0.131974,-1.40239 2.571898,-9.1326 2.625,-9.26953 0.225638,-0.14931 0.720518,-0.203 1.351563,-0.19531 z m 19.425785,4.86328 c 2.66218,0.54161 4.409,1.63608 6.56836,3.10351 -0.0745,0.20561 -0.2279,0.60861 -0.30274,0.81055 -2.6592,1.76852 -5.41028,3.54037 -8.5957,4.17578 -0.002,-1.46241 1.08559,-6.08481 1.83594,-7.8164 0.12359,-0.0707 0.37107,-0.2073 0.49414,-0.27344 z m 14.67382,7.93164 c 1.02032,0.48432 2.06984,0.92333 3.06641,1.46094 0.2514,0.13562 0.50108,0.27251 0.74414,0.42382 0.15232,0.32429 0.30791,0.64619 0.4668,0.97266 -1.5e-4,0.005 1.5e-4,0.0104 0,0.0156 l 1.65039,3.5 c 0.002,-3.1e-4 0.004,-0.002 0.006,-0.002 -5.91737,3.81507 -12.58868,6.55538 -19.74805,7.94141 3.41337,-3.59075 7.97294,-6.92716 10.40625,-7.70117 l 0.79688,-2.4336 c 0.002,-0.008 0.005,-0.0156 0.008,-0.0234 0.17651,-0.57445 0.35538,-1.14876 0.52539,-1.72461 -0.14929,-0.47244 -0.28926,-0.94796 -0.41992,-1.42188 0.88161,-0.21279 1.71701,-0.54864 2.49804,-1.00781 z"
       style="display:inline;fill:#000000;stroke-width:0.97818691;stroke-linecap:round;stroke-linejoin:round" />
    <g
       id="text210"
       style="font-style:normal;font-weight:normal;font-size:10.58333302px;line-height:1.25;font-family:sans-serif;letter-spacing:0px;word-spacing:0px;display:inline;fill:#000000;fill-opacity:1;stroke:none;stroke-width:0.26458332"
       transform="matrix(0.4890935,0,0,0.4890935,46.033048,62.254411)"
       aria-label="San Leandro High Makers Club">
      <path
         id="path843"
         style="font-style:normal;font-variant:normal;font-weight:bold;font-stretch:normal;font-size:5.64444447px;font-family:Cinzel;-inkscape-font-specification:'Cinzel, Bold';font-variant-ligatures:normal;font-variant-caps:normal;font-variant-numeric:normal;font-feature-settings:normal;text-align:start;writing-mode:lr-tb;text-anchor:start;fill:#ffffff;stroke-width:0.26458332"
         d="m 74.328389,135.26166 q -0.400608,-0.0684 -0.654935,-0.28928 l 0.0085,-0.0501 q 0.04356,0.0132 0.08808,0.0207 0.383916,0.0655 0.719772,-0.15773 0.331243,-0.22978 0.412905,-0.70828 0.06362,-0.37279 -0.07929,-0.60904 -0.141964,-0.24182 -0.4146,-0.28835 -0.161356,-0.0275 -0.307369,0.0563 -0.145065,0.0783 -0.341688,0.29098 l -0.805085,0.85893 q -0.453768,0.47799 -0.982347,0.38778 -0.05564,-0.009 -0.109381,-0.0301 -0.433859,-0.1084 -0.648704,-0.46 -0.213896,-0.35716 -0.125587,-0.87462 0.05223,-0.30601 0.184782,-0.7472 l 0.05982,-0.35053 0.805564,0.21191 -0.0095,0.0556 q -0.289328,-0.0494 -0.498845,0.13819 -0.214131,0.18104 -0.274904,0.53714 -0.07407,0.43399 0.159771,0.67431 0.11088,0.12199 0.238852,0.14383 0.127972,0.0218 0.225542,-0.013 0.157958,-0.0532 0.369507,-0.28623 l 0.871303,-0.94498 q 0.413737,-0.44473 0.942317,-0.35452 0.589784,0.10065 0.837613,0.56095 0.243215,0.45378 0.129267,1.12146 -0.06457,0.37835 -0.208669,0.68587 -0.148714,0.30101 -0.330144,0.42465 -0.112363,0.0209 -0.262591,-0.005 z" />
      <path
         id="path845"
         style="font-style:normal;font-variant:normal;font-weight:bold;font-stretch:normal;font-size:5.64444447px;font-family:Cinzel;-inkscape-font-specification:'Cinzel, Bold';font-variant-ligatures:normal;font-variant-caps:normal;font-variant-numeric:normal;font-feature-settings:normal;text-align:start;writing-mode:lr-tb;text-anchor:start;fill:#ffffff;stroke-width:0.26458332"
         d="m 76.27176,128.85545 0.01207,-0.0435 0.05439,0.0151 -0.443678,1.59905 -0.05439,-0.0151 0.01207,-0.0435 q 0.03018,-0.10878 -0.0215,-0.17584 -0.05169,-0.0671 -0.106075,-0.0822 -0.05439,-0.0151 -0.120255,-0.01 l -0.55924,0.0733 -0.319931,1.15306 0.44546,0.3579 q 0.04835,0.0369 0.108181,0.0534 0.05439,0.0151 0.13324,-0.0157 0.07492,-0.0378 0.105102,-0.14657 l 0.01207,-0.0435 0.05439,0.0151 -0.301822,1.08779 -0.05439,-0.0151 0.01207,-0.0435 q 0.03169,-0.11422 -0.0073,-0.24806 -0.03901,-0.13383 -0.160809,-0.24378 l -2.102515,-1.79591 q -0.472057,-0.38871 -0.594135,-0.4343 l 0.01358,-0.0489 3.461139,-0.60952 q 0.177349,-0.0269 0.285186,-0.12004 0.103907,-0.10004 0.137107,-0.21969 z m -1.733002,2.31913 0.268622,-0.96814 -1.269546,0.16323 z" />
      <path
         id="path847"
         style="font-style:normal;font-variant:normal;font-weight:bold;font-stretch:normal;font-size:5.64444447px;font-family:Cinzel;-inkscape-font-specification:'Cinzel, Bold';font-variant-ligatures:normal;font-variant-caps:normal;font-variant-numeric:normal;font-feature-settings:normal;text-align:start;writing-mode:lr-tb;text-anchor:start;fill:#ffffff;stroke-width:0.26458332"
         d="m 74.173155,125.18843 0.605529,-1.46596 0.05217,0.0216 -0.03663,0.0887 q -0.04956,0.11999 -0.011,0.23363 0.04071,0.10842 0.15333,0.16105 l 2.279789,0.94169 q 0.323448,0.1336 0.549364,0.17807 l 0.07735,0.0197 -0.01939,0.047 -3.10195,1.52183 1.726797,0.71327 q 0.116927,0.0422 0.227504,-0.004 0.107515,-0.0533 0.157078,-0.17329 l 0.03663,-0.0887 0.05217,0.0215 -0.603374,1.46074 -0.05217,-0.0215 0.03448,-0.0835 q 0.04956,-0.11999 0.01101,-0.23363 -0.04378,-0.1158 -0.158548,-0.1632 l -2.295439,-0.94816 q -0.313015,-0.1293 -0.533713,-0.1716 l -0.07735,-0.0197 0.02461,-0.0448 3.089362,-1.52092 -1.716363,-0.70897 q -0.114772,-0.0474 -0.222287,0.006 -0.110578,0.0459 -0.16014,0.16592 l -0.03663,0.0887 z" />
      <path
         id="path849"
         style="font-style:normal;font-variant:normal;font-weight:bold;font-stretch:normal;font-size:5.64444447px;font-family:Cinzel;-inkscape-font-specification:'Cinzel, Bold';font-variant-ligatures:normal;font-variant-caps:normal;font-variant-numeric:normal;font-feature-settings:normal;text-align:start;writing-mode:lr-tb;text-anchor:start;fill:#ffffff;stroke-width:0.26458332"
         d="m 78.746396,123.3699 q 0.07709,-0.12487 0.04402,-0.2647 -0.03492,-0.14759 -0.156826,-0.22949 l -2.660787,-1.6427 q -0.127839,-0.0723 -0.270629,-0.0344 -0.144628,0.0301 -0.221722,0.15499 l -0.03855,0.0624 -0.04803,-0.0297 0.901412,-1.46007 0.04506,0.0345 -0.03558,0.0576 q -0.07709,0.12487 -0.04218,0.27247 0.03011,0.14462 0.154987,0.22172 l 2.804873,1.73166 0.388438,-0.62918 q 0.216457,-0.35061 0.16003,-0.71048 -0.05346,-0.36468 -0.352118,-0.70827 l 0.02965,-0.048 0.843386,0.82583 -1.535959,2.48788 -0.04803,-0.0297 z" />
      <path
         id="path851"
         style="font-style:normal;font-variant:normal;font-weight:bold;font-stretch:normal;font-size:5.64444447px;font-family:Cinzel;-inkscape-font-specification:'Cinzel, Bold';font-variant-ligatures:normal;font-variant-caps:normal;font-variant-numeric:normal;font-feature-settings:normal;text-align:start;writing-mode:lr-tb;text-anchor:start;fill:#ffffff;stroke-width:0.26458332"
         d="m 82.195387,118.44685 -1.615298,2.11154 -0.04483,-0.0343 0.04115,-0.0538 q 0.07888,-0.10311 0.06307,-0.2218 -0.01238,-0.12318 -0.107574,-0.20311 l -2.133958,-1.63244 q -0.102057,-0.071 -0.224176,-0.0507 -0.118689,0.0158 -0.197568,0.11891 l -0.04115,0.0538 -0.04483,-0.0343 1.207186,-1.57806 q 0.0926,-0.12104 0.179926,-0.28165 0.08733,-0.16061 0.109497,-0.23603 l 0.712813,0.54529 -0.0343,0.0448 -0.04035,-0.0309 q -0.197256,-0.15089 -0.391642,-0.12904 -0.194386,0.0219 -0.346338,0.2112 l -0.493849,0.64557 1.089395,0.83337 0.390963,-0.51107 q 0.112121,-0.15586 0.08551,-0.32545 -0.02661,-0.1696 -0.179034,-0.2862 l -0.03138,-0.024 0.0343,-0.0448 0.950418,0.72706 -0.0343,0.0448 -0.03138,-0.024 q -0.210706,-0.16118 -0.424884,-0.0763 -0.111046,0.043 -0.186495,0.1416 l -0.394393,0.51556 1.062496,0.81279 0.411541,-0.53797 q 0.208146,-0.28138 0.18974,-0.60105 -0.01946,-0.32757 -0.255721,-0.65044 l 0.03087,-0.0404 z" />
      <path
         id="path853"
         style="font-style:normal;font-variant:normal;font-weight:bold;font-stretch:normal;font-size:5.64444447px;font-family:Cinzel;-inkscape-font-specification:'Cinzel, Bold';font-variant-ligatures:normal;font-variant-caps:normal;font-variant-numeric:normal;font-feature-settings:normal;text-align:start;writing-mode:lr-tb;text-anchor:start;fill:#ffffff;stroke-width:0.26458332"
         d="m 84.920641,115.40283 0.03094,-0.0329 0.04111,0.0387 -1.137189,1.20856 -0.04111,-0.0387 0.03094,-0.0329 q 0.07736,-0.0822 0.06284,-0.16563 -0.01452,-0.0834 -0.05562,-0.12209 -0.04111,-0.0387 -0.101798,-0.0648 l -0.529042,-0.19553 -0.820015,0.87148 0.227582,0.52415 q 0.02564,0.0551 0.07085,0.0977 0.04111,0.0387 0.125249,0.0481 0.0839,10e-4 0.161258,-0.0808 l 0.03094,-0.0329 0.04111,0.0387 -0.773598,0.82216 -0.04111,-0.0387 0.03094,-0.0329 q 0.08123,-0.0863 0.109016,-0.22294 0.02779,-0.13661 -0.02881,-0.29061 l -1.024506,-2.56832 q -0.236774,-0.56381 -0.323585,-0.66099 l 0.03481,-0.037 3.346872,1.07213 q 0.169496,0.0587 0.308274,0.0266 0.138536,-0.0402 0.223632,-0.13059 z m -2.613503,1.2455 0.688503,-0.73172 -1.199533,-0.44666 z" />
      <path
         id="path855"
         style="font-style:normal;font-variant:normal;font-weight:bold;font-stretch:normal;font-size:5.64444447px;font-family:Cinzel;-inkscape-font-specification:'Cinzel, Bold';font-variant-ligatures:normal;font-variant-caps:normal;font-variant-numeric:normal;font-feature-settings:normal;text-align:start;writing-mode:lr-tb;text-anchor:start;fill:#ffffff;stroke-width:0.26458332"
         d="m 84.765993,111.18114 1.217217,-1.01689 0.03619,0.0433 -0.07364,0.0615 q -0.09963,0.0832 -0.118274,0.20177 -0.01431,0.11493 0.06097,0.21385 l 1.581423,1.89297 q 0.224366,0.26856 0.403773,0.41288 l 0.05933,0.0534 -0.03899,0.0326 -3.453887,-0.0933 1.197829,1.43381 q 0.08394,0.0917 0.203204,0.10237 0.119971,0.003 0.219601,-0.0805 l 0.07364,-0.0615 0.03619,0.0433 -1.212885,1.01327 -0.03619,-0.0433 0.06931,-0.0579 q 0.09963,-0.0832 0.118275,-0.20178 0.01502,-0.12288 -0.06459,-0.21818 l -1.592279,-1.90596 q -0.217129,-0.2599 -0.392917,-0.39989 l -0.05933,-0.0534 0.04261,-0.0282 3.442317,0.0883 -1.190591,-1.42514 q -0.07961,-0.0953 -0.199585,-0.098 -0.119258,-0.0107 -0.218888,0.0725 l -0.07364,0.0615 z" />
      <path
         id="path857"
         style="font-style:normal;font-variant:normal;font-weight:bold;font-stretch:normal;font-size:5.64444447px;font-family:Cinzel;-inkscape-font-specification:'Cinzel, Bold';font-variant-ligatures:normal;font-variant-caps:normal;font-variant-numeric:normal;font-feature-settings:normal;text-align:start;writing-mode:lr-tb;text-anchor:start;fill:#ffffff;stroke-width:0.26458332"
         d="m 89.634892,108.32593 q 0.672918,0.0992 1.101389,0.76993 0.428471,0.67068 0.238722,1.32774 -0.192787,0.65231 -0.958603,1.14156 l -1.607738,1.02711 -0.03039,-0.0476 0.06184,-0.0395 q 0.109403,-0.0699 0.136888,-0.19462 0.02748,-0.12473 -0.03461,-0.23241 l -1.440392,-2.25464 q -0.07637,-0.0986 -0.198054,-0.1213 -0.121688,-0.0227 -0.231091,0.0472 l -0.05708,0.0365 -0.03039,-0.0476 1.607738,-1.02712 q 0.765816,-0.48924 1.441771,-0.38525 z m 0.202877,3.08543 q 0.447122,-0.28565 0.494302,-0.77795 0.05194,-0.49534 -0.318796,-1.07565 -0.370734,-0.58031 -0.842025,-0.74138 -0.469574,-0.16887 -0.916696,0.11678 l -0.537499,0.34338 1.583215,2.4782 z" />
      <path
         id="path859"
         style="font-style:normal;font-variant:normal;font-weight:bold;font-stretch:normal;font-size:5.64444447px;font-family:Cinzel;-inkscape-font-specification:'Cinzel, Bold';font-variant-ligatures:normal;font-variant-caps:normal;font-variant-numeric:normal;font-feature-settings:normal;text-align:start;writing-mode:lr-tb;text-anchor:start;fill:#ffffff;stroke-width:0.26458332"
         d="m 91.822483,106.93051 -0.162438,0.079 1.224224,2.51779 q 0.05924,0.12183 0.177479,0.15848 0.12085,0.0291 0.22745,-0.0227 l 0.05584,-0.0271 0.02468,0.0508 -1.395954,0.67875 -0.02468,-0.0508 0.06091,-0.0296 q 0.111676,-0.0543 0.150796,-0.16746 0.0442,-0.11564 -0.0101,-0.22731 l -1.174861,-2.41627 q -0.0543,-0.11168 -0.172542,-0.14833 -0.113166,-0.0391 -0.219766,0.0127 l -0.06599,0.0321 -0.02468,-0.0508 1.558392,-0.75773 q 0.456858,-0.22214 0.852892,-0.19503 0.441441,0.0301 0.663579,0.48699 0.143155,0.29442 0.08149,0.61939 -0.06413,0.31989 -0.389705,0.54096 0.159271,-0.021 0.352957,0.0418 0.198762,0.0603 0.344154,0.15276 0.303126,0.21036 0.599266,0.36763 0.293672,0.15219 0.434827,0.17143 0.146231,0.0168 0.303593,-0.0597 l 0.02468,0.0508 -0.426401,0.20733 q -0.421324,0.20486 -0.699117,0.21441 -0.272716,0.007 -0.588602,-0.19081 -0.486379,-0.30327 -0.67578,-0.52499 -0.13496,-0.12267 -0.258278,-0.15685 -0.118242,-0.0366 -0.199322,-0.01 l -0.01975,-0.0406 0.126905,-0.0617 q 0.429008,-0.21487 0.281105,-0.76431 -0.01672,-0.086 -0.04387,-0.14185 -0.02715,-0.0558 -0.07912,-0.14982 -0.05444,-0.0991 -0.174592,-0.19127 -0.117543,-0.0998 -0.236064,-0.11116 -0.204258,-0.0199 -0.374241,0.0564 -0.05831,0.0221 -0.129373,0.0566 z" />
      <path
         id="path861"
         style="font-style:normal;font-variant:normal;font-weight:bold;font-stretch:normal;font-size:5.64444447px;font-family:Cinzel;-inkscape-font-specification:'Cinzel, Bold';font-variant-ligatures:normal;font-variant-caps:normal;font-variant-numeric:normal;font-feature-settings:normal;text-align:start;writing-mode:lr-tb;text-anchor:start;fill:#ffffff;stroke-width:0.26458332"
         d="m 94.636887,107.20137 q -0.265382,-0.76825 0.09198,-1.39332 0.360856,-0.63225 1.214473,-0.92712 0.858953,-0.29671 1.533107,-0.022 0.672311,0.26939 0.937693,1.03764 0.265381,0.76826 -0.09547,1.40051 -0.3627,0.62691 -1.216317,0.92178 -0.853617,0.29487 -1.525928,0.0255 -0.674155,-0.27472 -0.939536,-1.04298 z m 0.816271,-0.28196 q 0.232209,0.67222 0.656682,0.9675 0.427964,0.2881 0.913459,0.1204 0.49083,-0.16955 0.644392,-0.65853 0.157054,-0.49616 -0.07516,-1.16839 -0.232209,-0.67222 -0.660173,-0.96032 -0.424473,-0.29528 -0.915303,-0.12573 -0.485494,0.1677 -0.642549,0.66386 -0.153562,0.48898 0.07865,1.16121 z" />
      <path
         id="path863"
         style="font-style:normal;font-variant:normal;font-weight:bold;font-stretch:normal;font-size:5.64444447px;font-family:Cinzel;-inkscape-font-specification:'Cinzel, Bold';font-variant-ligatures:normal;font-variant-caps:normal;font-variant-numeric:normal;font-feature-settings:normal;text-align:start;writing-mode:lr-tb;text-anchor:start;fill:#ffffff;stroke-width:0.26458332"
         d="m 103.46934,106.5683 q 0.14508,-0.0221 0.21212,-0.10661 0.10874,-0.14793 0.0922,-0.29385 l -0.21721,-1.42285 -1.80786,0.27599 0.21637,1.41727 q 0.0222,0.14507 0.14435,0.2349 0.12135,0.0843 0.26642,0.0621 l 0.067,-0.0102 0.0141,0.0549 -1.69626,0.25896 -0.009,-0.0558 0.0725,-0.0111 q 0.14507,-0.0221 0.23017,-0.13792 0.0898,-0.1222 0.0733,-0.26813 l -0.47191,-3.09121 q -0.0277,-0.14422 -0.14908,-0.22847 -0.11662,-0.0907 -0.2617,-0.0685 l -0.0725,0.0111 -0.009,-0.0558 1.69626,-0.25896 0.003,0.0566 -0.067,0.0102 q -0.14508,0.0221 -0.23491,0.14434 -0.0907,0.11662 -0.0685,0.2617 l 0.21892,1.43401 1.80785,-0.27599 -0.21892,-1.43401 q -0.0277,-0.14423 -0.14908,-0.22848 -0.11662,-0.0907 -0.26169,-0.0685 l -0.0725,0.0111 -0.009,-0.0558 1.69626,-0.25895 0.009,0.0558 -0.0725,0.0111 q -0.14507,0.0222 -0.23491,0.14435 -0.0907,0.11662 -0.0685,0.26169 l 0.47191,3.09121 q 0.0221,0.14508 0.14435,0.23491 0.12135,0.0842 0.26642,0.0621 l 0.0725,-0.0111 0.009,0.0558 -1.69626,0.25895 -0.009,-0.0558 z" />
      <path
         id="path865"
         style="font-style:normal;font-variant:normal;font-weight:bold;font-stretch:normal;font-size:5.64444447px;font-family:Cinzel;-inkscape-font-specification:'Cinzel, Bold';font-variant-ligatures:normal;font-variant-caps:normal;font-variant-numeric:normal;font-feature-settings:normal;text-align:start;writing-mode:lr-tb;text-anchor:start;fill:#ffffff;stroke-width:0.26458332"
         d="m 105.46581,106.35714 0.0677,-0.003 q 0.1353,-0.007 0.2269,-0.0961 0.0913,-0.095 0.0851,-0.21903 l -0.13394,-2.67211 q -0.006,-0.12402 -0.10629,-0.20378 -0.10036,-0.0854 -0.23566,-0.0786 l -0.0676,0.003 -0.003,-0.0564 1.60101,-0.0803 0.003,0.0564 -0.0677,0.003 q -0.12966,0.007 -0.22126,0.0959 -0.0916,0.0894 -0.091,0.21367 l 0.13422,2.67775 q 0.0121,0.12938 0.11221,0.20913 0.10008,0.0798 0.22974,0.0733 l 0.0677,-0.003 0.003,0.0564 -1.60101,0.0803 z" />
      <path
         id="path867"
         style="font-style:normal;font-variant:normal;font-weight:bold;font-stretch:normal;font-size:5.64444447px;font-family:Cinzel;-inkscape-font-specification:'Cinzel, Bold';font-variant-ligatures:normal;font-variant-caps:normal;font-variant-numeric:normal;font-feature-settings:normal;text-align:start;writing-mode:lr-tb;text-anchor:start;fill:#ffffff;stroke-width:0.26458332"
         d="m 107.91486,105.90687 q -0.4835,-0.49335 -0.45138,-1.31681 0.0321,-0.82346 0.55234,-1.27202 0.52588,-0.44834 1.41138,-0.4138 0.39481,0.0154 0.77548,0.10368 0.38089,0.0826 0.61316,0.21032 l -0.035,0.89679 -0.0451,-0.002 q -0.21187,-0.94031 -1.14813,-0.97682 -0.58658,-0.0229 -0.91285,0.37675 -0.3204,0.39421 -0.349,1.12743 -0.0284,0.72758 0.23237,1.13881 0.26639,0.41145 0.77965,0.43147 0.282,0.011 0.51267,-0.10992 0.23089,-0.12657 0.31389,-0.37188 l 0.032,-0.67659 q 0.004,-0.10717 -0.0613,-0.16621 -0.0596,-0.0645 -0.17806,-0.0691 l -0.079,-0.003 0.002,-0.0451 1.44952,0.0565 -0.002,0.0451 -0.0677,-0.003 q -0.24817,-0.01 -0.25696,0.21593 l -0.0295,0.75578 q -0.20731,0.24611 -0.68336,0.4309 -0.47605,0.18479 -1.03442,0.16301 -0.85145,-0.0389 -1.3408,-0.52679 z" />
      <path
         id="path869"
         style="font-style:normal;font-variant:normal;font-weight:bold;font-stretch:normal;font-size:5.64444447px;font-family:Cinzel;-inkscape-font-specification:'Cinzel, Bold';font-variant-ligatures:normal;font-variant-caps:normal;font-variant-numeric:normal;font-feature-settings:normal;text-align:start;writing-mode:lr-tb;text-anchor:start;fill:#ffffff;stroke-width:0.26458332"
         d="m 115.17463,107.01529 0.0613,0.01 -0.009,0.0557 -1.53212,-0.24902 0.009,-0.0557 0.0557,0.009 q 0.12814,0.0208 0.23087,-0.0483 0.10272,-0.0691 0.12355,-0.19722 l 0.1956,-1.20341 -1.46526,-0.23815 -0.1956,1.2034 q -0.0153,0.12905 0.0603,0.22711 0.0756,0.0981 0.19813,0.11798 l 0.0613,0.01 -0.009,0.0557 -1.53769,-0.24993 0.009,-0.0557 0.0613,0.01 q 0.12814,0.0208 0.23087,-0.0482 0.10363,-0.0747 0.12355,-0.19722 l 0.42923,-2.64082 q 0.0199,-0.12256 -0.0556,-0.22062 -0.0746,-0.10363 -0.20279,-0.12446 l -0.0613,-0.01 0.009,-0.0557 1.53768,0.24992 -0.009,0.0557 -0.0613,-0.01 q -0.12257,-0.0199 -0.22529,0.0492 -0.10272,0.0691 -0.12822,0.19074 l -0.19831,1.22012 1.46526,0.23816 0.19741,-1.21455 q 0.0281,-0.17271 -0.10877,-0.28073 -0.0661,-0.0508 -0.14966,-0.0644 l -0.0557,-0.009 0.009,-0.0557 1.53212,0.24902 -0.009,0.0557 -0.0613,-0.01 q -0.12257,-0.0199 -0.2253,0.0492 -0.10272,0.0691 -0.12912,0.19632 l -0.43013,2.64638 q -0.0225,0.17362 0.10967,0.27516 0.0661,0.0508 0.14966,0.0644 z" />
      <path
         id="path871"
         style="font-style:normal;font-variant:normal;font-weight:bold;font-stretch:normal;font-size:5.64444447px;font-family:Cinzel;-inkscape-font-specification:'Cinzel, Bold';font-variant-ligatures:normal;font-variant-caps:normal;font-variant-numeric:normal;font-feature-settings:normal;text-align:start;writing-mode:lr-tb;text-anchor:start;fill:#ffffff;stroke-width:0.26458332"
         d="m 121.84752,109.18044 0.0849,0.0307 -0.0192,0.0531 -1.59229,-0.57617 0.0173,-0.0478 0.0796,0.0288 q 0.0922,0.0273 0.18081,-0.0186 0.0887,-0.0459 0.10877,-0.13471 l 0.49016,-2.00158 -1.6201,1.35861 q -0.31546,0.25802 -0.41487,0.51617 l -0.0531,-0.0192 -0.53438,-2.78649 -0.8984,1.83586 q -0.0414,0.0811 -0.005,0.17843 0.0387,0.0921 0.12895,0.1247 l 0.0796,0.0288 -0.0173,0.0478 -1.1093,-0.40139 0.0192,-0.0531 0.0849,0.0307 q 0.14861,0.0538 0.28742,0.002 0.14411,-0.0499 0.22103,-0.19614 l 1.67162,-3.2428 0.0478,0.0173 0.66589,3.30228 2.56116,-2.13457 0.0478,0.0173 -0.77993,3.56546 q -0.0292,0.16352 0.0444,0.29216 0.0788,0.13056 0.22211,0.18242 z" />
      <path
         id="path873"
         style="font-style:normal;font-variant:normal;font-weight:bold;font-stretch:normal;font-size:5.64444447px;font-family:Cinzel;-inkscape-font-specification:'Cinzel, Bold';font-variant-ligatures:normal;font-variant-caps:normal;font-variant-numeric:normal;font-feature-settings:normal;text-align:start;writing-mode:lr-tb;text-anchor:start;fill:#ffffff;stroke-width:0.26458332"
         d="m 125.19821,110.99917 0.04,0.021 -0.0262,0.05 -1.46939,-0.77119 0.0262,-0.05 0.04,0.021 q 0.0999,0.0525 0.17641,0.0161 0.0765,-0.0364 0.10269,-0.0863 0.0262,-0.05 0.0351,-0.11545 l 0.0464,-0.56211 -1.05956,-0.55609 -0.44386,0.35988 q -0.0462,0.0395 -0.0751,0.0945 -0.0262,0.05 -0.0127,0.13357 0.0211,0.0812 0.12109,0.13367 l 0.04,0.021 -0.0262,0.05 -0.99959,-0.52461 0.0262,-0.05 0.04,0.021 q 0.10496,0.0551 0.24401,0.0452 0.13906,-0.01 0.27223,-0.10574 l 2.19922,-1.6761 q 0.47959,-0.37938 0.54991,-0.48909 l 0.045,0.0236 -0.13473,3.51182 q -0.0111,0.17904 0.0571,0.30409 0.0759,0.12268 0.18581,0.18039 z m -1.90112,-2.18344 0.88963,0.46691 0.10841,-1.2754 z" />
      <path
         id="path875"
         style="font-style:normal;font-variant:normal;font-weight:bold;font-stretch:normal;font-size:5.64444447px;font-family:Cinzel;-inkscape-font-specification:'Cinzel, Bold';font-variant-ligatures:normal;font-variant-caps:normal;font-variant-numeric:normal;font-feature-settings:normal;text-align:start;writing-mode:lr-tb;text-anchor:start;fill:#ffffff;stroke-width:0.26458332"
         d="m 125.23857,111.10502 0.0317,-0.0467 0.0467,0.0317 q 0.14954,0.1013 0.30662,0.0305 0.0707,-0.0339 0.12286,-0.10085 l 1.5006,-2.21502 q 0.0935,-0.14803 0.0148,-0.3036 -0.0386,-0.0739 -0.10868,-0.12136 l -0.0514,-0.0348 0.0316,-0.0467 1.29444,0.87693 -0.0317,0.0467 -0.0514,-0.0348 q -0.1028,-0.0696 -0.22973,-0.0534 -0.12226,0.0194 -0.19658,0.11908 l -1.50377,2.2197 q -0.065,0.10597 -0.0409,0.23139 0.0273,0.12075 0.13476,0.19356 l 0.0467,0.0317 -0.027,0.0499 z m 3.07954,2.08628 -0.35983,-0.24377 q -0.64955,-0.44005 -0.68149,-0.98666 0.002,-0.0532 -0.0125,-0.42435 -0.0256,-0.97865 -0.0224,-0.98332 l 1.81908,-0.62207 q 0.0957,-0.0306 0.101,-0.10884 0.008,-0.0829 -0.071,-0.13673 l -0.042,-0.0285 0.0285,-0.0421 0.9533,0.64583 -0.0285,0.0421 -0.0187,-0.0127 q -0.25234,-0.17096 -0.53454,-0.1167 l -1.39622,0.39039 0.0569,2.02935 q 0.006,0.393 0.23696,0.55596 z" />
      <path
         id="path877"
         style="font-style:normal;font-variant:normal;font-weight:bold;font-stretch:normal;font-size:5.64444447px;font-family:Cinzel;-inkscape-font-specification:'Cinzel, Bold';font-variant-ligatures:normal;font-variant-caps:normal;font-variant-numeric:normal;font-feature-settings:normal;text-align:start;writing-mode:lr-tb;text-anchor:start;fill:#ffffff;stroke-width:0.26458332"
         d="m 130.39197,114.97585 -2.03369,-1.71228 0.0363,-0.0432 0.0518,0.0436 q 0.0993,0.0836 0.2186,0.0734 0.12362,-0.007 0.20792,-0.098 l 1.73045,-2.05528 q 0.0757,-0.0986 0.0611,-0.22156 -0.0102,-0.1193 -0.10954,-0.20291 l -0.0518,-0.0436 0.0364,-0.0432 1.51987,1.27967 q 0.11658,0.0982 0.27292,0.1929 0.15635,0.0947 0.23066,0.12042 l -0.57803,0.68653 -0.0432,-0.0364 0.0327,-0.0389 q 0.15996,-0.18998 0.14722,-0.38518 -0.0128,-0.19519 -0.19478,-0.35583 l -0.62176,-0.5235 -0.88341,1.04923 0.49223,0.41444 q 0.15044,0.11928 0.3211,0.10063 0.17065,-0.0186 0.29425,-0.16545 l 0.0255,-0.0302 0.0432,0.0364 -0.77071,0.91538 -0.0432,-0.0364 0.0255,-0.0302 q 0.17087,-0.20294 0.0961,-0.42085 -0.0377,-0.11294 -0.13273,-0.19292 l -0.49654,-0.41807 -0.8616,1.02332 0.51814,0.43625 q 0.27134,0.22108 0.59152,0.21764 0.32813,-0.004 0.66169,-0.22502 l 0.0389,0.0327 z" />
      <path
         id="path879"
         style="font-style:normal;font-variant:normal;font-weight:bold;font-stretch:normal;font-size:5.64444447px;font-family:Cinzel;-inkscape-font-specification:'Cinzel, Bold';font-variant-ligatures:normal;font-variant-caps:normal;font-variant-numeric:normal;font-feature-settings:normal;text-align:start;writing-mode:lr-tb;text-anchor:start;fill:#ffffff;stroke-width:0.26458332"
         d="m 134.01498,114.11877 -0.12549,-0.12992 -2.01367,1.94503 q -0.0974,0.0941 -0.0956,0.2179 0.01,0.12391 0.0922,0.20917 l 0.0431,0.0447 -0.0406,0.0392 -1.0784,-1.11645 0.0406,-0.0392 0.0471,0.0487 q 0.0863,0.0893 0.20599,0.0914 0.12364,0.006 0.21295,-0.0801 l 1.93248,-1.8666 q 0.0893,-0.0863 0.0875,-0.21005 0.002,-0.11972 -0.0803,-0.20498 l -0.051,-0.0528 0.0406,-0.0392 1.20388,1.24636 q 0.35293,0.36539 0.45004,0.75029 0.10833,0.429 -0.25705,0.78193 -0.23547,0.22744 -0.56354,0.26966 -0.324,0.0383 -0.63517,-0.20262 0.0693,0.1449 0.0698,0.3485 0.004,0.20765 -0.0384,0.37456 -0.10592,0.35344 -0.16355,0.68376 -0.0536,0.3264 -0.028,0.46656 0.0294,0.14421 0.15099,0.27007 l -0.0406,0.0392 -0.3294,-0.34102 q -0.32548,-0.33697 -0.42075,-0.59809 -0.0914,-0.25706 -10e-4,-0.61875 0.13739,-0.55648 0.2894,-0.80533 0.0747,-0.16636 0.069,-0.2942 -0.002,-0.12377 -0.0525,-0.19251 l 0.0325,-0.0314 0.098,0.1015 q 0.33738,0.34116 0.81381,0.0301 0.0766,-0.0426 0.12124,-0.0857 0.0447,-0.0431 0.11787,-0.1217 0.0773,-0.0825 0.12766,-0.22532 0.0584,-0.1427 0.0324,-0.25891 -0.0444,-0.20036 -0.16978,-0.33826 -0.0391,-0.0486 -0.094,-0.10541 z" />
      <path
         id="path881"
         style="font-style:normal;font-variant:normal;font-weight:bold;font-stretch:normal;font-size:5.64444447px;font-family:Cinzel;-inkscape-font-specification:'Cinzel, Bold';font-variant-ligatures:normal;font-variant-caps:normal;font-variant-numeric:normal;font-feature-settings:normal;text-align:start;writing-mode:lr-tb;text-anchor:start;fill:#ffffff;stroke-width:0.26458332"
         d="m 133.74246,117.78223 q 0.28777,-0.22759 0.59296,-0.26026 l 0.028,0.0354 q -0.0345,0.0201 -0.061,0.0411 -0.27006,0.21358 -0.32315,0.56501 -0.0496,0.35587 0.22352,0.70119 0.19608,0.24792 0.41623,0.2897 0.22365,0.0462 0.36532,-0.0658 0.14167,-0.11205 0.16276,-0.25826 0.029,-0.14529 0.004,-0.41342 l -0.0988,-0.94378 q -0.0672,-0.59453 0.32239,-0.90265 0.0399,-0.0315 0.0876,-0.0621 0.33534,-0.22204 0.68399,-0.14516 0.35309,0.0734 0.58418,0.36557 0.23459,0.29662 0.45385,0.65574 l 0.18908,0.23907 -0.63341,0.4002 -0.0315,-0.0398 q 0.20808,-0.16457 0.21206,-0.4052 0.007,-0.23621 -0.18158,-0.47528 -0.18558,-0.23464 -0.39595,-0.29135 -0.20594,-0.0602 -0.36974,0.0693 -0.13282,0.10504 -0.12517,0.31489 0.002,0.0846 0.0207,0.23548 l 0.12286,1.04706 q 0.0658,0.5381 -0.32384,0.84623 -0.41172,0.32563 -0.86418,0.2085 -0.44895,-0.11269 -0.81309,-0.57312 -0.22409,-0.28334 -0.32925,-0.55279 -0.10516,-0.26946 -0.0839,-0.45181 0.0587,-0.0896 0.16493,-0.17363 z" />
      <path
         id="path883"
         style="font-style:normal;font-variant:normal;font-weight:bold;font-stretch:normal;font-size:5.64444447px;font-family:Cinzel;-inkscape-font-specification:'Cinzel, Bold';font-variant-ligatures:normal;font-variant-caps:normal;font-variant-numeric:normal;font-feature-settings:normal;text-align:start;writing-mode:lr-tb;text-anchor:start;fill:#ffffff;stroke-width:0.26458332"
         d="m 137.07351,123.56441 q -0.53967,-0.94631 -0.37165,-1.75689 0.16802,-0.81058 0.99666,-1.28314 0.82863,-0.47256 1.60902,-0.20934 0.7853,0.26041 1.31658,1.19201 0.40545,0.71096 0.43149,1.37188 l -0.83775,0.49076 -0.0224,-0.0392 q 0.75957,-0.76456 0.25066,-1.65694 -0.32995,-0.57857 -0.94456,-0.67641 -0.60691,-0.0957 -1.33258,0.3181 -0.72567,0.41384 -0.97049,0.97582 -0.24202,0.56687 0.0564,1.12442 0.32436,0.56876 0.77932,0.70568 0.46755,0.13622 1.25052,-0.15435 l 0.0224,0.0392 -0.81538,0.52998 q -0.88352,-0.0225 -1.41828,-0.97157 z" />
      <path
         id="path885"
         style="font-style:normal;font-variant:normal;font-weight:bold;font-stretch:normal;font-size:5.64444447px;font-family:Cinzel;-inkscape-font-specification:'Cinzel, Bold';font-variant-ligatures:normal;font-variant-caps:normal;font-variant-numeric:normal;font-feature-settings:normal;text-align:start;writing-mode:lr-tb;text-anchor:start;fill:#ffffff;stroke-width:0.26458332"
         d="m 138.07977,125.29984 0.0518,-0.0223 0.0268,0.0622 q 0.0514,0.11922 0.16265,0.16346 0.11349,0.0494 0.22753,2.8e-4 l 2.46216,-1.0612 q 0.11403,-0.0491 0.15604,-0.1656 0.0472,-0.11868 -0.002,-0.23272 l -0.0268,-0.0622 0.0518,-0.0223 0.62108,1.44101 -0.0518,0.0223 -0.0268,-0.0622 q -0.0514,-0.11922 -0.16488,-0.16865 -0.1135,-0.0494 -0.23272,0.002 l -2.57619,1.11035 0.26809,0.62202 q 0.1437,0.31914 0.43156,0.45937 0.29304,0.138 0.69019,0.0897 l 0.0246,0.057 -1.04089,0.20892 z" />
      <path
         id="path887"
         style="font-style:normal;font-variant:normal;font-weight:bold;font-stretch:normal;font-size:5.64444447px;font-family:Cinzel;-inkscape-font-specification:'Cinzel, Bold';font-variant-ligatures:normal;font-variant-caps:normal;font-variant-numeric:normal;font-feature-settings:normal;text-align:start;writing-mode:lr-tb;text-anchor:start;fill:#ffffff;stroke-width:0.26458332"
         d="m 143.56062,130.6155 -0.0235,-0.0755 q -0.0318,-0.1024 -0.11832,-0.15236 -0.0811,-0.0516 -0.17977,-0.0268 l -1.78402,0.55484 q -0.5821,0.18104 -1.0269,-0.0708 -0.43941,-0.25347 -0.65901,-0.95953 -0.21791,-0.70068 -0.0169,-1.19471 0.20269,-0.48864 0.79018,-0.67135 l 1.78941,-0.55652 q 0.097,-0.0302 0.13823,-0.12575 0.0429,-0.0902 0.011,-0.19259 l -0.0235,-0.0755 0.0539,-0.0168 0.44086,1.41752 -0.0539,0.0168 -0.0235,-0.0755 q -0.0319,-0.1024 -0.11832,-0.15235 -0.0865,-0.05 -0.18348,-0.0198 l -1.75169,0.54478 q -0.49586,0.15422 -0.70572,0.46776 -0.20819,0.31893 -0.0791,0.73394 0.12907,0.41501 0.46693,0.57003 0.33953,0.1604 0.80844,0.0146 l 1.81097,-0.56323 q 0.10073,-0.0372 0.13823,-0.12575 0.0429,-0.0902 0.011,-0.19259 l -0.0218,-0.0701 0.0539,-0.0168 0.31011,0.99712 z" />
      <path
         id="path889"
         style="font-style:normal;font-variant:normal;font-weight:bold;font-stretch:normal;font-size:5.64444447px;font-family:Cinzel;-inkscape-font-specification:'Cinzel, Bold';font-variant-ligatures:normal;font-variant-caps:normal;font-variant-numeric:normal;font-feature-settings:normal;text-align:start;writing-mode:lr-tb;text-anchor:start;fill:#ffffff;stroke-width:0.26458332"
         d="m 143.46234,134.16591 q -0.20508,0.0395 -0.37735,-0.0193 -0.33239,-0.11419 -0.42735,-0.45803 0.0438,0.37669 -0.1465,0.672 -0.18476,0.29425 -0.55057,0.36469 -0.715,0.13769 -1.06334,-0.68619 -0.0969,-0.23427 -0.15235,-0.52249 l -0.30953,-1.60735 0.0554,-0.0107 0.0117,0.061 q 0.0246,0.12748 0.1237,0.19461 0.10021,0.0727 0.22876,0.0537 l 2.6272,-0.50593 q 0.19846,-0.044 0.2353,-0.24074 0.0115,-0.0597 -2.5e-4,-0.12067 l -0.0117,-0.061 0.0554,-0.0107 0.28605,1.48542 q 0.24122,1.25263 -0.58463,1.41166 z m -1.6248,-0.34815 q 0.25496,-0.0491 0.40651,-0.18749 0.2952,-0.25803 0.2034,-0.7347 -0.001,-0.006 -0.002,-0.0111 l 0.0499,-0.01 q 0.0512,0.26605 0.23845,0.40244 0.18721,0.13639 0.51423,0.0734 0.66511,-0.12808 0.54877,-0.73223 l -0.0299,-0.15519 -2.8877,0.55608 0.0427,0.22171 q 0.0619,0.32147 0.28878,0.48471 0.22794,0.16879 0.627,0.0919 z" />
    </g>
  </g>
  <g
     transform="translate(-73.59244,-105.34254)"
     style="display:inline"
     id="layer4">
    <circle
       transform="rotate(-173)"
       r="33.363476"
       style="fill:none;fill-opacity:1;stroke-width:0.73561817"
       cy="-125.5029"
       cx="-124.1705"
       id="path39" />
  </g>
</svg>
