<?xml version="1.0" encoding="UTF-8" standalone="no"?>
<!-- Created with Inkscape (http://www.inkscape.org/) -->

<svg
   xmlns:dc="http://purl.org/dc/elements/1.1/"
   xmlns:cc="http://creativecommons.org/ns#"
   xmlns:rdf="http://www.w3.org/1999/02/22-rdf-syntax-ns#"
   xmlns:svg="http://www.w3.org/2000/svg"
   xmlns="http://www.w3.org/2000/svg"
   xmlns:xlink="http://www.w3.org/1999/xlink"
   xmlns:sodipodi="http://sodipodi.sourceforge.net/DTD/sodipodi-0.dtd"
   xmlns:inkscape="http://www.inkscape.org/namespaces/inkscape"
   width="8.5in"
   height="11in"
   viewBox="0 0 215.9 279.4"
   version="1.1"
   id="svg8"
   inkscape:version="0.92.4 (f8dce91, 2019-08-02)"
   sodipodi:docname="t-shirt_source.svg"
   enable-background="new">
  <defs
     id="defs2">
    <inkscape:path-effect
       effect="powerstroke"
       id="path-effect1041"
       is_visible="true"
       offset_points="0,0.13229166"
       sort_points="true"
       interpolator_type="CubicBezierJohan"
       interpolator_beta="0.2"
       start_linecap_type="zerowidth"
       linejoin_type="extrp_arc"
       miter_limit="4"
       end_linecap_type="zerowidth" />
    <inkscape:path-effect
       effect="powerstroke"
       id="path-effect1031"
       is_visible="true"
       offset_points="0,0.13229166"
       sort_points="true"
       interpolator_type="CubicBezierJohan"
       interpolator_beta="0.2"
       start_linecap_type="zerowidth"
       linejoin_type="extrp_arc"
       miter_limit="4"
       end_linecap_type="zerowidth" />
    <inkscape:tag
       id="Set 1" />
  </defs>
  <sodipodi:namedview
     id="base"
     pagecolor="#ffffff"
     bordercolor="#666666"
     borderopacity="1.0"
     inkscape:pageopacity="0.0"
     inkscape:pageshadow="2"
     inkscape:zoom="31.678384"
     inkscape:cx="314.23646"
     inkscape:cy="647.97129"
     inkscape:document-units="mm"
     inkscape:current-layer="layer3"
     showgrid="false"
     units="in"
     inkscape:window-width="1850"
     inkscape:window-height="1016"
     inkscape:window-x="70"
     inkscape:window-y="27"
     inkscape:window-maximized="1" />
  <metadata
     id="metadata5">
    <rdf:RDF>
      <cc:Work
         rdf:about="">
        <dc:format>image/svg+xml</dc:format>
        <dc:type
           rdf:resource="http://purl.org/dc/dcmitype/StillImage" />
        <dc:title></dc:title>
      </cc:Work>
    </rdf:RDF>
  </metadata>
  <g
     inkscape:groupmode="layer"
     id="layer3"
     inkscape:label="Main">
    <path
       id="path77"
       d="m 79.466972,88.09794 -1.051424,5.989038 0.0039,0.0039 c -1.285258,0.210026 -2.528719,0.546611 -3.716404,0.99487 v -0.0039 l -3.902368,-4.662753 -3.667884,2.119022 2.082658,5.710039 0.008,0.0039 c -0.994351,0.816292 -1.905757,1.730936 -2.721536,2.725684 l -0.0039,-0.0122 -5.710039,-2.082666 -2.119022,3.667886 4.662626,3.90651 c -0.447486,1.18666 -0.781092,2.42831 -0.990732,3.71228 l -0.0039,-0.004 -5.989038,1.05143 v 4.23804 l 5.989038,1.05142 0.0039,-0.004 c 0.20964,1.28397 0.543246,2.52562 0.990732,3.7124 l -4.662626,3.90638 2.119022,3.66788 5.710039,-2.08266 0.0039,-0.0122 c 0.815779,0.99475 1.727185,1.90939 2.721536,2.72555 l -0.008,0.004 -2.082658,5.71004 3.667884,2.11903 3.902368,-4.6625 v -0.004 c 1.187685,0.44826 2.431146,0.78485 3.716404,0.99487 l -0.0039,0.004 1.051424,5.98904 h 4.234038 l 1.051424,-5.98904 -0.0039,-0.004 c 1.284868,-0.20951 2.528721,-0.54325 3.716406,-0.99073 l 3.90638,4.66263 3.667884,-2.11903 -2.086669,-5.71004 c 0.992156,-0.81422 1.903043,-1.72562 2.717526,-2.71752 l 5.714049,2.08266 2.11501,-3.66789 -4.658613,-3.9065 c 0.447613,-1.18691 0.785103,-2.42818 0.994743,-3.71228 l 5.98916,-1.04739 v -4.23804 l -5.98916,-1.05143 c -0.20977,-1.2828 -0.54765,-2.52264 -0.994748,-3.70826 l 4.658608,-3.9065 -2.11501,-3.667767 -5.714044,2.082537 c -0.814478,-0.991897 -1.72537,-1.903308 -2.717526,-2.717532 l 2.086674,-5.710039 -3.667884,-2.119022 -3.90638,4.662626 C 87.277242,94.63445 86.033389,94.300712 84.748516,94.091204 l 0.0039,-0.0039 -1.051419,-5.989038 h -4.234038 z m 2.119026,10.311974 c 8.244454,0 14.930861,6.681746 14.930861,14.925686 0,8.24446 -6.685761,14.92569 -14.930861,14.92569 -8.244456,0 -14.925687,-6.68175 -14.925687,-14.92569 0,-8.24445 6.681622,-14.925686 14.925687,-14.925686 z"
       inkscape:connector-curvature="0"
       style="display:inline;fill:#000000;stroke-width:0.25881195;stroke-linecap:round;stroke-linejoin:round" />
    <path
       id="path67"
       d="m 92.652067,121.68638 c -0.140669,-0.0665 -0.27917,-0.14285 -0.386374,-0.25747 0.253497,-0.32797 0.602416,-0.56813 0.940438,-0.80114 0.0156,-0.0624 0.04774,-0.18795 0.06376,-0.25117 -0.539387,0.057 -0.964658,0.42025 -1.445868,0.62832 -0.417309,0.0368 -1.549115,-1.0019 -2.445213,-1.34627 -0.266169,-0.11084 -0.312707,-0.42085 -0.402812,-0.65994 -0.236487,-0.15924 -0.49331,-0.28444 -0.758423,-0.38633 0.592855,-0.42491 1.200813,-0.84892 1.642973,-1.43968 0.357361,-1.06899 0.491681,-0.93965 0.553595,-2.22568 0.05459,-0.66731 -0.160814,-2.05531 -0.548132,-2.41721 -0.532613,-0.22505 -0.780711,-0.56639 -1.298724,-0.8299 0.290849,-0.27866 0.68565,-0.42933 0.943084,-0.74546 0.734903,-0.82095 0.886453,-2.37827 0.419305,-3.20021 -0.451526,-0.26743 -0.895819,-0.55471 -1.291764,-0.90081 -0.05746,-0.0191 -0.172083,-0.0584 -0.229693,-0.077 -0.0089,-0.20966 0.02279,-0.41707 0.06441,-0.62231 0.08089,-0.0764 -0.08026,0.0776 0,0 -0.01854,-0.12129 0.01738,0.12187 0,0 0.232153,0.14245 0.493772,-0.22048 0.474227,0.0399 0.09735,0.0605 0.195193,0.11928 0.29511,0.17771 0.01335,-0.12468 0.02729,-0.24824 0.04059,-0.37295 0.216077,-0.36189 0.270523,-0.77861 0.228368,-1.19114 -0.304294,-0.20655 -0.612795,-0.40581 -0.927248,-0.59538 -0.199653,0.44403 -0.220963,0.9693 -0.516258,1.36586 -0.01364,0.0351 -0.04182,0.10514 -0.05574,0.14019 0.0084,0.17484 0.01384,0.34974 0.01726,0.52497 -0.07228,0.0156 -0.144581,0.0313 -0.216859,0.047 -0.665216,-0.48895 -0.929874,-0.5889 -1.226059,-0.82237 0.03008,-0.46679 0.260334,-1.33766 -0.01893,-1.95983 -0.312707,-0.16722 -2.06239,-1.24101 -2.166983,-1.29508 0.05133,-0.15795 0.112423,-0.31378 0.132652,-0.47862 -0.0635,-0.0854 0.06892,0.0804 0,0 0.05986,-0.40345 -0.120014,0.38063 0,0 0.09654,0.13917 0.538527,-0.99711 0.511181,-0.82489 0.04152,0.0208 -0.04181,-0.0199 0,0 0.08745,0.0949 0.176299,0.18834 0.263763,0.28324 -0.03135,-0.33612 0.08682,-0.65373 0.189651,-0.96763 -0.196801,-0.288129 -0.189274,-0.662857 -0.411078,-0.935776 -0.157972,-0.07868 -0.309176,-0.169652 -0.459244,-0.26122 -0.104182,0.333669 -0.208173,0.66838 -0.32085,0.999386 -0.411377,0.37469 -0.195119,-0.2077 -0.376832,1.25014 -0.224592,0.0533 -0.432188,0.15332 -0.556232,0.35758 -0.967118,-0.45982 -1.881097,-1.0241 -2.838625,-1.50206 -0.01991,0.0582 -0.0604,0.17336 -0.07982,0.23169 0.365773,0.61282 0.829326,1.3824 0.349447,2.56525 -0.388462,1.46925 -0.98474,2.23702 -1.899262,2.92985 -0.407128,0.20184 -0.613636,0.53795 -0.535513,0.36507 0.08417,0.24874 -0.07576,-0.25092 0,0 -0.299756,-0.19649 -0.599585,-0.39589 -0.883181,-0.61613 -0.267138,-0.52578 0.008,-1.09033 0.185181,-1.59724 0.10291,-0.0243 -0.101336,0.0315 0,0 0.0155,-0.13461 -0.01345,0.13428 0,0 0.16706,0.24508 0.41979,0.0843 0.593922,0.33448 0.06257,0.0182 0.187695,0.0546 0.249565,0.0719 -0.0015,-0.0746 -0.0039,-0.1485 -0.0059,-0.22218 0.155346,-0.2425 0.233498,-0.52091 0.316414,-0.79298 -0.110246,-0.21177 0.01151,-0.58898 -0.146358,-0.76863 0.01516,-0.0529 -0.01459,0.0531 0,0 0.04495,0.0101 -0.04573,-0.0105 0,0 0.0337,-0.10194 0.06857,-0.20446 0.102333,-0.30635 -0.06303,-0.35849 -0.297139,-0.63816 -0.553791,-0.87978 -0.100181,-0.0331 -0.199936,-0.0677 -0.299946,-0.10134 -0.134462,0.61563 -0.363924,1.20611 -0.487005,1.82533 -0.130089,0.0705 -0.260031,0.14121 -0.390306,0.21266 -9.78e-4,0.0575 -0.0044,0.17184 -0.0061,0.22991 0.308129,0.35304 -0.02612,0.78157 -0.09333,1.16252 -0.16055,0.0302 -0.338942,0.14132 -0.495301,0.0389 -0.695984,-0.36471 -1.273601,-0.90952 -1.952389,-1.3044 0.07359,0.57068 0.506764,0.81787 0.784911,2.3466 0.308837,2.37097 -0.672435,4.26024 -1.988937,5.13344 -0.460921,-1.27102 -1.001442,-6.28511 -1.529737,-6.62972 -0.125153,1.67716 0.32988,2.99243 -1.033371,8.94032 -0.324481,2.16336 -1.680594,3.10142 -2.53133,3.2106 0.12837,-0.24236 0.353727,-1.015 0.581077,-1.14726 -0.0046,-0.21408 0.0078,0.21315 0,0 0.133344,-0.0965 0.264371,-0.19467 0.397122,-0.29229 -0.239773,-0.21895 -0.315197,-0.53806 -0.476584,-0.80732 -0.03311,0.0685 -0.639945,0.38503 -0.673058,0.45348 -0.177652,0.0662 0.182226,-0.0532 0,0 -0.006,0.0434 -0.01789,0.12999 -0.0245,0.17219 0.04141,0.33244 -0.208825,0.61046 -0.217664,0.94053 0.238646,0.51152 0.25758,0.0162 -0.866475,3.6451 0.102233,0.60943 0.338658,1.19288 0.389078,1.81101 -0.660907,0.71314 -0.319804,-0.18008 -0.578273,1.83406 -0.105796,2.46021 -4.019976,0.49632 16.602825,6.48258 0.440932,-1.45716 3.46643,-3.84683 4.165996,-3.70244 0.979796,0.13568 2.68841,0.10838 3.662028,-0.51446 0.344469,-0.31756 0.74958,-0.56504 1.056565,-0.92232 0.141827,-0.18134 0.275169,-0.36924 0.421681,-0.5472 0.236996,-0.55443 0.352823,-1.89555 0.0074,-2.23239 z m -18.168485,-9.72762 c -0.103013,0.42738 -0.220283,0.85121 -0.350093,1.27203 -0.132124,0.0834 -0.265583,0.17409 -0.423873,0.20019 -9.78e-4,-0.005 -0.283704,-1.42589 -0.284799,-1.43085 0.01379,-0.0485 0.03942,-0.14631 0.05193,-0.19527 0.775795,0.0861 0.06365,-0.0293 1.006833,0.15391 z m -6.374495,6.19133 c 0.04232,-0.13096 0.08416,-0.26206 0.126211,-0.39216 0.05534,-0.0229 0.165418,-0.07 0.22076,-0.093 -0.0683,0.22475 -0.137334,0.4502 -0.201671,0.6762 -0.03676,-0.0482 -0.108819,-0.14301 -0.145601,-0.19116 z m 0.60719,0.52431 c -0.0341,-0.0445 -0.104586,-0.13207 -0.138686,-0.17647 0.05528,-0.17209 0.11038,-0.34521 0.165663,-0.51729 l 0.17414,0.0549 z m 0.235318,0.14154 c 0.07216,-0.23699 0.145788,-0.48987 0.380543,-0.61499 -0.05697,0.22638 -0.125554,0.45007 -0.195907,0.6732 z m 0.768369,0.33654 c -0.04419,-0.0124 -0.133207,-0.0352 -0.177489,-0.0473 l 0.167468,-0.53113 c 0.04375,0.0138 0.131538,0.0404 0.175292,0.0542 z m 0.281393,0.31574 c 0.06852,-0.21408 0.137521,-0.42802 0.2067,-0.64093 l 0.173257,0.0546 c -0.05177,0.16743 -0.104267,0.33557 -0.154907,0.50431 -0.05651,0.0206 -0.168468,0.0613 -0.225005,0.082 z m 0.44987,0.27269 c -0.01148,-0.25952 0.09247,-0.5038 0.165398,-0.7473 0.267533,0.23155 -0.09211,0.50874 -0.165398,0.7473 z m 0.538242,0.26398 c -0.181579,-0.22656 -0.03352,-0.48869 0.03251,-0.72858 0.04375,0.0138 0.133,0.0419 0.177053,0.0548 -0.06191,0.22676 -0.112989,0.45887 -0.209832,0.67363 z m 0.326953,0.1743 c 0.02283,-0.25544 0.03342,-0.54841 0.277041,-0.69861 0.06368,0.20383 -4.4e-5,0.40594 -0.04905,0.60406 -0.05735,0.0233 -0.170639,0.0712 -0.227995,0.0945 z m -3.017144,-3.12355 c -0.02394,-0.0431 0.02305,0.0429 6e-6,-1e-5 1.523481,-0.58497 4.1479,0.0718 4.397605,0.55152 -0.169046,0.61243 -0.361065,1.22143 -0.586133,1.8162 -0.778333,-0.16213 -3.339575,-2.07795 -3.811472,-2.36772 z m 3.442702,3.38181 c 0.04584,-0.21257 0.10718,-0.41931 0.171455,-0.62609 0.03162,0.0523 0.09686,0.15657 0.128485,0.20886 -0.07964,0.15191 -0.150369,0.31816 -0.29992,0.41723 z m 2.008226,-4.8224 c 0.0701,-0.36271 0.217534,-0.70296 0.312628,-1.05872 l 0.06844,0.0302 c -0.132295,0.34019 -0.159034,0.72715 -0.381033,1.02849 z m 5.665445,-9.52605 c 1.013475,-0.19334 2.154369,-0.0644 2.83325,0.17661 -0.07349,0.22983 -0.128182,0.46754 -0.235225,0.68486 -0.107385,0.0873 -0.227482,0.16011 -0.342565,0.23831 -0.03766,0.11128 -0.07511,0.22357 -0.110692,0.33643 -0.146973,-0.12651 -1.790063,-1.10054 -1.806751,-1.11031 -0.09817,-0.11274 -0.412242,-0.13572 -0.33788,-0.32584 z m -4.012331,6.02219 c 0.172415,0.039 0.346278,0.0948 0.525795,0.0715 0.436124,0.10577 0.871686,0.23156 1.264722,0.45263 -0.47202,0.66407 -1.508442,0.56146 -2.213111,0.91071 -0.178357,-0.0293 0.06122,0.14146 0,0 0.07817,-0.49196 0.28968,-0.95533 0.422609,-1.43483 z m -0.641767,1.83713 c 0.117637,-0.0986 0.331048,0.0851 0.184501,0.19287 -0.116576,0.095 -0.331087,-0.088 -0.184501,-0.19287 z m -1.374773,4.39683 c 0.245368,0.15239 0.343837,0.42589 0.415196,0.6908 -0.03159,0.0872 -0.06185,0.17484 -0.09349,0.26298 -0.263993,0.19958 -0.530843,0.40213 -0.847044,0.51407 0.06794,-0.13921 0.137961,-0.27589 0.210024,-0.41287 0.01012,-0.3739 0.168757,-0.71831 0.315299,-1.05498 z m -0.595471,2.61171 c -0.08767,-0.19793 -0.06178,-0.40816 -0.0035,-0.60817 0.06031,-0.0204 0.181213,-0.0622 0.241543,-0.0826 -0.07219,0.23221 -0.147908,0.46423 -0.237995,0.69074 z m 0.469705,0.0846 c -0.04373,-0.0138 -0.13095,-0.0423 -0.174704,-0.0561 l 0.165534,-0.52501 0.174997,0.0552 z m -0.187807,-1.03664 c 1.03725,-0.51995 0.651615,0.10893 0.649541,0.22214 -0.218327,-0.0704 -0.43499,-0.1429 -0.649541,-0.22214 z m 1.099032,-1.3957 c 0.0039,-0.0653 0.236091,-1.23901 -0.07142,-2.65074 0.14416,-0.5 0.308941,-0.99448 0.463739,-1.49211 0.29396,-0.10549 0.574621,-0.24498 0.869225,-0.34642 1.102455,1.30524 -0.101427,3.4116 -0.603598,3.99831 -0.1117,0.12543 -0.217158,0.25576 -0.311304,0.39535 -0.105634,0.0879 -0.214389,0.2345 -0.346645,0.0956 z m -0.516619,2.67893 c -0.03389,-0.0511 -0.100861,-0.15301 -0.134789,-0.20411 0.06556,-0.17752 0.141049,-0.35286 0.276122,-0.48824 0.02206,0.0455 0.06723,0.13761 0.08947,0.18309 -0.07994,0.16816 -0.15494,0.33884 -0.230793,0.50925 z m 3.41185,1.72222 c -0.223144,-0.0704 -0.446269,-0.14071 -0.669697,-0.21014 -0.0881,-0.18745 -0.175291,-0.37464 -0.261088,-0.56329 -0.336593,-0.089 -1.644026,-0.57656 -1.811124,-0.87986 -0.17918,-0.25852 0.0049,-0.56417 -0.0202,-0.84814 -0.130329,-0.0565 -0.286731,-0.0731 -0.394532,-0.17055 0.02108,-0.20112 0.06342,-0.39945 0.06651,-0.60147 0.948005,-0.49019 2.802679,-0.27196 4.050722,0.22378 -0.316384,1.0181 -0.643235,2.03195 -0.960564,3.04977 z m 2.163861,-7.87585 c -1.169872,-0.3843 -2.352769,-0.73029 -3.519613,-1.12415 0.53205,-0.36328 1.22689,-0.31833 1.818326,-0.54647 0.374152,0.0368 0.347212,0.0411 0.663328,0.0167 0.835215,0.0213 1.31662,0.11967 1.737798,0.13906 -0.16795,1.37942 -0.431816,1.33686 -0.699839,1.51481 z m 6.024762,-5.78691 c 0.05329,0.0111 -0.07765,-0.24196 -0.02411,-0.23176 0.494611,-0.0778 1.300671,0.0388 1.825928,0.20438 l -0.208853,0.66239 c -0.09714,0.0523 -0.193045,0.10546 -0.289607,0.15882 -0.545001,-0.20502 -1.153634,-0.62482 -1.30336,-0.79383 -0.09578,-0.0379 -0.191319,-0.0767 -0.287392,-0.11369 z m -0.504241,7.27741 c -0.10338,0.0838 -0.204441,0.16931 -0.304847,0.25599 -0.414845,-0.18852 -0.928231,-0.0383 -1.241363,-0.39682 1.002779,-0.25662 1.284427,-0.83674 1.625218,-1.22341 l 0.322014,0.10152 c -0.132989,0.42177 -0.264291,0.84311 -0.400729,1.26281 z m -1.852192,-1.58258 c 0.08795,0.0262 0.176318,0.051 0.264433,0.0767 0.06936,0.13432 0.139602,0.26817 0.213034,0.40182 -0.07451,0.25453 -0.658525,0.53725 -0.826211,0.74796 -0.657503,-0.17556 -1.542293,-0.81553 -2.110057,-1.19942 2.721564,0.75261 0.902849,-0.66291 1.652872,-0.85166 z m 2.179689,-7.45622 c -0.0084,-0.0314 0.254875,-0.1553 0.246755,-0.18769 0.09307,-0.0206 -0.09369,0.0195 0,0 -0.02533,0.40376 -0.104402,0.80403 -0.337122,1.14241 -0.521276,0.43726 -0.999414,0.60047 -1.545995,0.14649 -0.09585,-0.0408 -0.191686,-0.0816 -0.287225,-0.12035 0.02137,-0.0597 0.265845,0.17902 0.287225,0.12035 0.05644,0.0131 -0.05564,-0.0128 0,0 0.543124,-0.25494 1.06121,-0.92176 1.636311,-1.10116 z m -2.282712,-0.31474 c 0.07874,-0.24646 0.155336,-0.49264 0.233141,-0.73938 0.08251,0.007 0.165015,0.0135 0.247564,0.0203 0.17156,0.0753 0.345041,0.14438 0.520538,0.21028 0.221417,0.3565 0.26501,0.84066 -0.005,1.18457 -0.232598,0.23741 -0.58923,0.25772 -0.890869,0.35405 -0.109102,-0.0354 -0.218023,-0.0713 -0.327399,-0.10579 0.16368,-0.17735 0.327272,-0.35762 0.426362,-0.58034 -0.06888,-0.1141 -0.136354,-0.22963 -0.204368,-0.34344 z m -1.957391,6.51621 c 0.425633,0.12071 0.839069,0.27706 1.254485,0.43015 -0.427384,0.46458 -1.010716,0.81651 -1.652872,0.85166 0.125027,-0.43004 0.264801,-0.85448 0.398406,-1.2818 z m -0.03023,2.06074 c -0.134804,-0.0819 0.128304,0.0905 0,0 0.06187,-0.0806 0.321658,0.32847 0.394523,0.25908 0.182158,0.0844 -0.396723,-0.43199 -0.394523,-0.25908 z m 1.648656,8.38526 c -0.583562,0.19387 -4.194926,-0.82643 -4.436641,-0.91593 -0.03492,-0.37105 0.680368,-2.41634 0.69442,-2.45257 0.2388,-0.15802 1.615187,0.0892 1.893364,0.15829 0.49327,-0.03 2.53997,0.63231 2.55814,0.63727 -0.08006,0.89157 -0.494146,1.71052 -0.709283,2.57294 z m 5.254483,-14.56288 c 0.20763,0.11644 0.41388,0.23727 0.619554,0.35695 0.221628,0.22767 0.307219,0.5298 0.366448,0.83321 -0.06969,0.2243 -0.210628,0.4117 -0.376284,0.57401 -0.353487,-0.22232 -0.435308,-0.2664 -0.649623,-0.40492 0.03213,-0.0986 0.06468,-0.19702 0.09773,-0.29532 -0.08183,-0.1249 -0.163973,-0.2489 -0.248924,-0.36997 0.06179,-0.23256 0.125022,-0.4637 0.190874,-0.69402 z m -1.669692,5.95466 c 0.360002,0.22511 0.792864,0.32599 1.10049,0.63174 0.038,0.0197 0.115558,0.0576 0.154485,0.0776 0.39571,0.38644 0.662643,0.88235 0.74866,1.43075 -0.02607,0.0909 -0.05161,0.18191 -0.07765,0.27375 -0.123862,0.0908 -0.249501,0.18106 -0.376919,0.26789 -0.319662,-0.17004 -0.699155,-0.22046 -0.985812,-0.44936 -0.221095,-0.089 -0.454266,-0.14579 -0.669966,-0.24585 -0.08252,-0.25693 -0.229306,-0.48404 -0.342028,-0.72451 0.0077,-0.45455 0.316248,-0.83826 0.4489,-1.26206 z m -1.96036,6.547 c 0.03267,-0.0187 0.09797,-0.0549 0.130553,-0.0724 0.704378,0.1433 1.16687,0.433 1.738204,0.82126 -0.01971,0.0544 -0.06032,0.16088 -0.08008,0.21431 -0.70358,0.46792 -1.431537,0.93684 -2.274353,1.10496 -4.89e-4,-0.38693 0.287132,-1.61004 0.485665,-2.06819 z m 0.454485,2.29919 c -0.16706,-0.0132 -0.333542,-0.0253 -0.500377,-0.0423 0.433469,-0.22002 1.0126,-0.27474 1.705538,-0.39926 0.555981,0.0534 0.403565,-0.0314 0.933219,0.073 -0.347794,0.30426 -0.328299,0.43867 -2.13838,0.36859 z m 4.519361,1.0594 c -0.181698,0.0907 -0.369232,0.17026 -0.57155,0.20171 -0.391236,-0.0406 -0.788849,-0.0275 -1.172054,-0.12712 0.07935,-0.25493 0.157968,-0.50914 0.233312,-0.76436 -0.03952,-0.125 -0.07694,-0.25032 -0.111469,-0.37571 0.233264,-0.0563 0.454666,-0.14524 0.661313,-0.26673 0.338062,0.16047 0.688541,0.29984 1.007782,0.49862 0.04025,0.0858 0.08175,0.17102 0.123736,0.2574 -0.0029,0.10395 -0.0039,0.20754 -0.0039,0.31142 -0.05572,0.0883 -0.112305,0.17623 -0.167138,0.26479 z"
       inkscape:connector-curvature="0"
       style="display:inline;stroke-width:0.01881776"
       sodipodi:nodetypes="cccccccccccccccccccccccccccccccccccccccccccccccccccccccccccccccccccccccccccccccccccccccccccccccccccccccccccccccccccccccccccccccccccccccccccccccccccccccccccccccccccccccccccccccccccccccccccccccccccccccccccccccccccccccccccccccccccccccccccccccccccccccccccccccccccccccccccccccccccccccccccccccccccccccccccccccccccccccccccccccccccc" />
    <text
       xml:space="preserve"
       style="font-style:normal;font-weight:normal;font-size:10.58333302px;line-height:1.25;font-family:sans-serif;letter-spacing:0px;word-spacing:0px;display:inline;fill:#000000;fill-opacity:1;stroke:none;stroke-width:0.26458332"
       id="text210"
       transform="matrix(0.4890935,0,0,0.4890935,28.788517,45.00981)"><textPath
         xlink:href="#path39"
         id="textPath4566"><tspan
   style="font-style:normal;font-variant:normal;font-weight:bold;font-stretch:normal;font-size:5.64444447px;font-family:Cinzel;-inkscape-font-specification:'Cinzel, Bold';font-variant-ligatures:normal;font-variant-caps:normal;font-variant-numeric:normal;font-feature-settings:normal;text-align:start;writing-mode:lr-tb;text-anchor:start;fill:#ffffff;stroke-width:0.26458332"
   id="tspan208">San Leandro High Makers Club</tspan></textPath></text>
    <circle
       style="fill:#ffffff;fill-opacity:1;stroke-width:0.03504745"
       id="path4575"
       cx="64.672638"
       cy="113.33617"
       r="0.42483923" />
    <circle
       style="fill:#ffffff;fill-opacity:1;stroke-width:0.03504745"
       id="path4575-8"
       cx="98.499321"
       cy="113.33617"
       r="0.42483923" />
    <ellipse
       style="fill:#000000;fill-opacity:1;stroke-width:0.16459185"
       id="path161"
       cx="118.16035"
       cy="68.295143"
       rx="3.0038331"
       ry="0.5038473"
       transform="matrix(0.8669927,0.49832083,-0.47015187,0.88258553,0,0)"
       inkscape:transform-center-x="15.901363"
       inkscape:transform-center-y="-8.9363081" />
    <ellipse
       style="fill:#000000;fill-opacity:1;stroke-width:0.26458332"
       id="path178"
       cx="68.44912"
       cy="117.74431"
       rx="0.34254089"
       ry="0.37797621" />
    <ellipse
       style="fill:#000000;fill-opacity:1;stroke-width:0.30701467"
       id="path180"
       cx="73.093025"
       cy="121.10173"
       rx="0.87218535"
       ry="0.89479601" />
    <circle
       style="fill:#000000;fill-opacity:1;stroke-width:0.10709325"
       id="path194"
       cx="74.803856"
       cy="114.04723"
       r="0.20079985" />
    <rect
       style="fill:#000000;fill-opacity:1;stroke-width:0.25028467"
       id="rect206"
       width="0.49835587"
       height="1.4028815"
       x="103.27283"
       y="70.440346"
       transform="matrix(0.89396715,0.4481325,-0.262915,0.964819,0,0)" />
    <ellipse
       style="fill:#000000;fill-opacity:1;stroke-width:0.29228938"
       id="path208"
       cx="73.351173"
       cy="119.57513"
       rx="0.55497867"
       ry="1.4764695" />
    <ellipse
       style="fill:#000000;fill-opacity:1;stroke-width:0.26458332"
       id="path210"
       cx="65.660858"
       cy="135.87773"
       rx="1.5432118"
       ry="0.56629825"
       transform="rotate(-8.6937496)" />
    <rect
       style="fill:#ffffff;fill-opacity:1;stroke-width:0.26458332"
       id="rect212"
       width="0.29232603"
       height="1.3029389"
       x="122.03603"
       y="91.905365"
       transform="rotate(18.117299)" />
    <path
       style="fill:#000000;fill-rule:nonzero;stroke:none;stroke-width:0.26458332px;stroke-linecap:butt;stroke-linejoin:miter;stroke-opacity:1"
       d="m 87.336196,121.15833 c 0.329363,0.71883 1.317454,2.87532 1.646817,3.59415 z m 1.887353,3.48393 c -0.329363,-0.71883 -1.317454,-2.87532 -1.646817,-3.59415 z"
       id="path1039"
       inkscape:connector-curvature="0"
       inkscape:path-effect="#path-effect1041"
       inkscape:original-d="m 89.103281,124.69737 0.548939,1.19805 -2.242558,0.18792 z" />
    <path
       style="fill:#ffffff;fill-opacity:1;stroke:none;stroke-width:0.001;stroke-linecap:butt;stroke-linejoin:miter;stroke-miterlimit:4;stroke-dasharray:none;stroke-opacity:1"
       d="m 89.103281,124.69737 0.563557,1.19387 -2.344872,0.33826 1.781315,-1.53213 v 0"
       id="path4746"
       inkscape:connector-curvature="0" />
    <rect
       style="fill:#ffffff;fill-opacity:1;stroke:none;stroke-width:0.001;stroke-miterlimit:4;stroke-dasharray:none;stroke-opacity:1"
       id="rect4748"
       width="0.50113034"
       height="1.0565498"
       x="87.463951"
       y="125.2356" />
    <path
       style="fill:#ffffff;fill-opacity:1;stroke:none;stroke-width:0;stroke-linecap:butt;stroke-linejoin:miter;stroke-miterlimit:4;stroke-dasharray:none;stroke-opacity:1"
       d="m 80.602642,114.83296 -0.161785,0.23644 2.287413,0.70318 -0.63454,-1.55484 z"
       id="path4750"
       inkscape:connector-curvature="0" />
    <path
       style="fill:#ffffff;fill-opacity:1;stroke:#000000;stroke-width:0;stroke-linecap:butt;stroke-linejoin:miter;stroke-miterlimit:4;stroke-dasharray:none;stroke-opacity:1"
       d="m 82.09373,114.21774 -0.145245,0.10263 -0.01773,-0.10926 z"
       id="path4752"
       inkscape:connector-curvature="0" />
    <path
       style="fill:#ffffff;fill-opacity:1;stroke:#000000;stroke-width:0;stroke-linecap:butt;stroke-linejoin:miter;stroke-miterlimit:4;stroke-dasharray:none;stroke-opacity:1"
       d="m 82.411397,108.19791 1.386484,-1.43533 1.528222,0.63585 -0.482262,0.89647 -1.023472,0.60086 z"
       id="path4771"
       inkscape:connector-curvature="0"
       sodipodi:nodetypes="cccccc" />
  </g>
  <g
     inkscape:groupmode="layer"
     id="layer4"
     inkscape:label="Text"
     style="display:inline">
    <circle
       id="path39"
       cx="-124.1705"
       cy="-125.5029"
       style="fill:none;fill-opacity:1;stroke-width:0.73561817"
       r="33.363476"
       transform="rotate(-173)" />
  </g>
</svg>
