<?xml version="1.0" encoding="UTF-8" standalone="no"?>
<!-- Created with Inkscape (http://www.inkscape.org/) -->

<svg
   xmlns:dc="http://purl.org/dc/elements/1.1/"
   xmlns:cc="http://creativecommons.org/ns#"
   xmlns:rdf="http://www.w3.org/1999/02/22-rdf-syntax-ns#"
   xmlns:svg="http://www.w3.org/2000/svg"
   xmlns="http://www.w3.org/2000/svg"
   xmlns:xlink="http://www.w3.org/1999/xlink"
   xmlns:sodipodi="http://sodipodi.sourceforge.net/DTD/sodipodi-0.dtd"
   xmlns:inkscape="http://www.inkscape.org/namespaces/inkscape"
   width="1.9872599in"
   height="1.9872611in"
   viewBox="0 0 50.4764 50.476431"
   version="1.1"
   id="svg8"
   inkscape:version="0.92.4 (f8dce91, 2019-08-02)"
   sodipodi:docname="t-shirt_source.svg"
   style="enable-background:new">
  <defs
     id="defs2">
    <inkscape:path-effect
       effect="powerstroke"
       id="path-effect1041"
       is_visible="true"
       offset_points="0,0.13229166"
       sort_points="true"
       interpolator_type="CubicBezierJohan"
       interpolator_beta="0.2"
       start_linecap_type="zerowidth"
       linejoin_type="extrp_arc"
       miter_limit="4"
       end_linecap_type="zerowidth" />
    <inkscape:path-effect
       effect="powerstroke"
       id="path-effect1031"
       is_visible="true"
       offset_points="0,0.13229166"
       sort_points="true"
       interpolator_type="CubicBezierJohan"
       interpolator_beta="0.2"
       start_linecap_type="zerowidth"
       linejoin_type="extrp_arc"
       miter_limit="4"
       end_linecap_type="zerowidth" />
    <inkscape:tag
       id="Set 1"
       inkscape:expanded="true" />
  </defs>
  <sodipodi:namedview
     id="base"
     pagecolor="#ffffff"
     bordercolor="#666666"
     borderopacity="1.0"
     inkscape:pageopacity="0.0"
     inkscape:pageshadow="2"
     inkscape:zoom="3.959798"
     inkscape:cx="98.867391"
     inkscape:cy="70.411136"
     inkscape:document-units="mm"
     inkscape:current-layer="layer3"
     showgrid="false"
     units="in"
     inkscape:window-width="1850"
     inkscape:window-height="1016"
     inkscape:window-x="70"
     inkscape:window-y="27"
     inkscape:window-maximized="1"
     inkscape:pagecheckerboard="true"
     fit-margin-top="0"
     fit-margin-left="0"
     fit-margin-right="0"
     fit-margin-bottom="0" />
  <metadata
     id="metadata5">
    <rdf:RDF>
      <cc:Work
         rdf:about="">
        <dc:format>image/svg+xml</dc:format>
        <dc:type
           rdf:resource="http://purl.org/dc/dcmitype/StillImage" />
        <dc:title />
      </cc:Work>
    </rdf:RDF>
  </metadata>
  <g
     inkscape:groupmode="layer"
     id="layer3"
     inkscape:label="Main"
     transform="translate(-73.59244,-105.34254)">
    <path
       style="display:inline;fill:#000000;stroke-width:0.97818691;stroke-linecap:round;stroke-linejoin:round"
       d="m 87.378906,0.00195313 -3.974609,22.63281287 0.01563,0.01563 C 78.562259,23.44421 73.86194,24.71595 69.373052,26.410161 v -0.01367 L 54.625,8.7734375 40.761719,16.78125 l 7.871093,21.582031 0.03125,0.01563 c -3.758175,3.085191 -7.20385,6.541096 -10.287109,10.300782 L 38.363281,48.634766 16.78125,40.761719 8.7714844,54.625 26.394531,69.390625 c -1.691285,4.485014 -2.9518,9.176497 -3.74414,14.029297 L 22.634766,83.40625 0,87.378906 v 16.017574 l 22.634766,3.97461 0.01563,-0.0156 c 0.79234,4.8528 2.052855,9.54578 3.74414,14.03125 l -17.6230466,14.76367 8.0097656,13.86328 21.582031,-7.87109 0.01367,-0.0469 c 3.083259,3.75969 6.528934,7.21804 10.287109,10.30274 l -0.03125,0.0137 -7.871093,21.58203 13.863281,8.00977 14.748047,-17.62305 v -0.0156 c 4.488888,1.69422 9.189207,2.96795 14.046875,3.76172 l -0.01563,0.0137 3.974609,22.63672 h 16.001956 l 3.97461,-22.63672 -0.0156,-0.0137 c 4.85621,-0.79185 9.55801,-2.05483 14.04688,-3.74609 l 14.76367,17.62305 13.86328,-8.00782 -7.88672,-21.58203 c 3.74986,-3.07736 7.19314,-6.52257 10.27149,-10.27148 l 21.5957,7.87109 7.99414,-13.86133 -17.60742,-14.76562 c 1.69175,-4.48596 2.96744,-9.17796 3.75976,-14.03125 l 22.63672,-3.95703 V 87.378906 L 168.14062,83.40625 c -0.79281,-4.848378 -2.06993,-9.534542 -3.75976,-14.015625 L 181.98828,54.625 l -7.99414,-13.861328 -21.5957,7.871094 c -3.07835,-3.748914 -6.52159,-7.194118 -10.27149,-10.271485 L 150.01367,16.78125 136.15039,8.7734375 121.38672,26.396484 c -4.48895,-1.690431 -9.19067,-2.952329 -14.04688,-3.74414 l 0.0156,-0.01563 -3.97461,-22.63476587 z M 95.388672,38.974609 c 31.160128,0 56.431638,25.253911 56.431638,56.41211 0,14.211541 -5.2691,27.183081 -13.94336,37.101561 0.28985,-2.20287 0.19872,-4.69523 -0.66406,-5.53906 l -0.002,-0.002 c -0.53085,-0.25108 -1.05439,-0.5401 -1.45899,-0.97266 0.95811,-1.23957 2.27713,-2.14668 3.55469,-3.02734 0.059,-0.23585 0.17938,-0.71028 0.24024,-0.94922 -2.03864,0.21543 -3.64415,1.58859 -5.4629,2.375 -1.57723,0.13908 -5.85535,-3.78634 -9.24218,-5.08789 -1.006,-0.41893 -1.18291,-1.5905 -1.52344,-2.49414 -0.89382,-0.60186 -1.86324,-1.07585 -2.86524,-1.46094 2.2407,-1.60596 4.53783,-3.20861 6.20899,-5.44141 1.35065,-4.04028 1.85781,-3.55152 2.0918,-8.41211 0.20636,-2.522093 -0.60643,-7.766952 -2.07032,-9.134763 -2.01301,-0.850583 -2.95232,-2.140776 -4.91015,-3.136719 1.09927,-1.053203 2.59149,-1.623537 3.56445,-2.818359 2.77758,-3.102803 3.35151,-8.989158 1.58594,-12.095703 -1.70657,-1.010759 -3.38631,-2.096203 -4.88281,-3.404297 -0.21733,-0.07219 -0.64945,-0.220717 -0.86719,-0.291016 -0.0339,-0.790378 0.0836,-1.571946 0.24023,-2.345703 -0.0734,0.07005 -0.14125,0.132613 0,-0.0039 2.5e-4,0.0017 -2.5e-4,0.0022 0,0.0039 0.0163,0.110442 0.0322,0.210144 0.002,-0.002 l 0.002,-0.002 -0.002,-0.002 c 0.15288,-0.144378 0.078,-0.07095 0.002,0.002 0.87684,0.53454 1.8648,-0.834805 1.79101,0.148437 0.36813,0.228662 0.73759,0.451037 1.11524,0.671875 0.0503,-0.471231 0.10403,-0.938811 0.1543,-1.410156 0.81664,-1.367773 1.02067,-2.942785 0.86132,-4.501953 -1.15007,-0.780662 -2.31543,-1.533515 -3.5039,-2.25 -0.75462,1.678223 -0.83512,3.6633 -1.95117,5.162109 -0.0514,0.132662 -0.15841,0.396825 -0.21094,0.529297 0.0302,0.660813 0.0532,1.322089 0.0664,1.984375 -0.27326,0.05896 -0.54712,0.118403 -0.82031,0.177734 -2.51422,-1.847993 -3.51335,-2.225015 -4.63281,-3.107421 0.11376,-1.764246 0.98318,-5.056702 -0.0723,-7.408203 -1.18189,-0.632013 -7.79415,-4.690173 -8.18945,-4.894532 0.19389,-0.596976 0.42354,-1.185576 0.5,-1.808594 0.002,-0.01354 -7e-5,-0.0028 0.002,-0.01562 0.01,0.01185 0.0124,0.01574 0.0215,0.02734 0.40168,0.356919 2.00979,-3.768628 1.9082,-3.128906 v 0.002 c 0.33002,0.358316 0.66781,0.710032 0.99805,1.06836 -0.1183,-1.270375 0.32807,-2.47181 0.7168,-3.658204 -0.74382,-1.088995 -0.71639,-2.503685 -1.55469,-3.535156 -0.59709,-0.297449 -1.16718,-0.642228 -1.73438,-0.988281 -0.39375,1.261077 -0.78701,2.52632 -1.21289,3.777344 -1.55478,1.416151 -0.73705,-0.785337 -1.42383,4.724609 -0.84884,0.201449 -1.6347,0.579563 -2.10351,1.351562 -3.655269,-1.737895 -7.109514,-3.869318 -10.728518,-5.675781 -0.07525,0.219969 -0.227382,0.65454 -0.300781,0.875 1.382449,2.31617 3.134029,5.224699 1.320313,9.695313 -1.468203,5.553071 -3.721274,8.455655 -7.177735,11.074218 -1.078247,0.534558 -1.756103,1.286016 -1.980468,1.482422 -0.07783,-0.24966 -0.216855,-0.672944 -0.04492,-0.103515 0.03301,0.09754 0.02389,0.06641 0.03906,0.109375 -0.09192,0.07959 -0.126151,0.08333 -0.03906,-0.109375 -1.132936,-0.74264 -2.266032,-1.495722 -3.337891,-2.328125 -1.007666,-1.983285 0.02748,-4.11243 0.697266,-6.025391 -0.09369,0.0254 -0.182347,0.04618 0.0039,-0.01172 0.02929,-0.254381 0.01548,-0.127034 0.002,0 0.182651,-0.04301 0.09849,-0.01769 0.0059,0.0078 0.631451,0.911735 1.580603,0.313761 2.236329,1.255859 0.236485,0.06879 0.70952,0.206099 0.943359,0.271485 -0.0057,-0.281953 -0.01588,-0.561369 -0.02344,-0.839844 0.587135,-0.916536 0.883883,-1.967798 1.197266,-2.996094 -0.416422,-0.799898 0.04227,-2.224805 -0.552734,-2.904297 v -0.002 c 0.12737,-0.385285 0.259117,-0.771154 0.386718,-1.15625 -0.238216,-1.354923 -1.123726,-2.412962 -2.09375,-3.326172 -0.378629,-0.125102 -0.754821,-0.255669 -1.132812,-0.382812 -0.508203,2.32679 -1.376609,4.558078 -1.841797,6.898437 -0.491675,0.266457 -0.982231,0.534641 -1.474609,0.804688 -0.0037,0.217323 -0.01701,0.649663 -0.02344,0.86914 1.164582,1.334325 -0.09949,2.952774 -0.353515,4.392578 -0.606804,0.114142 -1.280131,0.535537 -1.871094,0.148438 -2.630491,-1.378431 -4.813408,-3.439181 -7.378906,-4.931641 0.278135,2.156901 1.915532,3.091264 2.966797,8.869141 1.16725,8.961146 -2.541823,16.10206 -7.517579,19.402344 -1.742063,-4.803855 -3.784544,-23.754178 -5.78125,-25.056641 -0.473019,6.338873 1.246195,11.308848 -3.90625,33.789063 -1.226385,8.176471 -6.351026,11.722111 -9.566406,12.134761 0.485178,-0.91601 1.336037,-3.83606 2.195313,-4.33594 -0.0087,-0.40283 -0.0019,-0.20276 0.0039,-0.002 0.502772,-0.36391 0.995517,-0.73346 1.496094,-1.10156 -0.906229,-0.82753 -1.190815,-2.035058 -1.800782,-3.052733 -0.12514,0.258897 -2.417817,1.456133 -2.542968,1.714843 -0.329038,0.12261 -0.168332,0.0745 -0.002,0.0195 -0.02325,0.1683 -0.06756,0.47612 -0.0918,0.63086 0.15651,1.25646 -0.788859,2.30718 -0.822266,3.55469 0.735295,1.57604 0.78056,1.08462 -1.478516,8.10937 -1.80634,-5.52401 -2.794922,-11.41695 -2.794922,-17.544918 0,-31.160126 25.253439,-56.41211 56.41211,-56.41211 z m -48.375,64.082031 c -0.0012,8.4e-4 -0.0027,8.5e-4 -0.0039,0.002 0.01474,0.40281 0.0098,0.20004 0.0039,-0.002 z m 33.58789,-42.902343 c -0.0017,-0.0025 -0.0041,-0.0033 -0.0059,-0.0059 v -0.002 h -0.002 c -0.0011,0.003 -7.55e-4,0.0067 -0.002,0.0098 -0.02113,0.212102 -0.0088,0.117834 0.0039,0 0.0027,-7.27e-4 0.0032,-0.0012 0.0059,-0.002 z m 25.947268,-8.603516 c -0.007,-0.0062 -0.0172,-0.0027 -0.0234,-0.01172 0.11599,0.135346 0.0767,0.07946 0.0234,0.01172 z M 91.580078,67.648438 c 2.423977,0.04443 4.708844,0.448263 6.3125,1.017578 -0.277757,0.868648 -0.4841,1.766523 -0.888672,2.58789 -0.405864,0.329953 -0.859962,0.604832 -1.294922,0.900391 -0.142337,0.420586 -0.283485,0.844927 -0.417968,1.271484 -0.555489,-0.478148 -6.765053,-4.160339 -6.828125,-4.197265 -0.371037,-0.426104 -1.558397,-0.511905 -1.277344,-1.230469 1.436421,-0.274025 2.940145,-0.376268 4.394531,-0.349609 z m 9.265622,2.023437 c 0.31181,0.02646 0.62355,0.05047 0.93555,0.07617 0.64842,0.284598 1.30349,0.545851 1.9668,0.794922 l 5.77539,2.404297 c -0.0956,1.526022 -0.39387,3.037489 -1.27344,4.316406 -1.84366,1.546532 -3.54744,2.16045 -5.45117,0.830078 l -1.45703,-0.720703 c -0.007,-0.0027 -0.0129,-0.0071 -0.0195,-0.0098 l -2.814458,-1.394531 2.189458,-2.267578 c -0.24693,-0.410229 -0.49015,-0.825672 -0.734379,-1.234375 0.297449,-0.931502 0.588729,-1.862361 0.882809,-2.794922 z m 9.91016,9.673828 c 1.73854,0.02923 3.82357,0.393921 5.3125,0.863281 l -0.78906,2.503907 c -0.367,0.197669 -0.7288,0.399887 -1.09375,0.601562 -2.05985,-0.774879 -4.35988,-2.363175 -4.92578,-3.001953 0.20144,0.04195 -0.29401,-0.913551 -0.0918,-0.875 0.46735,-0.07351 1.00838,-0.101531 1.58789,-0.0918 z m 7.78516,2.189453 h 0.002 c 0.78474,0.440088 1.56251,0.897276 2.33984,1.34961 0.83766,0.860485 1.16286,2.001691 1.38672,3.148437 -0.26343,0.847748 -0.79771,1.556467 -1.42383,2.169922 -1.33598,-0.840265 -1.64505,-1.00771 -2.45508,-1.53125 0.12133,-0.372661 0.24442,-0.743707 0.36915,-1.115234 -0.30917,-0.472063 -0.61839,-0.94085 -0.93946,-1.398438 0.23358,-0.878967 0.47182,-1.752546 0.72071,-2.623047 z m -53.802739,8.066406 c 2.932139,0.325418 0.241855,-0.110415 3.806641,0.582032 -0.389341,1.615294 -0.833598,3.21614 -1.324219,4.80664 -0.499366,0.315213 -1.003301,0.657214 -1.601562,0.75586 -0.0037,-0.0189 -1.072034,-5.387504 -1.076172,-5.40625 0.05212,-0.183307 0.14803,-0.553236 0.195312,-0.738282 z m 7.28125,1.15625 c 0.651647,0.147402 1.309799,0.359548 1.988281,0.271485 1.648343,0.399761 3.293807,0.875397 4.779297,1.710937 -1.784012,2.509871 -5.699965,2.121407 -8.363281,3.441407 0.295446,-1.859377 1.093294,-3.611545 1.595703,-5.423829 z m -40.55664,3.025391 a 1.6056916,1.6056916 0 0 1 1.605468,1.605469 1.6056916,1.6056916 0 0 1 -1.605468,1.605469 1.6056916,1.6056916 0 0 1 -1.605469,-1.605469 1.6056916,1.6056916 0 0 1 1.605469,-1.605469 z m 127.849609,0 a 1.6056916,1.6056916 0 0 1 1.60547,1.605469 1.6056916,1.6056916 0 0 1 -1.60547,1.605469 1.6056916,1.6056916 0 0 1 -1.60547,-1.605469 1.6056916,1.6056916 0 0 1 1.60547,-1.605469 z m -79.253906,2.087891 c 1.414118,0.139086 1.313043,0.15472 2.507812,0.0625 3.156718,0.0805 4.97456,0.452105 6.566406,0.52539 -0.634764,5.213556 -1.63153,5.053996 -2.644531,5.726566 -4.421563,-1.45248 -8.892615,-2.761398 -13.302734,-4.250003 2.010898,-1.373027 4.637698,-1.202192 6.873047,-2.064453 z m 12.507812,1.224609 c 1.608692,0.456227 3.170158,1.046392 4.740235,1.625 l 3.046879,3.117187 c 0.33259,0.099 0.66503,0.19193 0.99804,0.28906 0.2623,0.50767 0.52911,1.0144 0.80664,1.51953 -0.28157,0.96201 -2.48927,2.02979 -3.123044,2.82618 -2.48505,-0.66354 -5.828729,-3.08228 -7.974609,-4.53321 0.472543,-1.62534 1.000895,-3.228679 1.505859,-4.843747 z m -20.43164,1.253906 c 4.166759,4.933191 -0.383281,12.895791 -2.28125,15.113281 -0.422174,0.47407 -0.819954,0.96656 -1.175782,1.49414 -0.399246,0.33222 -0.810688,0.88631 -1.310546,0.36133 0.01474,-0.2468 0.892715,-4.68386 -0.269532,-10.01953 0.544857,-1.88977 1.16689,-3.75787 1.751953,-5.638674 1.11103,-0.398702 2.171693,-0.927151 3.285157,-1.310547 z m 35.517574,4.312501 1.2168,0.38477 c -0.5026,1.59402 -0.99803,3.18521 -1.51367,4.77148 h -0.002 c -0.39073,0.31672 -0.77288,0.63919 -1.15235,0.9668 -1.56794,-0.71252 -3.50792,-0.14301 -4.6914,-1.49805 3.79003,-0.9699 4.85455,-3.16357 6.14257,-4.625 z m 4.58008,1.37891 c 1.36038,0.85017 2.99603,1.23154 4.1582,2.38671 0.14363,0.0745 0.43685,0.21738 0.58399,0.29297 1.4956,1.46056 2.50496,3.33551 2.83008,5.40821 -0.0986,0.34356 -0.1947,0.68804 -0.29297,1.03515 -0.46813,0.34318 -0.9442,0.68354 -1.42578,1.01172 -1.20817,-0.64267 -2.64121,-0.83213 -3.72461,-1.69726 -0.83566,-0.33638 -1.71796,-0.55151 -2.53321,-0.92969 -0.31174,-0.97108 -0.8669,-1.82942 -1.29296,-2.73828 0.0302,-1.71799 1.19591,-3.16777 1.69726,-4.76953 z m -62.167967,4.54296 c 5.263148,-0.14959 11.018737,1.58743 11.726563,2.94727 -0.638914,2.3147 -1.364193,4.61533 -2.214844,6.86328 -2.941731,-0.61277 -12.622702,-7.85207 -14.40625,-8.94726 1.439509,-0.55273 3.140148,-0.81342 4.894531,-0.86329 z m 21.742188,9.95508 c 3.342989,-0.046 7.186632,0.71568 10.134765,1.88672 -1.195597,3.84735 -2.431679,7.67911 -3.630859,11.52539 -0.843379,-0.26608 -1.686798,-0.53055 -2.53125,-0.79297 -0.332977,-0.70847 -0.662056,-1.4159 -0.986328,-2.1289 -1.272163,-0.33638 -6.214152,-2.17984 -6.845703,-3.32618 -0.677216,-0.97701 0.01869,-2.1318 -0.07617,-3.20507 -0.492582,-0.21355 -1.084751,-0.27622 -1.492188,-0.64453 0.07967,-0.76014 0.240275,-1.5099 0.251953,-2.27344 1.34363,-0.69476 3.169988,-1.01342 5.175782,-1.04102 z m -13.615235,3.64844 a 11.35324,1.9032892 29.942335 0 0 0.02539,0.0117 c -0.01277,0.009 -0.02208,0.0206 -0.03516,0.0293 0.003,-0.0138 0.0068,-0.0272 0.0098,-0.041 z m 27.699219,1.46094 c 1.893136,0.0231 5.016161,0.59907 5.804687,0.79492 1.864328,-0.11339 9.599298,2.38946 9.667968,2.4082 -0.30274,3.36972 -1.868523,6.46507 -2.681639,9.72461 -2.205589,0.73274 -15.85401,-3.12462 -16.767579,-3.46289 -0.131974,-1.40239 2.571898,-9.1326 2.625,-9.26953 0.225638,-0.14931 0.720518,-0.203 1.351563,-0.19531 z m 19.425785,4.86328 c 2.66218,0.54161 4.409,1.63608 6.56836,3.10351 -0.0745,0.20561 -0.2279,0.60861 -0.30274,0.81055 -2.6592,1.76852 -5.41028,3.54037 -8.5957,4.17578 -0.002,-1.46241 1.08559,-6.08481 1.83594,-7.8164 0.12359,-0.0707 0.37107,-0.2073 0.49414,-0.27344 z m 14.67382,7.93164 c 1.02032,0.48432 2.06984,0.92333 3.06641,1.46094 0.2514,0.13562 0.50108,0.27251 0.74414,0.42382 0.15232,0.32429 0.30791,0.64619 0.4668,0.97266 -1.5e-4,0.005 1.5e-4,0.0104 0,0.0156 l 1.65039,3.5 c 0.002,-3.1e-4 0.004,-0.002 0.006,-0.002 -5.91737,3.81507 -12.58868,6.55538 -19.74805,7.94141 3.41337,-3.59075 7.97294,-6.92716 10.40625,-7.70117 l 0.79688,-2.4336 c 0.002,-0.008 0.005,-0.0156 0.008,-0.0234 0.17651,-0.57445 0.35538,-1.14876 0.52539,-1.72461 -0.14929,-0.47244 -0.28926,-0.94796 -0.41992,-1.42188 0.88161,-0.21279 1.71701,-0.54864 2.49804,-1.00781 z"
       transform="matrix(0.26458333,0,0,0.26458333,73.59244,105.34254)"
       id="path77"
       inkscape:connector-curvature="0" />
    <text
       xml:space="preserve"
       style="font-style:normal;font-weight:normal;font-size:10.58333302px;line-height:1.25;font-family:sans-serif;letter-spacing:0px;word-spacing:0px;display:inline;fill:#000000;fill-opacity:1;stroke:none;stroke-width:0.26458332"
       id="text210"
       transform="matrix(0.4890935,0,0,0.4890935,46.033048,62.254411)"><textPath
         xlink:href="#path39"
         id="textPath4566"><tspan
   style="font-style:normal;font-variant:normal;font-weight:bold;font-stretch:normal;font-size:5.64444447px;font-family:Cinzel;-inkscape-font-specification:'Cinzel, Bold';font-variant-ligatures:normal;font-variant-caps:normal;font-variant-numeric:normal;font-feature-settings:normal;text-align:start;writing-mode:lr-tb;text-anchor:start;fill:#ffffff;stroke-width:0.26458332"
   id="tspan208">San Leandro High Makers Club</tspan></textPath></text>
  </g>
  <g
     inkscape:groupmode="layer"
     id="layer4"
     inkscape:label="Text"
     style="display:inline"
     transform="translate(-73.59244,-105.34254)">
    <circle
       id="path39"
       cx="-124.1705"
       cy="-125.5029"
       style="fill:none;fill-opacity:1;stroke-width:0.73561817"
       r="33.363476"
       transform="rotate(-173)" />
  </g>
</svg>
