<?xml version="1.0" encoding="UTF-8" standalone="no"?>
<svg
   xmlns:dc="http://purl.org/dc/elements/1.1/"
   xmlns:cc="http://creativecommons.org/ns#"
   xmlns:rdf="http://www.w3.org/1999/02/22-rdf-syntax-ns#"
   xmlns:svg="http://www.w3.org/2000/svg"
   xmlns="http://www.w3.org/2000/svg"
   enable-background="new"
   id="svg8"
   version="1.1"
   viewBox="0 0 215.9 279.4"
   height="11in"
   width="8.5in">
  <defs
     id="defs2" />
  <metadata
     id="metadata5">
    <rdf:RDF>
      <cc:Work
         rdf:about="">
        <dc:format>image/svg+xml</dc:format>
        <dc:type
           rdf:resource="http://purl.org/dc/dcmitype/StillImage" />
        <dc:title></dc:title>
      </cc:Work>
    </rdf:RDF>
  </metadata>
  <g
     id="layer3">
    <path
       style="display:inline;fill:#000000;stroke-width:0.25881195;stroke-linecap:round;stroke-linejoin:round"
       d="m 79.466972,88.09794 -1.051424,5.989038 0.0039,0.0039 c -1.285258,0.210026 -2.528719,0.546611 -3.716404,0.99487 v -0.0039 l -3.902368,-4.662753 -3.667884,2.119022 2.082658,5.710039 0.008,0.0039 c -0.994351,0.816292 -1.905757,1.730936 -2.721536,2.725684 l -0.0039,-0.0122 -5.710039,-2.082666 -2.119022,3.667886 4.662626,3.90651 c -0.447486,1.18666 -0.781092,2.42831 -0.990732,3.71228 l -0.0039,-0.004 -5.989038,1.05143 v 4.23804 l 5.989038,1.05142 0.0039,-0.004 c 0.20964,1.28397 0.543246,2.52562 0.990732,3.7124 l -4.662626,3.90638 2.119022,3.66788 5.710039,-2.08266 0.0039,-0.0122 c 0.815779,0.99475 1.727185,1.90939 2.721536,2.72555 l -0.008,0.004 -2.082658,5.71004 3.667884,2.11903 3.902368,-4.6625 v -0.004 c 1.187685,0.44826 2.431146,0.78485 3.716404,0.99487 l -0.0039,0.004 1.051424,5.98904 h 4.234038 l 1.051424,-5.98904 -0.0039,-0.004 c 1.284868,-0.20951 2.528721,-0.54325 3.716406,-0.99073 l 3.90638,4.66263 3.667884,-2.11903 -2.086669,-5.71004 c 0.992156,-0.81422 1.903043,-1.72562 2.717526,-2.71752 l 5.714049,2.08266 2.11501,-3.66789 -4.658613,-3.9065 c 0.447613,-1.18691 0.785103,-2.42818 0.994743,-3.71228 l 5.98916,-1.04739 v -4.23804 l -5.98916,-1.05143 c -0.20977,-1.2828 -0.54765,-2.52264 -0.994748,-3.70826 l 4.658608,-3.9065 -2.11501,-3.667767 -5.714044,2.082537 c -0.814478,-0.991897 -1.72537,-1.903308 -2.717526,-2.717532 l 2.086674,-5.710039 -3.667884,-2.119022 -3.90638,4.662626 C 87.277242,94.63445 86.033389,94.300712 84.748516,94.091204 l 0.0039,-0.0039 -1.051419,-5.989038 h -4.234038 z m 2.119026,10.311974 c 8.244454,0 14.930861,6.681746 14.930861,14.925686 0,8.24446 -6.685761,14.92569 -14.930861,14.92569 -8.244456,0 -14.925687,-6.68175 -14.925687,-14.92569 0,-8.24445 6.681622,-14.925686 14.925687,-14.925686 z"
       id="path77" />
    <path
       style="display:inline;stroke-width:0.01881776"
       d="m 92.652067,121.68638 c -0.140669,-0.0665 -0.27917,-0.14285 -0.386374,-0.25747 0.253497,-0.32797 0.602416,-0.56813 0.940438,-0.80114 0.0156,-0.0624 0.04774,-0.18795 0.06376,-0.25117 -0.539387,0.057 -0.964658,0.42025 -1.445868,0.62832 -0.417309,0.0368 -1.549115,-1.0019 -2.445213,-1.34627 -0.266169,-0.11084 -0.312707,-0.42085 -0.402812,-0.65994 -0.236487,-0.15924 -0.49331,-0.28444 -0.758423,-0.38633 0.592855,-0.42491 1.200813,-0.84892 1.642973,-1.43968 0.357361,-1.06899 0.491681,-0.93965 0.553595,-2.22568 0.05459,-0.66731 -0.160814,-2.05531 -0.548132,-2.41721 -0.532613,-0.22505 -0.780711,-0.56639 -1.298724,-0.8299 0.290849,-0.27866 0.68565,-0.42933 0.943084,-0.74546 0.734903,-0.82095 0.886453,-2.37827 0.419305,-3.20021 -0.451526,-0.26743 -0.895819,-0.55471 -1.291764,-0.90081 -0.05746,-0.0191 -0.172083,-0.0584 -0.229693,-0.077 -0.0089,-0.20966 0.02279,-0.41707 0.06441,-0.62231 0.08089,-0.0764 -0.08026,0.0776 0,0 -0.01854,-0.12129 0.01738,0.12187 0,0 0.232153,0.14245 0.493772,-0.22048 0.474227,0.0399 0.09735,0.0605 0.195193,0.11928 0.29511,0.17771 0.01335,-0.12468 0.02729,-0.24824 0.04059,-0.37295 0.216077,-0.36189 0.270523,-0.77861 0.228368,-1.19114 -0.304294,-0.20655 -0.612795,-0.40581 -0.927248,-0.59538 -0.199653,0.44403 -0.220963,0.9693 -0.516258,1.36586 -0.01364,0.0351 -0.04182,0.10514 -0.05574,0.14019 0.0084,0.17484 0.01384,0.34974 0.01726,0.52497 -0.07228,0.0156 -0.144581,0.0313 -0.216859,0.047 -0.665216,-0.48895 -0.929874,-0.5889 -1.226059,-0.82237 0.03008,-0.46679 0.260334,-1.33766 -0.01893,-1.95983 -0.312707,-0.16722 -2.06239,-1.24101 -2.166983,-1.29508 0.05133,-0.15795 0.112423,-0.31378 0.132652,-0.47862 -0.0635,-0.0854 0.06892,0.0804 0,0 0.05986,-0.40345 -0.120014,0.38063 0,0 0.09654,0.13917 0.538527,-0.99711 0.511181,-0.82489 0.04152,0.0208 -0.04181,-0.0199 0,0 0.08745,0.0949 0.176299,0.18834 0.263763,0.28324 -0.03135,-0.33612 0.08682,-0.65373 0.189651,-0.96763 -0.196801,-0.288129 -0.189274,-0.662857 -0.411078,-0.935776 -0.157972,-0.07868 -0.309176,-0.169652 -0.459244,-0.26122 -0.104182,0.333669 -0.208173,0.66838 -0.32085,0.999386 -0.411377,0.37469 -0.195119,-0.2077 -0.376832,1.25014 -0.224592,0.0533 -0.432188,0.15332 -0.556232,0.35758 -0.967118,-0.45982 -1.881097,-1.0241 -2.838625,-1.50206 -0.01991,0.0582 -0.0604,0.17336 -0.07982,0.23169 0.365773,0.61282 0.829326,1.3824 0.349447,2.56525 -0.388462,1.46925 -0.98474,2.23702 -1.899262,2.92985 -0.407128,0.20184 -0.613636,0.53795 -0.535513,0.36507 0.08417,0.24874 -0.07576,-0.25092 0,0 -0.299756,-0.19649 -0.599585,-0.39589 -0.883181,-0.61613 -0.267138,-0.52578 0.008,-1.09033 0.185181,-1.59724 0.10291,-0.0243 -0.101336,0.0315 0,0 0.0155,-0.13461 -0.01345,0.13428 0,0 0.16706,0.24508 0.41979,0.0843 0.593922,0.33448 0.06257,0.0182 0.187695,0.0546 0.249565,0.0719 -0.0015,-0.0746 -0.0039,-0.1485 -0.0059,-0.22218 0.155346,-0.2425 0.233498,-0.52091 0.316414,-0.79298 -0.110246,-0.21177 0.01151,-0.58898 -0.146358,-0.76863 0.01516,-0.0529 -0.01459,0.0531 0,0 0.04495,0.0101 -0.04573,-0.0105 0,0 0.0337,-0.10194 0.06857,-0.20446 0.102333,-0.30635 -0.06303,-0.35849 -0.297139,-0.63816 -0.553791,-0.87978 -0.100181,-0.0331 -0.199936,-0.0677 -0.299946,-0.10134 -0.134462,0.61563 -0.363924,1.20611 -0.487005,1.82533 -0.130089,0.0705 -0.260031,0.14121 -0.390306,0.21266 -9.78e-4,0.0575 -0.0044,0.17184 -0.0061,0.22991 0.308129,0.35304 -0.02612,0.78157 -0.09333,1.16252 -0.16055,0.0302 -0.338942,0.14132 -0.495301,0.0389 -0.695984,-0.36471 -1.273601,-0.90952 -1.952389,-1.3044 0.07359,0.57068 0.506764,0.81787 0.784911,2.3466 0.308837,2.37097 -0.672435,4.26024 -1.988937,5.13344 -0.460921,-1.27102 -1.001442,-6.28511 -1.529737,-6.62972 -0.125153,1.67716 0.32988,2.99243 -1.033371,8.94032 -0.324481,2.16336 -1.680594,3.10142 -2.53133,3.2106 0.12837,-0.24236 0.353727,-1.015 0.581077,-1.14726 -0.0046,-0.21408 0.0078,0.21315 0,0 0.133344,-0.0965 0.264371,-0.19467 0.397122,-0.29229 -0.239773,-0.21895 -0.315197,-0.53806 -0.476584,-0.80732 -0.03311,0.0685 -0.639945,0.38503 -0.673058,0.45348 -0.177652,0.0662 0.182226,-0.0532 0,0 -0.006,0.0434 -0.01789,0.12999 -0.0245,0.17219 0.04141,0.33244 -0.208825,0.61046 -0.217664,0.94053 0.238646,0.51152 0.25758,0.0162 -0.866475,3.6451 0.102233,0.60943 0.338658,1.19288 0.389078,1.81101 -0.660907,0.71314 -0.319804,-0.18008 -0.578273,1.83406 -0.105796,2.46021 -4.019976,0.49632 16.602825,6.48258 0.440932,-1.45716 3.46643,-3.84683 4.165996,-3.70244 0.979796,0.13568 2.68841,0.10838 3.662028,-0.51446 0.344469,-0.31756 0.74958,-0.56504 1.056565,-0.92232 0.141827,-0.18134 0.275169,-0.36924 0.421681,-0.5472 0.236996,-0.55443 0.352823,-1.89555 0.0074,-2.23239 z m -18.168485,-9.72762 c -0.103013,0.42738 -0.220283,0.85121 -0.350093,1.27203 -0.132124,0.0834 -0.265583,0.17409 -0.423873,0.20019 -9.78e-4,-0.005 -0.283704,-1.42589 -0.284799,-1.43085 0.01379,-0.0485 0.03942,-0.14631 0.05193,-0.19527 0.775795,0.0861 0.06365,-0.0293 1.006833,0.15391 z m -6.374495,6.19133 c 0.04232,-0.13096 0.08416,-0.26206 0.126211,-0.39216 0.05534,-0.0229 0.165418,-0.07 0.22076,-0.093 -0.0683,0.22475 -0.137334,0.4502 -0.201671,0.6762 -0.03676,-0.0482 -0.108819,-0.14301 -0.145601,-0.19116 z m 0.60719,0.52431 c -0.0341,-0.0445 -0.104586,-0.13207 -0.138686,-0.17647 0.05528,-0.17209 0.11038,-0.34521 0.165663,-0.51729 l 0.17414,0.0549 z m 0.235318,0.14154 c 0.07216,-0.23699 0.145788,-0.48987 0.380543,-0.61499 -0.05697,0.22638 -0.125554,0.45007 -0.195907,0.6732 z m 0.768369,0.33654 c -0.04419,-0.0124 -0.133207,-0.0352 -0.177489,-0.0473 l 0.167468,-0.53113 c 0.04375,0.0138 0.131538,0.0404 0.175292,0.0542 z m 0.281393,0.31574 c 0.06852,-0.21408 0.137521,-0.42802 0.2067,-0.64093 l 0.173257,0.0546 c -0.05177,0.16743 -0.104267,0.33557 -0.154907,0.50431 -0.05651,0.0206 -0.168468,0.0613 -0.225005,0.082 z m 0.44987,0.27269 c -0.01148,-0.25952 0.09247,-0.5038 0.165398,-0.7473 0.267533,0.23155 -0.09211,0.50874 -0.165398,0.7473 z m 0.538242,0.26398 c -0.181579,-0.22656 -0.03352,-0.48869 0.03251,-0.72858 0.04375,0.0138 0.133,0.0419 0.177053,0.0548 -0.06191,0.22676 -0.112989,0.45887 -0.209832,0.67363 z m 0.326953,0.1743 c 0.02283,-0.25544 0.03342,-0.54841 0.277041,-0.69861 0.06368,0.20383 -4.4e-5,0.40594 -0.04905,0.60406 -0.05735,0.0233 -0.170639,0.0712 -0.227995,0.0945 z m -3.017144,-3.12355 c -0.02394,-0.0431 0.02305,0.0429 6e-6,-1e-5 1.523481,-0.58497 4.1479,0.0718 4.397605,0.55152 -0.169046,0.61243 -0.361065,1.22143 -0.586133,1.8162 -0.778333,-0.16213 -3.339575,-2.07795 -3.811472,-2.36772 z m 3.442702,3.38181 c 0.04584,-0.21257 0.10718,-0.41931 0.171455,-0.62609 0.03162,0.0523 0.09686,0.15657 0.128485,0.20886 -0.07964,0.15191 -0.150369,0.31816 -0.29992,0.41723 z m 2.008226,-4.8224 c 0.0701,-0.36271 0.217534,-0.70296 0.312628,-1.05872 l 0.06844,0.0302 c -0.132295,0.34019 -0.159034,0.72715 -0.381033,1.02849 z m 5.665445,-9.52605 c 1.013475,-0.19334 2.154369,-0.0644 2.83325,0.17661 -0.07349,0.22983 -0.128182,0.46754 -0.235225,0.68486 -0.107385,0.0873 -0.227482,0.16011 -0.342565,0.23831 -0.03766,0.11128 -0.07511,0.22357 -0.110692,0.33643 -0.146973,-0.12651 -1.790063,-1.10054 -1.806751,-1.11031 -0.09817,-0.11274 -0.412242,-0.13572 -0.33788,-0.32584 z m -4.012331,6.02219 c 0.172415,0.039 0.346278,0.0948 0.525795,0.0715 0.436124,0.10577 0.871686,0.23156 1.264722,0.45263 -0.47202,0.66407 -1.508442,0.56146 -2.213111,0.91071 -0.178357,-0.0293 0.06122,0.14146 0,0 0.07817,-0.49196 0.28968,-0.95533 0.422609,-1.43483 z m -0.641767,1.83713 c 0.117637,-0.0986 0.331048,0.0851 0.184501,0.19287 -0.116576,0.095 -0.331087,-0.088 -0.184501,-0.19287 z m -1.374773,4.39683 c 0.245368,0.15239 0.343837,0.42589 0.415196,0.6908 -0.03159,0.0872 -0.06185,0.17484 -0.09349,0.26298 -0.263993,0.19958 -0.530843,0.40213 -0.847044,0.51407 0.06794,-0.13921 0.137961,-0.27589 0.210024,-0.41287 0.01012,-0.3739 0.168757,-0.71831 0.315299,-1.05498 z m -0.595471,2.61171 c -0.08767,-0.19793 -0.06178,-0.40816 -0.0035,-0.60817 0.06031,-0.0204 0.181213,-0.0622 0.241543,-0.0826 -0.07219,0.23221 -0.147908,0.46423 -0.237995,0.69074 z m 0.469705,0.0846 c -0.04373,-0.0138 -0.13095,-0.0423 -0.174704,-0.0561 l 0.165534,-0.52501 0.174997,0.0552 z m -0.187807,-1.03664 c 1.03725,-0.51995 0.651615,0.10893 0.649541,0.22214 -0.218327,-0.0704 -0.43499,-0.1429 -0.649541,-0.22214 z m 1.099032,-1.3957 c 0.0039,-0.0653 0.236091,-1.23901 -0.07142,-2.65074 0.14416,-0.5 0.308941,-0.99448 0.463739,-1.49211 0.29396,-0.10549 0.574621,-0.24498 0.869225,-0.34642 1.102455,1.30524 -0.101427,3.4116 -0.603598,3.99831 -0.1117,0.12543 -0.217158,0.25576 -0.311304,0.39535 -0.105634,0.0879 -0.214389,0.2345 -0.346645,0.0956 z m -0.516619,2.67893 c -0.03389,-0.0511 -0.100861,-0.15301 -0.134789,-0.20411 0.06556,-0.17752 0.141049,-0.35286 0.276122,-0.48824 0.02206,0.0455 0.06723,0.13761 0.08947,0.18309 -0.07994,0.16816 -0.15494,0.33884 -0.230793,0.50925 z m 3.41185,1.72222 c -0.223144,-0.0704 -0.446269,-0.14071 -0.669697,-0.21014 -0.0881,-0.18745 -0.175291,-0.37464 -0.261088,-0.56329 -0.336593,-0.089 -1.644026,-0.57656 -1.811124,-0.87986 -0.17918,-0.25852 0.0049,-0.56417 -0.0202,-0.84814 -0.130329,-0.0565 -0.286731,-0.0731 -0.394532,-0.17055 0.02108,-0.20112 0.06342,-0.39945 0.06651,-0.60147 0.948005,-0.49019 2.802679,-0.27196 4.050722,0.22378 -0.316384,1.0181 -0.643235,2.03195 -0.960564,3.04977 z m 2.163861,-7.87585 c -1.169872,-0.3843 -2.352769,-0.73029 -3.519613,-1.12415 0.53205,-0.36328 1.22689,-0.31833 1.818326,-0.54647 0.374152,0.0368 0.347212,0.0411 0.663328,0.0167 0.835215,0.0213 1.31662,0.11967 1.737798,0.13906 -0.16795,1.37942 -0.431816,1.33686 -0.699839,1.51481 z m 6.024762,-5.78691 c 0.05329,0.0111 -0.07765,-0.24196 -0.02411,-0.23176 0.494611,-0.0778 1.300671,0.0388 1.825928,0.20438 l -0.208853,0.66239 c -0.09714,0.0523 -0.193045,0.10546 -0.289607,0.15882 -0.545001,-0.20502 -1.153634,-0.62482 -1.30336,-0.79383 -0.09578,-0.0379 -0.191319,-0.0767 -0.287392,-0.11369 z m -0.504241,7.27741 c -0.10338,0.0838 -0.204441,0.16931 -0.304847,0.25599 -0.414845,-0.18852 -0.928231,-0.0383 -1.241363,-0.39682 1.002779,-0.25662 1.284427,-0.83674 1.625218,-1.22341 l 0.322014,0.10152 c -0.132989,0.42177 -0.264291,0.84311 -0.400729,1.26281 z m -1.852192,-1.58258 c 0.08795,0.0262 0.176318,0.051 0.264433,0.0767 0.06936,0.13432 0.139602,0.26817 0.213034,0.40182 -0.07451,0.25453 -0.658525,0.53725 -0.826211,0.74796 -0.657503,-0.17556 -1.542293,-0.81553 -2.110057,-1.19942 2.721564,0.75261 0.902849,-0.66291 1.652872,-0.85166 z m 2.179689,-7.45622 c -0.0084,-0.0314 0.254875,-0.1553 0.246755,-0.18769 0.09307,-0.0206 -0.09369,0.0195 0,0 -0.02533,0.40376 -0.104402,0.80403 -0.337122,1.14241 -0.521276,0.43726 -0.999414,0.60047 -1.545995,0.14649 -0.09585,-0.0408 -0.191686,-0.0816 -0.287225,-0.12035 0.02137,-0.0597 0.265845,0.17902 0.287225,0.12035 0.05644,0.0131 -0.05564,-0.0128 0,0 0.543124,-0.25494 1.06121,-0.92176 1.636311,-1.10116 z m -2.282712,-0.31474 c 0.07874,-0.24646 0.155336,-0.49264 0.233141,-0.73938 0.08251,0.007 0.165015,0.0135 0.247564,0.0203 0.17156,0.0753 0.345041,0.14438 0.520538,0.21028 0.221417,0.3565 0.26501,0.84066 -0.005,1.18457 -0.232598,0.23741 -0.58923,0.25772 -0.890869,0.35405 -0.109102,-0.0354 -0.218023,-0.0713 -0.327399,-0.10579 0.16368,-0.17735 0.327272,-0.35762 0.426362,-0.58034 -0.06888,-0.1141 -0.136354,-0.22963 -0.204368,-0.34344 z m -1.957391,6.51621 c 0.425633,0.12071 0.839069,0.27706 1.254485,0.43015 -0.427384,0.46458 -1.010716,0.81651 -1.652872,0.85166 0.125027,-0.43004 0.264801,-0.85448 0.398406,-1.2818 z m -0.03023,2.06074 c -0.134804,-0.0819 0.128304,0.0905 0,0 0.06187,-0.0806 0.321658,0.32847 0.394523,0.25908 0.182158,0.0844 -0.396723,-0.43199 -0.394523,-0.25908 z m 1.648656,8.38526 c -0.583562,0.19387 -4.194926,-0.82643 -4.436641,-0.91593 -0.03492,-0.37105 0.680368,-2.41634 0.69442,-2.45257 0.2388,-0.15802 1.615187,0.0892 1.893364,0.15829 0.49327,-0.03 2.53997,0.63231 2.55814,0.63727 -0.08006,0.89157 -0.494146,1.71052 -0.709283,2.57294 z m 5.254483,-14.56288 c 0.20763,0.11644 0.41388,0.23727 0.619554,0.35695 0.221628,0.22767 0.307219,0.5298 0.366448,0.83321 -0.06969,0.2243 -0.210628,0.4117 -0.376284,0.57401 -0.353487,-0.22232 -0.435308,-0.2664 -0.649623,-0.40492 0.03213,-0.0986 0.06468,-0.19702 0.09773,-0.29532 -0.08183,-0.1249 -0.163973,-0.2489 -0.248924,-0.36997 0.06179,-0.23256 0.125022,-0.4637 0.190874,-0.69402 z m -1.669692,5.95466 c 0.360002,0.22511 0.792864,0.32599 1.10049,0.63174 0.038,0.0197 0.115558,0.0576 0.154485,0.0776 0.39571,0.38644 0.662643,0.88235 0.74866,1.43075 -0.02607,0.0909 -0.05161,0.18191 -0.07765,0.27375 -0.123862,0.0908 -0.249501,0.18106 -0.376919,0.26789 -0.319662,-0.17004 -0.699155,-0.22046 -0.985812,-0.44936 -0.221095,-0.089 -0.454266,-0.14579 -0.669966,-0.24585 -0.08252,-0.25693 -0.229306,-0.48404 -0.342028,-0.72451 0.0077,-0.45455 0.316248,-0.83826 0.4489,-1.26206 z m -1.96036,6.547 c 0.03267,-0.0187 0.09797,-0.0549 0.130553,-0.0724 0.704378,0.1433 1.16687,0.433 1.738204,0.82126 -0.01971,0.0544 -0.06032,0.16088 -0.08008,0.21431 -0.70358,0.46792 -1.431537,0.93684 -2.274353,1.10496 -4.89e-4,-0.38693 0.287132,-1.61004 0.485665,-2.06819 z m 0.454485,2.29919 c -0.16706,-0.0132 -0.333542,-0.0253 -0.500377,-0.0423 0.433469,-0.22002 1.0126,-0.27474 1.705538,-0.39926 0.555981,0.0534 0.403565,-0.0314 0.933219,0.073 -0.347794,0.30426 -0.328299,0.43867 -2.13838,0.36859 z m 4.519361,1.0594 c -0.181698,0.0907 -0.369232,0.17026 -0.57155,0.20171 -0.391236,-0.0406 -0.788849,-0.0275 -1.172054,-0.12712 0.07935,-0.25493 0.157968,-0.50914 0.233312,-0.76436 -0.03952,-0.125 -0.07694,-0.25032 -0.111469,-0.37571 0.233264,-0.0563 0.454666,-0.14524 0.661313,-0.26673 0.338062,0.16047 0.688541,0.29984 1.007782,0.49862 0.04025,0.0858 0.08175,0.17102 0.123736,0.2574 -0.0029,0.10395 -0.0039,0.20754 -0.0039,0.31142 -0.05572,0.0883 -0.112305,0.17623 -0.167138,0.26479 z"
       id="path67" />
    <g
       id="text210"
       style="font-style:normal;font-weight:normal;font-size:10.58333302px;line-height:1.25;font-family:sans-serif;letter-spacing:0px;word-spacing:0px;display:inline;fill:#000000;fill-opacity:1;stroke:none;stroke-width:0.26458332"
       transform="matrix(0.4890935,0,0,0.4890935,28.788517,45.00981)"
       aria-label="San Leandro High Makers Club">
      <path
         id="path846"
         style="font-style:normal;font-variant:normal;font-weight:bold;font-stretch:normal;font-size:5.64444447px;font-family:Cinzel;-inkscape-font-specification:'Cinzel, Bold';font-variant-ligatures:normal;font-variant-caps:normal;font-variant-numeric:normal;font-feature-settings:normal;text-align:start;writing-mode:lr-tb;text-anchor:start;fill:#ffffff;stroke-width:0.26458332"
         d="m 74.328389,135.26166 q -0.400608,-0.0684 -0.654935,-0.28928 l 0.0085,-0.0501 q 0.04356,0.0132 0.08808,0.0207 0.383916,0.0655 0.719772,-0.15773 0.331243,-0.22978 0.412905,-0.70828 0.06362,-0.37279 -0.07929,-0.60904 -0.141964,-0.24182 -0.4146,-0.28835 -0.161356,-0.0275 -0.307369,0.0563 -0.145065,0.0783 -0.341688,0.29098 l -0.805085,0.85893 q -0.453768,0.47799 -0.982347,0.38778 -0.05564,-0.009 -0.109381,-0.0301 -0.433859,-0.1084 -0.648704,-0.46 -0.213896,-0.35716 -0.125587,-0.87462 0.05223,-0.30601 0.184782,-0.7472 l 0.05982,-0.35053 0.805564,0.21191 -0.0095,0.0556 q -0.289328,-0.0494 -0.498845,0.13819 -0.214131,0.18104 -0.274904,0.53714 -0.07407,0.43399 0.159771,0.67431 0.11088,0.12199 0.238852,0.14383 0.127972,0.0218 0.225542,-0.013 0.157958,-0.0532 0.369507,-0.28623 l 0.871303,-0.94498 q 0.413737,-0.44473 0.942317,-0.35452 0.589784,0.10065 0.837613,0.56095 0.243215,0.45378 0.129267,1.12146 -0.06457,0.37835 -0.208669,0.68587 -0.148714,0.30101 -0.330144,0.42465 -0.112363,0.0209 -0.262591,-0.005 z" />
      <path
         id="path848"
         style="font-style:normal;font-variant:normal;font-weight:bold;font-stretch:normal;font-size:5.64444447px;font-family:Cinzel;-inkscape-font-specification:'Cinzel, Bold';font-variant-ligatures:normal;font-variant-caps:normal;font-variant-numeric:normal;font-feature-settings:normal;text-align:start;writing-mode:lr-tb;text-anchor:start;fill:#ffffff;stroke-width:0.26458332"
         d="m 76.27176,128.85545 0.01207,-0.0435 0.05439,0.0151 -0.443678,1.59905 -0.05439,-0.0151 0.01207,-0.0435 q 0.03018,-0.10878 -0.0215,-0.17584 -0.05169,-0.0671 -0.106075,-0.0822 -0.05439,-0.0151 -0.120255,-0.01 l -0.55924,0.0733 -0.319931,1.15306 0.44546,0.3579 q 0.04835,0.0369 0.108181,0.0534 0.05439,0.0151 0.13324,-0.0157 0.07492,-0.0378 0.105102,-0.14657 l 0.01207,-0.0435 0.05439,0.0151 -0.301822,1.08779 -0.05439,-0.0151 0.01207,-0.0435 q 0.03169,-0.11422 -0.0073,-0.24806 -0.03901,-0.13383 -0.160809,-0.24378 l -2.102515,-1.79591 q -0.472057,-0.38871 -0.594135,-0.4343 l 0.01358,-0.0489 3.461139,-0.60952 q 0.177349,-0.0269 0.285186,-0.12004 0.103907,-0.10004 0.137107,-0.21969 z m -1.733002,2.31913 0.268622,-0.96814 -1.269546,0.16323 z" />
      <path
         id="path850"
         style="font-style:normal;font-variant:normal;font-weight:bold;font-stretch:normal;font-size:5.64444447px;font-family:Cinzel;-inkscape-font-specification:'Cinzel, Bold';font-variant-ligatures:normal;font-variant-caps:normal;font-variant-numeric:normal;font-feature-settings:normal;text-align:start;writing-mode:lr-tb;text-anchor:start;fill:#ffffff;stroke-width:0.26458332"
         d="m 74.173155,125.18843 0.605529,-1.46596 0.05217,0.0216 -0.03663,0.0887 q -0.04956,0.11999 -0.011,0.23363 0.04071,0.10842 0.15333,0.16105 l 2.279789,0.94169 q 0.323448,0.1336 0.549364,0.17807 l 0.07735,0.0197 -0.01939,0.047 -3.10195,1.52183 1.726797,0.71327 q 0.116927,0.0422 0.227504,-0.004 0.107515,-0.0533 0.157078,-0.17329 l 0.03663,-0.0887 0.05217,0.0215 -0.603374,1.46074 -0.05217,-0.0215 0.03448,-0.0835 q 0.04956,-0.11999 0.01101,-0.23363 -0.04378,-0.1158 -0.158548,-0.1632 l -2.295439,-0.94816 q -0.313015,-0.1293 -0.533713,-0.1716 l -0.07735,-0.0197 0.02461,-0.0448 3.089362,-1.52092 -1.716363,-0.70897 q -0.114772,-0.0474 -0.222287,0.006 -0.110578,0.0459 -0.16014,0.16592 l -0.03663,0.0887 z" />
      <path
         id="path852"
         style="font-style:normal;font-variant:normal;font-weight:bold;font-stretch:normal;font-size:5.64444447px;font-family:Cinzel;-inkscape-font-specification:'Cinzel, Bold';font-variant-ligatures:normal;font-variant-caps:normal;font-variant-numeric:normal;font-feature-settings:normal;text-align:start;writing-mode:lr-tb;text-anchor:start;fill:#ffffff;stroke-width:0.26458332"
         d="m 78.746396,123.3699 q 0.07709,-0.12487 0.04402,-0.2647 -0.03492,-0.14759 -0.156826,-0.22949 l -2.660787,-1.6427 q -0.127839,-0.0723 -0.270629,-0.0344 -0.144628,0.0301 -0.221722,0.15499 l -0.03855,0.0624 -0.04803,-0.0297 0.901412,-1.46007 0.04506,0.0345 -0.03558,0.0576 q -0.07709,0.12487 -0.04218,0.27247 0.03011,0.14462 0.154987,0.22172 l 2.804873,1.73166 0.388438,-0.62918 q 0.216457,-0.35061 0.16003,-0.71048 -0.05346,-0.36468 -0.352118,-0.70827 l 0.02965,-0.048 0.843386,0.82583 -1.535959,2.48788 -0.04803,-0.0297 z" />
      <path
         id="path854"
         style="font-style:normal;font-variant:normal;font-weight:bold;font-stretch:normal;font-size:5.64444447px;font-family:Cinzel;-inkscape-font-specification:'Cinzel, Bold';font-variant-ligatures:normal;font-variant-caps:normal;font-variant-numeric:normal;font-feature-settings:normal;text-align:start;writing-mode:lr-tb;text-anchor:start;fill:#ffffff;stroke-width:0.26458332"
         d="m 82.195387,118.44685 -1.615298,2.11154 -0.04483,-0.0343 0.04115,-0.0538 q 0.07888,-0.10311 0.06307,-0.2218 -0.01238,-0.12318 -0.107574,-0.20311 l -2.133958,-1.63244 q -0.102057,-0.071 -0.224176,-0.0507 -0.118689,0.0158 -0.197568,0.11891 l -0.04115,0.0538 -0.04483,-0.0343 1.207186,-1.57806 q 0.0926,-0.12104 0.179926,-0.28165 0.08733,-0.16061 0.109497,-0.23603 l 0.712813,0.54529 -0.0343,0.0448 -0.04035,-0.0309 q -0.197256,-0.15089 -0.391642,-0.12904 -0.194386,0.0219 -0.346338,0.2112 l -0.493849,0.64557 1.089395,0.83337 0.390963,-0.51107 q 0.112121,-0.15586 0.08551,-0.32545 -0.02661,-0.1696 -0.179034,-0.2862 l -0.03138,-0.024 0.0343,-0.0448 0.950418,0.72706 -0.0343,0.0448 -0.03138,-0.024 q -0.210706,-0.16118 -0.424884,-0.0763 -0.111046,0.043 -0.186495,0.1416 l -0.394393,0.51556 1.062496,0.81279 0.411541,-0.53797 q 0.208146,-0.28138 0.18974,-0.60105 -0.01946,-0.32757 -0.255721,-0.65044 l 0.03087,-0.0404 z" />
      <path
         id="path856"
         style="font-style:normal;font-variant:normal;font-weight:bold;font-stretch:normal;font-size:5.64444447px;font-family:Cinzel;-inkscape-font-specification:'Cinzel, Bold';font-variant-ligatures:normal;font-variant-caps:normal;font-variant-numeric:normal;font-feature-settings:normal;text-align:start;writing-mode:lr-tb;text-anchor:start;fill:#ffffff;stroke-width:0.26458332"
         d="m 84.920641,115.40283 0.03094,-0.0329 0.04111,0.0387 -1.137189,1.20856 -0.04111,-0.0387 0.03094,-0.0329 q 0.07736,-0.0822 0.06284,-0.16563 -0.01452,-0.0834 -0.05562,-0.12209 -0.04111,-0.0387 -0.101798,-0.0648 l -0.529042,-0.19553 -0.820015,0.87148 0.227582,0.52415 q 0.02564,0.0551 0.07085,0.0977 0.04111,0.0387 0.125249,0.0481 0.0839,0.001 0.161258,-0.0808 l 0.03094,-0.0329 0.04111,0.0387 -0.773598,0.82216 -0.04111,-0.0387 0.03094,-0.0329 q 0.08123,-0.0863 0.109016,-0.22294 0.02779,-0.13661 -0.02881,-0.29061 l -1.024506,-2.56832 q -0.236774,-0.56381 -0.323585,-0.66099 l 0.03481,-0.037 3.346872,1.07213 q 0.169496,0.0587 0.308274,0.0266 0.138536,-0.0402 0.223632,-0.13059 z m -2.613503,1.2455 0.688503,-0.73172 -1.199533,-0.44666 z" />
      <path
         id="path858"
         style="font-style:normal;font-variant:normal;font-weight:bold;font-stretch:normal;font-size:5.64444447px;font-family:Cinzel;-inkscape-font-specification:'Cinzel, Bold';font-variant-ligatures:normal;font-variant-caps:normal;font-variant-numeric:normal;font-feature-settings:normal;text-align:start;writing-mode:lr-tb;text-anchor:start;fill:#ffffff;stroke-width:0.26458332"
         d="m 84.765993,111.18114 1.217217,-1.01689 0.03619,0.0433 -0.07364,0.0615 q -0.09963,0.0832 -0.118274,0.20177 -0.01431,0.11493 0.06097,0.21385 l 1.581423,1.89297 q 0.224366,0.26856 0.403773,0.41288 l 0.05933,0.0534 -0.03899,0.0326 -3.453887,-0.0933 1.197829,1.43381 q 0.08394,0.0917 0.203204,0.10237 0.119971,0.003 0.219601,-0.0805 l 0.07364,-0.0615 0.03619,0.0433 -1.212885,1.01327 -0.03619,-0.0433 0.06931,-0.0579 q 0.09963,-0.0832 0.118275,-0.20178 0.01502,-0.12288 -0.06459,-0.21818 l -1.592279,-1.90596 q -0.217129,-0.2599 -0.392917,-0.39989 l -0.05933,-0.0534 0.04261,-0.0282 3.442317,0.0883 -1.190591,-1.42514 q -0.07961,-0.0953 -0.199585,-0.098 -0.119258,-0.0107 -0.218888,0.0725 l -0.07364,0.0615 z" />
      <path
         id="path860"
         style="font-style:normal;font-variant:normal;font-weight:bold;font-stretch:normal;font-size:5.64444447px;font-family:Cinzel;-inkscape-font-specification:'Cinzel, Bold';font-variant-ligatures:normal;font-variant-caps:normal;font-variant-numeric:normal;font-feature-settings:normal;text-align:start;writing-mode:lr-tb;text-anchor:start;fill:#ffffff;stroke-width:0.26458332"
         d="m 89.634892,108.32593 q 0.672918,0.0992 1.101389,0.76993 0.428471,0.67068 0.238722,1.32774 -0.192787,0.65231 -0.958603,1.14156 l -1.607738,1.02711 -0.03039,-0.0476 0.06184,-0.0395 q 0.109403,-0.0699 0.136888,-0.19462 0.02748,-0.12473 -0.03461,-0.23241 l -1.440392,-2.25464 q -0.07637,-0.0986 -0.198054,-0.1213 -0.121688,-0.0227 -0.231091,0.0472 l -0.05708,0.0365 -0.03039,-0.0476 1.607738,-1.02712 q 0.765816,-0.48924 1.441772,-0.38525 z m 0.202877,3.08543 q 0.447122,-0.28565 0.494302,-0.77795 0.05194,-0.49534 -0.318796,-1.07565 -0.370734,-0.58031 -0.842025,-0.74138 -0.469574,-0.16887 -0.916696,0.11678 l -0.537499,0.34338 1.583215,2.4782 z" />
      <path
         id="path862"
         style="font-style:normal;font-variant:normal;font-weight:bold;font-stretch:normal;font-size:5.64444447px;font-family:Cinzel;-inkscape-font-specification:'Cinzel, Bold';font-variant-ligatures:normal;font-variant-caps:normal;font-variant-numeric:normal;font-feature-settings:normal;text-align:start;writing-mode:lr-tb;text-anchor:start;fill:#ffffff;stroke-width:0.26458332"
         d="m 91.822483,106.93051 -0.162438,0.079 1.224224,2.51779 q 0.05924,0.12183 0.177479,0.15848 0.12085,0.0291 0.22745,-0.0227 l 0.05584,-0.0271 0.02468,0.0508 -1.395954,0.67875 -0.02468,-0.0508 0.06091,-0.0296 q 0.111676,-0.0543 0.150796,-0.16746 0.0442,-0.11564 -0.0101,-0.22731 l -1.174861,-2.41627 q -0.0543,-0.11168 -0.172542,-0.14833 -0.113166,-0.0391 -0.219766,0.0127 l -0.06599,0.0321 -0.02468,-0.0508 1.558392,-0.75773 q 0.456858,-0.22214 0.852892,-0.19503 0.441441,0.0301 0.663579,0.48699 0.143155,0.29442 0.08149,0.61939 -0.06413,0.31989 -0.389705,0.54096 0.159271,-0.021 0.352957,0.0418 0.198762,0.0603 0.344154,0.15276 0.303126,0.21036 0.599266,0.36763 0.293672,0.15219 0.434827,0.17143 0.146231,0.0168 0.303593,-0.0597 l 0.02468,0.0508 -0.426401,0.20733 q -0.421324,0.20486 -0.699117,0.21441 -0.272716,0.007 -0.588602,-0.19081 -0.486379,-0.30327 -0.67578,-0.52499 -0.13496,-0.12267 -0.258278,-0.15685 -0.118242,-0.0366 -0.199322,-0.01 l -0.01975,-0.0406 0.126905,-0.0617 q 0.429008,-0.21487 0.281105,-0.76431 -0.01672,-0.086 -0.04387,-0.14185 -0.02715,-0.0558 -0.07912,-0.14982 -0.05444,-0.0991 -0.174592,-0.19127 -0.117543,-0.0998 -0.236064,-0.11116 -0.204258,-0.0199 -0.374241,0.0564 -0.05831,0.0221 -0.129373,0.0566 z" />
      <path
         id="path864"
         style="font-style:normal;font-variant:normal;font-weight:bold;font-stretch:normal;font-size:5.64444447px;font-family:Cinzel;-inkscape-font-specification:'Cinzel, Bold';font-variant-ligatures:normal;font-variant-caps:normal;font-variant-numeric:normal;font-feature-settings:normal;text-align:start;writing-mode:lr-tb;text-anchor:start;fill:#ffffff;stroke-width:0.26458332"
         d="m 94.636887,107.20137 q -0.265382,-0.76825 0.09198,-1.39332 0.360856,-0.63225 1.214473,-0.92712 0.858953,-0.29671 1.533107,-0.022 0.672311,0.26939 0.937693,1.03764 0.265381,0.76826 -0.09547,1.40051 -0.3627,0.62691 -1.216317,0.92178 -0.853617,0.29487 -1.525928,0.0255 -0.674155,-0.27472 -0.939536,-1.04298 z m 0.816271,-0.28196 q 0.232209,0.67222 0.656682,0.9675 0.427964,0.2881 0.913459,0.1204 0.49083,-0.16955 0.644392,-0.65853 0.157054,-0.49616 -0.07516,-1.16839 -0.232209,-0.67222 -0.660173,-0.96032 -0.424473,-0.29528 -0.915303,-0.12573 -0.485494,0.1677 -0.642549,0.66386 -0.153562,0.48898 0.07865,1.16121 z" />
      <path
         id="path866"
         style="font-style:normal;font-variant:normal;font-weight:bold;font-stretch:normal;font-size:5.64444447px;font-family:Cinzel;-inkscape-font-specification:'Cinzel, Bold';font-variant-ligatures:normal;font-variant-caps:normal;font-variant-numeric:normal;font-feature-settings:normal;text-align:start;writing-mode:lr-tb;text-anchor:start;fill:#ffffff;stroke-width:0.26458332"
         d="m 103.46934,106.5683 q 0.14508,-0.0221 0.21212,-0.10661 0.10874,-0.14793 0.0922,-0.29385 l -0.21721,-1.42285 -1.80786,0.27599 0.21637,1.41727 q 0.0222,0.14507 0.14435,0.2349 0.12135,0.0843 0.26642,0.0621 l 0.067,-0.0102 0.0141,0.0549 -1.69626,0.25896 -0.009,-0.0558 0.0725,-0.0111 q 0.14507,-0.0221 0.23017,-0.13792 0.0898,-0.1222 0.0733,-0.26813 l -0.47191,-3.09121 q -0.0277,-0.14422 -0.14908,-0.22847 -0.11662,-0.0907 -0.2617,-0.0685 l -0.0725,0.0111 -0.009,-0.0558 1.69626,-0.25896 0.003,0.0566 -0.067,0.0102 q -0.14508,0.0221 -0.23491,0.14434 -0.0907,0.11662 -0.0685,0.2617 l 0.21892,1.43401 1.80785,-0.27599 -0.21892,-1.43401 q -0.0277,-0.14423 -0.14908,-0.22848 -0.11662,-0.0907 -0.26169,-0.0685 l -0.0725,0.0111 -0.009,-0.0558 1.69626,-0.25895 0.009,0.0558 -0.0725,0.0111 q -0.14507,0.0222 -0.23491,0.14435 -0.0907,0.11662 -0.0685,0.26169 l 0.47191,3.09121 q 0.0221,0.14508 0.14435,0.23491 0.12135,0.0842 0.26642,0.0621 l 0.0725,-0.0111 0.009,0.0558 -1.69626,0.25895 -0.009,-0.0558 z" />
      <path
         id="path868"
         style="font-style:normal;font-variant:normal;font-weight:bold;font-stretch:normal;font-size:5.64444447px;font-family:Cinzel;-inkscape-font-specification:'Cinzel, Bold';font-variant-ligatures:normal;font-variant-caps:normal;font-variant-numeric:normal;font-feature-settings:normal;text-align:start;writing-mode:lr-tb;text-anchor:start;fill:#ffffff;stroke-width:0.26458332"
         d="m 105.46581,106.35714 0.0677,-0.003 q 0.1353,-0.007 0.2269,-0.0961 0.0913,-0.095 0.0851,-0.21903 l -0.13394,-2.67211 q -0.006,-0.12402 -0.10629,-0.20378 -0.10036,-0.0854 -0.23566,-0.0786 l -0.0676,0.003 -0.003,-0.0564 1.60101,-0.0803 0.003,0.0564 -0.0677,0.003 q -0.12966,0.007 -0.22126,0.0959 -0.0916,0.0894 -0.091,0.21367 l 0.13422,2.67775 q 0.0121,0.12938 0.11221,0.20913 0.10008,0.0798 0.22974,0.0733 l 0.0677,-0.003 0.003,0.0564 -1.60101,0.0803 z" />
      <path
         id="path870"
         style="font-style:normal;font-variant:normal;font-weight:bold;font-stretch:normal;font-size:5.64444447px;font-family:Cinzel;-inkscape-font-specification:'Cinzel, Bold';font-variant-ligatures:normal;font-variant-caps:normal;font-variant-numeric:normal;font-feature-settings:normal;text-align:start;writing-mode:lr-tb;text-anchor:start;fill:#ffffff;stroke-width:0.26458332"
         d="m 107.91486,105.90687 q -0.4835,-0.49335 -0.45138,-1.31681 0.0321,-0.82346 0.55234,-1.27202 0.52588,-0.44834 1.41138,-0.4138 0.39481,0.0154 0.77548,0.10368 0.38089,0.0826 0.61316,0.21032 l -0.035,0.89679 -0.0451,-0.002 q -0.21187,-0.94031 -1.14813,-0.97682 -0.58658,-0.0229 -0.91285,0.37675 -0.3204,0.39421 -0.349,1.12743 -0.0284,0.72758 0.23237,1.13881 0.26639,0.41145 0.77965,0.43147 0.282,0.011 0.51267,-0.10992 0.23089,-0.12657 0.31389,-0.37188 l 0.032,-0.67659 q 0.004,-0.10717 -0.0613,-0.16621 -0.0596,-0.0645 -0.17806,-0.0691 l -0.079,-0.003 0.002,-0.0451 1.44952,0.0565 -0.002,0.0451 -0.0677,-0.003 q -0.24817,-0.01 -0.25696,0.21593 l -0.0295,0.75578 q -0.20731,0.24611 -0.68336,0.4309 -0.47605,0.18479 -1.03442,0.16301 -0.85145,-0.0389 -1.3408,-0.52679 z" />
      <path
         id="path872"
         style="font-style:normal;font-variant:normal;font-weight:bold;font-stretch:normal;font-size:5.64444447px;font-family:Cinzel;-inkscape-font-specification:'Cinzel, Bold';font-variant-ligatures:normal;font-variant-caps:normal;font-variant-numeric:normal;font-feature-settings:normal;text-align:start;writing-mode:lr-tb;text-anchor:start;fill:#ffffff;stroke-width:0.26458332"
         d="m 115.17463,107.01529 0.0613,0.01 -0.009,0.0557 -1.53212,-0.24902 0.009,-0.0557 0.0557,0.009 q 0.12814,0.0208 0.23087,-0.0483 0.10272,-0.0691 0.12355,-0.19722 l 0.1956,-1.20341 -1.46526,-0.23815 -0.1956,1.2034 q -0.0153,0.12905 0.0603,0.22711 0.0756,0.0981 0.19813,0.11798 l 0.0613,0.01 -0.009,0.0557 -1.53769,-0.24993 0.009,-0.0557 0.0613,0.01 q 0.12814,0.0208 0.23087,-0.0482 0.10363,-0.0747 0.12355,-0.19722 l 0.42923,-2.64082 q 0.0199,-0.12256 -0.0556,-0.22062 -0.0746,-0.10363 -0.20279,-0.12446 l -0.0613,-0.01 0.009,-0.0557 1.53768,0.24992 -0.009,0.0557 -0.0613,-0.01 q -0.12257,-0.0199 -0.22529,0.0492 -0.10272,0.0691 -0.12822,0.19074 l -0.19831,1.22012 1.46526,0.23816 0.19741,-1.21455 q 0.0281,-0.17271 -0.10877,-0.28073 -0.0661,-0.0508 -0.14966,-0.0644 l -0.0557,-0.009 0.009,-0.0557 1.53212,0.24902 -0.009,0.0557 -0.0613,-0.01 q -0.12257,-0.0199 -0.2253,0.0492 -0.10272,0.0691 -0.12912,0.19632 l -0.43013,2.64638 q -0.0225,0.17362 0.10967,0.27516 0.0661,0.0508 0.14966,0.0644 z" />
      <path
         id="path874"
         style="font-style:normal;font-variant:normal;font-weight:bold;font-stretch:normal;font-size:5.64444447px;font-family:Cinzel;-inkscape-font-specification:'Cinzel, Bold';font-variant-ligatures:normal;font-variant-caps:normal;font-variant-numeric:normal;font-feature-settings:normal;text-align:start;writing-mode:lr-tb;text-anchor:start;fill:#ffffff;stroke-width:0.26458332"
         d="m 121.84752,109.18044 0.0849,0.0307 -0.0192,0.0531 -1.59229,-0.57617 0.0173,-0.0478 0.0796,0.0288 q 0.0922,0.0273 0.18081,-0.0186 0.0887,-0.0459 0.10877,-0.13471 l 0.49016,-2.00158 -1.6201,1.35861 q -0.31546,0.25802 -0.41487,0.51617 l -0.0531,-0.0192 -0.53438,-2.78649 -0.8984,1.83586 q -0.0414,0.0811 -0.005,0.17843 0.0387,0.0921 0.12895,0.1247 l 0.0796,0.0288 -0.0173,0.0478 -1.1093,-0.40139 0.0192,-0.0531 0.0849,0.0307 q 0.14861,0.0538 0.28742,0.002 0.14411,-0.0499 0.22103,-0.19614 l 1.67162,-3.2428 0.0478,0.0173 0.66589,3.30228 2.56116,-2.13457 0.0478,0.0173 -0.77993,3.56546 q -0.0292,0.16352 0.0444,0.29216 0.0788,0.13056 0.22211,0.18242 z" />
      <path
         id="path876"
         style="font-style:normal;font-variant:normal;font-weight:bold;font-stretch:normal;font-size:5.64444447px;font-family:Cinzel;-inkscape-font-specification:'Cinzel, Bold';font-variant-ligatures:normal;font-variant-caps:normal;font-variant-numeric:normal;font-feature-settings:normal;text-align:start;writing-mode:lr-tb;text-anchor:start;fill:#ffffff;stroke-width:0.26458332"
         d="m 125.19821,110.99917 0.04,0.021 -0.0262,0.05 -1.46939,-0.77119 0.0262,-0.05 0.04,0.021 q 0.0999,0.0525 0.17641,0.0161 0.0765,-0.0364 0.10269,-0.0863 0.0262,-0.05 0.0351,-0.11545 l 0.0464,-0.56211 -1.05956,-0.55609 -0.44386,0.35988 q -0.0462,0.0395 -0.0751,0.0945 -0.0262,0.05 -0.0127,0.13357 0.0211,0.0812 0.12109,0.13367 l 0.04,0.021 -0.0262,0.05 -0.99959,-0.52461 0.0262,-0.05 0.04,0.021 q 0.10496,0.0551 0.24401,0.0452 0.13906,-0.01 0.27223,-0.10574 l 2.19922,-1.6761 q 0.47959,-0.37938 0.54991,-0.48909 l 0.045,0.0236 -0.13473,3.51182 q -0.0111,0.17904 0.0571,0.30409 0.0759,0.12268 0.18581,0.18039 z m -1.90112,-2.18344 0.88963,0.46691 0.10841,-1.2754 z" />
      <path
         id="path878"
         style="font-style:normal;font-variant:normal;font-weight:bold;font-stretch:normal;font-size:5.64444447px;font-family:Cinzel;-inkscape-font-specification:'Cinzel, Bold';font-variant-ligatures:normal;font-variant-caps:normal;font-variant-numeric:normal;font-feature-settings:normal;text-align:start;writing-mode:lr-tb;text-anchor:start;fill:#ffffff;stroke-width:0.26458332"
         d="m 125.23857,111.10502 0.0317,-0.0467 0.0467,0.0317 q 0.14954,0.1013 0.30662,0.0305 0.0707,-0.0339 0.12286,-0.10085 l 1.5006,-2.21502 q 0.0935,-0.14803 0.0148,-0.3036 -0.0386,-0.0739 -0.10868,-0.12136 l -0.0514,-0.0348 0.0316,-0.0467 1.29444,0.87693 -0.0317,0.0467 -0.0514,-0.0348 q -0.1028,-0.0696 -0.22973,-0.0534 -0.12226,0.0194 -0.19658,0.11908 l -1.50377,2.2197 q -0.065,0.10597 -0.0409,0.23139 0.0273,0.12075 0.13476,0.19356 l 0.0467,0.0317 -0.027,0.0499 z m 3.07954,2.08628 -0.35983,-0.24377 q -0.64955,-0.44005 -0.68149,-0.98666 0.002,-0.0532 -0.0125,-0.42435 -0.0256,-0.97865 -0.0224,-0.98332 l 1.81908,-0.62207 q 0.0957,-0.0306 0.101,-0.10884 0.008,-0.0829 -0.071,-0.13673 l -0.042,-0.0285 0.0285,-0.0421 0.9533,0.64583 -0.0285,0.0421 -0.0187,-0.0127 q -0.25234,-0.17096 -0.53454,-0.1167 l -1.39622,0.39039 0.0569,2.02935 q 0.006,0.393 0.23696,0.55596 z" />
      <path
         id="path880"
         style="font-style:normal;font-variant:normal;font-weight:bold;font-stretch:normal;font-size:5.64444447px;font-family:Cinzel;-inkscape-font-specification:'Cinzel, Bold';font-variant-ligatures:normal;font-variant-caps:normal;font-variant-numeric:normal;font-feature-settings:normal;text-align:start;writing-mode:lr-tb;text-anchor:start;fill:#ffffff;stroke-width:0.26458332"
         d="m 130.39197,114.97585 -2.03369,-1.71228 0.0363,-0.0432 0.0518,0.0436 q 0.0993,0.0836 0.2186,0.0734 0.12362,-0.007 0.20792,-0.098 l 1.73045,-2.05528 q 0.0757,-0.0986 0.0611,-0.22156 -0.0102,-0.1193 -0.10954,-0.20291 l -0.0518,-0.0436 0.0364,-0.0432 1.51987,1.27967 q 0.11658,0.0982 0.27292,0.1929 0.15635,0.0947 0.23066,0.12042 l -0.57803,0.68653 -0.0432,-0.0364 0.0327,-0.0389 q 0.15996,-0.18998 0.14722,-0.38518 -0.0128,-0.19519 -0.19478,-0.35583 l -0.62176,-0.5235 -0.88341,1.04923 0.49223,0.41444 q 0.15044,0.11928 0.3211,0.10063 0.17065,-0.0186 0.29425,-0.16545 l 0.0255,-0.0302 0.0432,0.0364 -0.77071,0.91538 -0.0432,-0.0364 0.0255,-0.0302 q 0.17087,-0.20294 0.0961,-0.42085 -0.0377,-0.11294 -0.13273,-0.19292 l -0.49654,-0.41807 -0.8616,1.02332 0.51814,0.43625 q 0.27134,0.22108 0.59152,0.21764 0.32813,-0.004 0.66169,-0.22502 l 0.0389,0.0327 z" />
      <path
         id="path882"
         style="font-style:normal;font-variant:normal;font-weight:bold;font-stretch:normal;font-size:5.64444447px;font-family:Cinzel;-inkscape-font-specification:'Cinzel, Bold';font-variant-ligatures:normal;font-variant-caps:normal;font-variant-numeric:normal;font-feature-settings:normal;text-align:start;writing-mode:lr-tb;text-anchor:start;fill:#ffffff;stroke-width:0.26458332"
         d="m 134.01498,114.11877 -0.12549,-0.12992 -2.01367,1.94503 q -0.0974,0.0941 -0.0956,0.2179 0.01,0.12391 0.0922,0.20917 l 0.0431,0.0447 -0.0406,0.0392 -1.0784,-1.11645 0.0406,-0.0392 0.0471,0.0487 q 0.0863,0.0893 0.20599,0.0914 0.12364,0.006 0.21295,-0.0801 l 1.93248,-1.8666 q 0.0893,-0.0863 0.0875,-0.21005 0.002,-0.11972 -0.0803,-0.20498 l -0.051,-0.0528 0.0406,-0.0392 1.20388,1.24636 q 0.35293,0.36539 0.45004,0.75029 0.10833,0.429 -0.25705,0.78193 -0.23547,0.22744 -0.56354,0.26966 -0.324,0.0383 -0.63517,-0.20262 0.0693,0.1449 0.0698,0.3485 0.004,0.20765 -0.0384,0.37456 -0.10592,0.35344 -0.16355,0.68376 -0.0536,0.3264 -0.028,0.46656 0.0294,0.14421 0.15099,0.27007 l -0.0406,0.0392 -0.3294,-0.34102 q -0.32548,-0.33697 -0.42075,-0.59809 -0.0914,-0.25706 -0.001,-0.61875 0.13739,-0.55648 0.2894,-0.80533 0.0747,-0.16636 0.069,-0.2942 -0.002,-0.12377 -0.0525,-0.19251 l 0.0325,-0.0314 0.098,0.1015 q 0.33738,0.34116 0.81381,0.0301 0.0766,-0.0426 0.12124,-0.0857 0.0447,-0.0431 0.11787,-0.1217 0.0773,-0.0825 0.12766,-0.22532 0.0584,-0.1427 0.0324,-0.25891 -0.0444,-0.20036 -0.16978,-0.33826 -0.0391,-0.0486 -0.094,-0.10541 z" />
      <path
         id="path884"
         style="font-style:normal;font-variant:normal;font-weight:bold;font-stretch:normal;font-size:5.64444447px;font-family:Cinzel;-inkscape-font-specification:'Cinzel, Bold';font-variant-ligatures:normal;font-variant-caps:normal;font-variant-numeric:normal;font-feature-settings:normal;text-align:start;writing-mode:lr-tb;text-anchor:start;fill:#ffffff;stroke-width:0.26458332"
         d="m 133.74246,117.78223 q 0.28777,-0.22759 0.59296,-0.26026 l 0.028,0.0354 q -0.0345,0.0201 -0.061,0.0411 -0.27006,0.21358 -0.32315,0.56501 -0.0496,0.35587 0.22352,0.70119 0.19608,0.24792 0.41623,0.2897 0.22365,0.0462 0.36532,-0.0658 0.14167,-0.11205 0.16276,-0.25826 0.029,-0.14529 0.004,-0.41342 l -0.0988,-0.94378 q -0.0672,-0.59453 0.32239,-0.90265 0.0399,-0.0315 0.0876,-0.0621 0.33534,-0.22204 0.68399,-0.14516 0.35309,0.0734 0.58418,0.36557 0.23459,0.29662 0.45385,0.65574 l 0.18908,0.23907 -0.63341,0.4002 -0.0315,-0.0398 q 0.20808,-0.16457 0.21206,-0.4052 0.007,-0.23621 -0.18158,-0.47528 -0.18558,-0.23464 -0.39595,-0.29135 -0.20594,-0.0602 -0.36974,0.0693 -0.13282,0.10504 -0.12517,0.31489 0.002,0.0846 0.0207,0.23548 l 0.12286,1.04706 q 0.0658,0.5381 -0.32384,0.84623 -0.41172,0.32563 -0.86418,0.2085 -0.44895,-0.11269 -0.81309,-0.57312 -0.22409,-0.28334 -0.32925,-0.55279 -0.10516,-0.26946 -0.0839,-0.45181 0.0587,-0.0896 0.16493,-0.17363 z" />
      <path
         id="path886"
         style="font-style:normal;font-variant:normal;font-weight:bold;font-stretch:normal;font-size:5.64444447px;font-family:Cinzel;-inkscape-font-specification:'Cinzel, Bold';font-variant-ligatures:normal;font-variant-caps:normal;font-variant-numeric:normal;font-feature-settings:normal;text-align:start;writing-mode:lr-tb;text-anchor:start;fill:#ffffff;stroke-width:0.26458332"
         d="m 137.07351,123.56441 q -0.53967,-0.94631 -0.37165,-1.75689 0.16802,-0.81058 0.99666,-1.28314 0.82863,-0.47256 1.60902,-0.20934 0.7853,0.26041 1.31658,1.19201 0.40545,0.71096 0.43149,1.37188 l -0.83775,0.49076 -0.0224,-0.0392 q 0.75957,-0.76456 0.25066,-1.65694 -0.32995,-0.57857 -0.94456,-0.67641 -0.60691,-0.0957 -1.33258,0.3181 -0.72567,0.41384 -0.97049,0.97582 -0.24202,0.56687 0.0564,1.12442 0.32436,0.56876 0.77932,0.70568 0.46755,0.13622 1.25052,-0.15435 l 0.0224,0.0392 -0.81538,0.52998 q -0.88352,-0.0225 -1.41828,-0.97157 z" />
      <path
         id="path888"
         style="font-style:normal;font-variant:normal;font-weight:bold;font-stretch:normal;font-size:5.64444447px;font-family:Cinzel;-inkscape-font-specification:'Cinzel, Bold';font-variant-ligatures:normal;font-variant-caps:normal;font-variant-numeric:normal;font-feature-settings:normal;text-align:start;writing-mode:lr-tb;text-anchor:start;fill:#ffffff;stroke-width:0.26458332"
         d="m 138.07977,125.29984 0.0518,-0.0223 0.0268,0.0622 q 0.0514,0.11922 0.16265,0.16346 0.11349,0.0494 0.22753,2.8e-4 l 2.46216,-1.0612 q 0.11403,-0.0491 0.15604,-0.1656 0.0472,-0.11868 -0.002,-0.23272 l -0.0268,-0.0622 0.0518,-0.0223 0.62108,1.44101 -0.0518,0.0223 -0.0268,-0.0622 q -0.0514,-0.11922 -0.16488,-0.16865 -0.1135,-0.0494 -0.23272,0.002 l -2.57619,1.11035 0.26809,0.62202 q 0.1437,0.31914 0.43156,0.45937 0.29304,0.138 0.69019,0.0897 l 0.0246,0.057 -1.04089,0.20892 z" />
      <path
         id="path890"
         style="font-style:normal;font-variant:normal;font-weight:bold;font-stretch:normal;font-size:5.64444447px;font-family:Cinzel;-inkscape-font-specification:'Cinzel, Bold';font-variant-ligatures:normal;font-variant-caps:normal;font-variant-numeric:normal;font-feature-settings:normal;text-align:start;writing-mode:lr-tb;text-anchor:start;fill:#ffffff;stroke-width:0.26458332"
         d="m 143.56062,130.6155 -0.0235,-0.0755 q -0.0318,-0.1024 -0.11832,-0.15236 -0.0811,-0.0516 -0.17977,-0.0268 l -1.78402,0.55484 q -0.5821,0.18104 -1.0269,-0.0708 -0.43941,-0.25347 -0.65901,-0.95953 -0.21791,-0.70068 -0.0169,-1.19471 0.20269,-0.48864 0.79018,-0.67135 l 1.78941,-0.55652 q 0.097,-0.0302 0.13823,-0.12575 0.0429,-0.0902 0.011,-0.19259 l -0.0235,-0.0755 0.0539,-0.0168 0.44086,1.41752 -0.0539,0.0168 -0.0235,-0.0755 q -0.0319,-0.1024 -0.11832,-0.15235 -0.0865,-0.05 -0.18348,-0.0198 l -1.75169,0.54478 q -0.49586,0.15422 -0.70572,0.46776 -0.20819,0.31893 -0.0791,0.73394 0.12907,0.41501 0.46693,0.57003 0.33953,0.1604 0.80844,0.0146 l 1.81097,-0.56323 q 0.10073,-0.0372 0.13823,-0.12575 0.0429,-0.0902 0.011,-0.19259 l -0.0218,-0.0701 0.0539,-0.0168 0.31011,0.99712 z" />
      <path
         id="path892"
         style="font-style:normal;font-variant:normal;font-weight:bold;font-stretch:normal;font-size:5.64444447px;font-family:Cinzel;-inkscape-font-specification:'Cinzel, Bold';font-variant-ligatures:normal;font-variant-caps:normal;font-variant-numeric:normal;font-feature-settings:normal;text-align:start;writing-mode:lr-tb;text-anchor:start;fill:#ffffff;stroke-width:0.26458332"
         d="m 143.46234,134.16591 q -0.20508,0.0395 -0.37735,-0.0193 -0.33239,-0.11419 -0.42735,-0.45803 0.0438,0.37669 -0.1465,0.672 -0.18476,0.29425 -0.55057,0.36469 -0.715,0.13769 -1.06334,-0.68619 -0.0969,-0.23427 -0.15235,-0.52249 l -0.30953,-1.60735 0.0554,-0.0107 0.0117,0.061 q 0.0246,0.12748 0.1237,0.19461 0.10021,0.0727 0.22876,0.0537 l 2.6272,-0.50593 q 0.19846,-0.044 0.2353,-0.24074 0.0115,-0.0597 -2.5e-4,-0.12067 l -0.0117,-0.061 0.0554,-0.0107 0.28605,1.48542 q 0.24122,1.25263 -0.58463,1.41166 z m -1.6248,-0.34815 q 0.25496,-0.0491 0.40651,-0.18749 0.2952,-0.25803 0.2034,-0.7347 -0.001,-0.006 -0.002,-0.0111 l 0.0499,-0.01 q 0.0512,0.26605 0.23845,0.40244 0.18721,0.13639 0.51423,0.0734 0.66511,-0.12808 0.54877,-0.73223 l -0.0299,-0.15519 -2.8877,0.55608 0.0427,0.22171 q 0.0619,0.32147 0.28878,0.48471 0.22794,0.16879 0.627,0.0919 z" />
    </g>
    <circle
       r="0.42483923"
       cy="113.33617"
       cx="64.672638"
       id="path4575"
       style="fill:#ffffff;fill-opacity:1;stroke-width:0.03504745" />
    <circle
       r="0.42483923"
       cy="113.33617"
       cx="98.499321"
       id="path4575-8"
       style="fill:#ffffff;fill-opacity:1;stroke-width:0.03504745" />
    <ellipse
       transform="matrix(0.8669927,0.49832083,-0.47015187,0.88258553,0,0)"
       ry="0.5038473"
       rx="3.0038331"
       cy="68.295143"
       cx="118.16035"
       id="path161"
       style="fill:#000000;fill-opacity:1;stroke-width:0.16459185" />
    <ellipse
       ry="0.37797621"
       rx="0.34254089"
       cy="117.74431"
       cx="68.44912"
       id="path178"
       style="fill:#000000;fill-opacity:1;stroke-width:0.26458332" />
    <ellipse
       ry="0.89479601"
       rx="0.87218535"
       cy="121.10173"
       cx="73.093025"
       id="path180"
       style="fill:#000000;fill-opacity:1;stroke-width:0.30701467" />
    <circle
       r="0.20079985"
       cy="114.04723"
       cx="74.803856"
       id="path194"
       style="fill:#000000;fill-opacity:1;stroke-width:0.10709325" />
    <rect
       transform="matrix(0.89396715,0.4481325,-0.262915,0.964819,0,0)"
       y="70.440346"
       x="103.27283"
       height="1.4028815"
       width="0.49835587"
       id="rect206"
       style="fill:#000000;fill-opacity:1;stroke-width:0.25028467" />
    <ellipse
       ry="1.4764695"
       rx="0.55497867"
       cy="119.57513"
       cx="73.351173"
       id="path208"
       style="fill:#000000;fill-opacity:1;stroke-width:0.29228938" />
    <ellipse
       transform="rotate(-8.6937496)"
       ry="0.56629825"
       rx="1.5432118"
       cy="135.87773"
       cx="65.660858"
       id="path210"
       style="fill:#000000;fill-opacity:1;stroke-width:0.26458332" />
    <rect
       transform="rotate(18.117299)"
       y="91.905365"
       x="122.03603"
       height="1.3029389"
       width="0.29232603"
       id="rect212"
       style="fill:#ffffff;fill-opacity:1;stroke-width:0.26458332" />
    <path
       id="path1039"
       d="m 87.336196,121.15833 c 0.329363,0.71883 1.317454,2.87532 1.646817,3.59415 z m 1.887353,3.48393 c -0.329363,-0.71883 -1.317454,-2.87532 -1.646817,-3.59415 z"
       style="fill:#000000;fill-rule:nonzero;stroke:none;stroke-width:0.26458332px;stroke-linecap:butt;stroke-linejoin:miter;stroke-opacity:1" />
    <path
       id="path4746"
       d="m 89.103281,124.69737 0.563557,1.19387 -2.344872,0.33826 1.781315,-1.53213 v 0"
       style="fill:#ffffff;fill-opacity:1;stroke:none;stroke-width:0.001;stroke-linecap:butt;stroke-linejoin:miter;stroke-miterlimit:4;stroke-dasharray:none;stroke-opacity:1" />
    <rect
       y="125.2356"
       x="87.463951"
       height="1.0565498"
       width="0.50113034"
       id="rect4748"
       style="fill:#ffffff;fill-opacity:1;stroke:none;stroke-width:0.001;stroke-miterlimit:4;stroke-dasharray:none;stroke-opacity:1" />
    <path
       id="path4750"
       d="m 80.602642,114.83296 -0.161785,0.23644 2.287413,0.70318 -0.63454,-1.55484 z"
       style="fill:#ffffff;fill-opacity:1;stroke:none;stroke-width:0;stroke-linecap:butt;stroke-linejoin:miter;stroke-miterlimit:4;stroke-dasharray:none;stroke-opacity:1" />
    <path
       id="path4752"
       d="m 82.09373,114.21774 -0.145245,0.10263 -0.01773,-0.10926 z"
       style="fill:#ffffff;fill-opacity:1;stroke:#000000;stroke-width:0;stroke-linecap:butt;stroke-linejoin:miter;stroke-miterlimit:4;stroke-dasharray:none;stroke-opacity:1" />
    <path
       id="path4771"
       d="m 82.411397,108.19791 1.386484,-1.43533 1.528222,0.63585 -0.482262,0.89647 -1.023472,0.60086 z"
       style="fill:#ffffff;fill-opacity:1;stroke:#000000;stroke-width:0;stroke-linecap:butt;stroke-linejoin:miter;stroke-miterlimit:4;stroke-dasharray:none;stroke-opacity:1" />
  </g>
  <g
     style="display:inline"
     id="layer4">
    <circle
       transform="rotate(-173)"
       r="33.363476"
       style="fill:none;fill-opacity:1;stroke-width:0.73561817"
       cy="-125.5029"
       cx="-124.1705"
       id="path39" />
  </g>
</svg>
